<svg width="299" height="127" viewBox="0 0 299 127" fill="none" xmlns="http://www.w3.org/2000/svg">
<g filter="url(#filter0_d_142_84)">
<path d="M4.34688 22.9269C8.37079 11.4585 25.2231 4.05396 65.5653 4.05396C105.908 4.05396 188.037 12.8016 220.331 10.1153C252.626 7.42905 289.632 0.0245056 290.973 22.9269C292.314 45.8293 305.762 117.946 274.155 117.946C242.549 117.946 124.101 104.48 80.3541 111.885C36.6069 119.289 5.00034 124.662 4.34688 97.73C3.69343 70.7982 4.34688 22.9269 4.34688 22.9269Z" fill="white"/>
<path fill-rule="evenodd" clip-rule="evenodd" d="M4.34688 22.9269C0.847208 22.8792 0.84721 22.8794 0.847205 22.8798L0.840001 23.4258C0.835364 23.7838 0.828652 24.3121 0.820345 24.9938C0.803731 26.3573 0.780733 28.3346 0.755184 30.7912C0.704087 35.7043 0.64277 42.5359 0.601891 50.2104C0.520196 65.547 0.519826 84.2928 0.847917 97.8149C1.02906 105.281 3.40154 111.047 8.08407 115.015C12.6286 118.866 18.8617 120.597 25.9057 121.172C39.7736 122.304 58.9095 119.064 80.3451 115.436L80.9382 115.336C102.33 111.715 142.435 113.183 181.589 115.632C195.689 116.514 209.659 117.522 222.496 118.449C244.988 120.073 264.004 121.446 274.155 121.446C278.822 121.446 282.824 120.097 286.125 117.59C289.379 115.118 291.759 111.668 293.504 107.741C296.958 99.9676 298.206 89.6649 298.419 79.0955C298.634 68.4435 297.799 57.121 296.84 47.1021C296.47 43.2316 296.085 39.5905 295.732 36.2536C295.16 30.835 294.672 26.2181 294.467 22.7223C294.064 15.8413 290.865 10.96 285.705 7.88003C280.801 4.95329 274.348 3.77701 267.435 3.42977C257.383 2.92487 245.155 4.16238 233.144 5.37803C228.707 5.82712 224.299 6.27323 220.041 6.62739C204.207 7.94447 175.899 6.45639 146.185 4.59883C141.712 4.31922 137.21 4.03149 132.72 3.74452C107.575 2.13733 82.8016 0.553955 65.5654 0.553955C45.2477 0.553955 30.5079 2.40994 20.2202 5.87264C9.89706 9.34727 3.54758 14.6336 1.04428 21.7681L0.855015 22.3076L0.847205 22.8798L4.34688 22.9269ZM7.83858 23.5813C7.834 23.9354 7.82762 24.4394 7.81983 25.0791C7.80326 26.4389 7.78031 28.4119 7.75481 30.864C7.7038 35.7684 7.64259 42.5878 7.60179 50.2477C7.52012 65.5796 7.52049 84.2354 7.84586 97.6451C7.99144 103.645 9.81484 107.307 12.6094 109.675C15.542 112.16 20.0673 113.672 26.475 114.195C39.3828 115.249 57.6985 112.17 79.77 108.434C102.125 104.65 143.117 106.212 182.026 108.646C196.445 109.547 210.588 110.569 223.489 111.501C245.711 113.107 264.246 114.446 274.155 114.446C277.39 114.446 279.882 113.541 281.89 112.016C283.945 110.454 285.689 108.091 287.107 104.899C289.979 98.4349 291.212 89.2769 291.42 78.9544C291.627 68.7144 290.824 57.7135 289.872 47.7691C289.522 44.1167 289.148 40.5725 288.799 37.2628C288.211 31.685 287.692 26.7732 287.479 23.1316C287.211 18.5613 285.282 15.7798 282.117 13.8908C278.695 11.8485 273.627 10.7496 267.084 10.421C257.601 9.94466 246.215 11.0967 234.408 12.2912C229.847 12.7527 225.223 13.2206 220.621 13.6033C204.161 14.9725 175.257 13.4299 145.748 11.5852C141.242 11.3035 136.719 11.0145 132.217 10.7269C107.047 9.11877 82.5554 7.55396 65.5654 7.55396C45.5408 7.55396 31.6832 9.40024 22.4532 12.5069C13.6161 15.4814 9.49562 19.4309 7.83858 23.5813Z" fill="#231F20"/>
</g>
<defs>
<filter id="filter0_d_142_84" x="0.556458" y="0.553955" width="297.897" height="125.892" filterUnits="userSpaceOnUse" color-interpolation-filters="sRGB">
<feFlood flood-opacity="0" result="BackgroundImageFix"/>
<feColorMatrix in="SourceAlpha" type="matrix" values="0 0 0 0 0 0 0 0 0 0 0 0 0 0 0 0 0 0 127 0" result="hardAlpha"/>
<feOffset dy="5"/>
<feComposite in2="hardAlpha" operator="out"/>
<feColorMatrix type="matrix" values="0 0 0 0 0 0 0 0 0 0 0 0 0 0 0 0 0 0 0.25 0"/>
<feBlend mode="normal" in2="BackgroundImageFix" result="effect1_dropShadow_142_84"/>
<feBlend mode="normal" in="SourceGraphic" in2="effect1_dropShadow_142_84" result="shape"/>
</filter>
</defs>
</svg>
