<svg width="1440" height="568" viewBox="0 0 1440 568" fill="none" xmlns="http://www.w3.org/2000/svg">
<path d="M244.821 527.097C244.821 541.817 232.864 553.757 218.109 553.757C209.86 553.757 202.488 550.026 197.586 544.16C190.245 553.1 179.088 558.801 166.601 558.801C160.01 558.801 153.785 557.207 148.297 554.39C141.401 560.006 132.603 563.359 123.025 563.359C112.836 563.359 103.532 559.562 96.4596 553.3C88.4784 558.333 79.0157 561.242 68.8823 561.242C58.7489 561.242 49.5788 558.424 41.6769 553.538C34.336 561.838 23.5929 567.077 11.6242 567.077C3.86258 567.077 -3.38689 564.875 -9.5267 561.053C-13.7215 562.55 -18.2456 563.359 -22.9526 563.359C-28.0498 563.359 -32.9213 562.41 -37.4027 560.676C-41.8841 562.41 -46.7557 563.359 -51.8529 563.359C-58.6207 563.359 -64.9922 561.686 -70.5833 558.728C-71.2418 558.777 -71.9124 558.801 -72.5831 558.801C-77.4486 558.801 -82.0093 557.505 -85.9358 555.235C-89.8624 557.505 -94.423 558.801 -99.2885 558.801C-114.044 558.801 -126 546.868 -126 532.148C-126 517.428 -114.044 505.488 -99.2885 505.488C-96.7277 505.488 -94.2462 505.847 -91.9049 506.523C-91.5818 478.269 -68.5346 455.461 -40.1403 455.461C-39.8233 455.461 -39.5062 455.461 -39.1892 455.473C-30.013 433.469 -8.26459 418 17.1116 418C40.549 418 60.9073 431.205 71.0956 450.568C77.8816 447.307 85.4908 445.475 93.5268 445.475C118.208 445.475 138.853 462.709 144.042 485.778C150.462 481.397 158.236 478.835 166.601 478.835C183.654 478.835 198.227 489.472 204.001 504.466C208.092 501.916 212.933 500.444 218.109 500.444C232.864 500.444 244.821 512.377 244.821 527.097Z" fill="white"/>
<path d="M876.814 110.577C876.814 123.323 866.489 133.651 853.755 133.651C848.786 133.651 844.188 132.081 840.425 129.407C834.748 135.196 826.838 138.787 818.087 138.787C814.875 138.787 811.776 138.303 808.859 137.406C801.388 143.452 791.879 147.075 781.522 147.075C775.331 147.075 769.44 145.781 764.108 143.446C757.033 147.049 749.028 149.077 740.541 149.077C728.121 149.077 716.717 144.726 707.765 137.462C700.307 143.477 690.822 147.075 680.497 147.075C668.986 147.075 658.523 142.598 650.738 135.29C645.005 142.472 636.172 147.075 626.267 147.075C618.069 147.075 610.61 143.923 605.034 138.768C597.857 143.992 589.025 147.075 579.472 147.075C568.808 147.075 559.041 143.232 551.476 136.859C546.031 141.443 538.992 144.212 531.314 144.212C514.02 144.212 500 130.179 500 112.863C500 95.5467 514.02 81.5142 531.314 81.5142C533.315 81.5142 535.279 81.7025 537.173 82.0604C541.79 62.9611 558.972 48.7779 579.472 48.7779C582.15 48.7779 584.766 49.0228 587.306 49.4811C596.835 37.2442 611.702 29.3772 628.407 29.3772C635.087 29.3772 641.473 30.633 647.338 32.9309C658.943 13.2226 680.371 0 704.88 0C733.158 0 757.321 17.5924 767.057 42.4303C769.811 41.8841 772.652 41.5953 775.569 41.5953C792.656 41.5953 807.442 51.4463 814.561 65.7927C815.722 65.6609 816.895 65.5918 818.087 65.5918C832.345 65.5918 844.383 75.1289 848.165 88.182C849.953 87.7362 851.829 87.4976 853.755 87.4976C866.489 87.4976 876.814 97.8258 876.814 110.577Z" fill="white"/>
<path d="M1565.74 470.525C1565.74 488.159 1551.47 502.452 1533.86 502.452C1523.24 502.452 1513.83 497.243 1508.04 489.24C1499.66 500.372 1486.34 507.565 1471.33 507.565C1463.89 507.565 1456.85 505.794 1450.63 502.64C1444.09 505.794 1436.76 507.565 1429.02 507.565C1418.39 507.565 1408.55 504.236 1400.46 498.556C1392.37 504.236 1382.52 507.565 1371.9 507.565C1359.02 507.565 1347.28 502.671 1338.43 494.636C1330.16 502.646 1318.9 507.565 1306.5 507.565C1297.4 507.565 1288.93 504.92 1281.79 500.359C1277.11 501.66 1272.17 502.357 1267.07 502.357C1255.18 502.357 1244.17 498.575 1235.18 492.148C1226.76 501.61 1214.49 507.565 1200.85 507.565C1189.95 507.565 1179.94 503.771 1172.05 497.413C1167.1 500.604 1161.2 502.452 1154.87 502.452C1137.27 502.452 1123 488.159 1123 470.525C1123 452.89 1137.27 438.604 1154.87 438.604C1156.85 438.604 1158.78 438.786 1160.66 439.132C1168.51 425.009 1183.56 415.46 1200.85 415.46C1207.54 415.46 1213.89 416.892 1219.62 419.468C1229.17 403.172 1246.85 392.228 1267.07 392.228C1268.97 392.228 1270.84 392.322 1272.69 392.51H1272.7C1283.65 366.363 1309.46 348 1339.55 348C1369.64 348 1393.67 365.126 1405.22 389.847C1408.69 389.08 1412.31 388.672 1416.02 388.672C1435.69 388.672 1452.71 400.087 1460.82 416.672C1464.19 415.881 1467.71 415.46 1471.33 415.46C1491.02 415.46 1507.82 427.849 1514.36 445.276C1519.75 441.092 1526.52 438.604 1533.86 438.604C1551.47 438.604 1565.74 452.896 1565.74 470.525Z" fill="white"/>
<path d="M298.186 275.849C298.186 292.05 285.143 305.186 269.061 305.186C262.802 305.186 257.001 303.192 252.252 299.81C248.663 302.025 244.446 303.299 239.929 303.299C236.315 303.299 232.888 302.479 229.824 301.022C225.589 302.498 221.041 303.299 216.305 303.299C212.37 303.299 208.561 302.744 204.959 301.709C199.703 305.135 193.444 307.123 186.722 307.123C181.453 307.123 176.467 305.905 172.031 303.728C166.13 305.924 159.752 307.123 153.092 307.123C143.965 307.123 135.357 304.87 127.795 300.883C123.961 303.596 119.287 305.186 114.244 305.186C108.424 305.186 103.099 303.066 98.983 299.558C94.9986 301.23 90.632 302.157 86.0461 302.157C79.5557 302.157 73.5039 300.309 68.3667 297.104C64.0377 302.063 57.6915 305.186 50.6247 305.186C37.575 305.186 27 294.53 27 281.388C27 268.247 37.575 257.597 50.6247 257.597C51.79 257.597 52.9364 257.679 54.0516 257.843C58.4244 244.254 71.0982 234.431 86.0461 234.431C91.152 234.431 95.9884 235.579 100.324 237.623C106.614 214.217 127.858 197 153.092 197C172.921 197 190.274 207.618 199.866 223.523C204.903 221.321 210.46 220.097 216.305 220.097C234.968 220.097 250.749 232.57 255.867 249.692C259.833 247.661 264.312 246.519 269.061 246.519C285.143 246.519 298.186 259.648 298.186 275.849Z" fill="white"/>
<path d="M1365.99 171.271C1365.99 184.392 1355.42 195.027 1342.38 195.027C1337.06 195.027 1332.15 193.26 1328.2 190.275C1323.04 193.298 1317.03 195.027 1310.62 195.027C1304.66 195.027 1299.04 193.531 1294.13 190.887C1290.33 193.5 1285.75 195.027 1280.8 195.027C1276.45 195.027 1272.38 193.847 1268.89 191.783C1263.6 193.878 1257.83 195.027 1251.8 195.027C1246.2 195.027 1240.83 194.036 1235.86 192.219C1232.54 194.011 1228.74 195.027 1224.71 195.027C1220.68 195.027 1217.26 194.106 1214.05 192.477C1210.33 194.118 1206.22 195.027 1201.9 195.027C1195.75 195.027 1190.02 193.178 1185.24 190.01C1180.96 194.263 1175.1 196.889 1168.61 196.889C1155.57 196.889 1145 186.254 1145 173.133C1145 160.012 1155.57 149.383 1168.61 149.383C1170.86 149.383 1173.03 149.699 1175.1 150.292C1180.18 140.629 1190.28 134.046 1201.9 134.046C1203.65 134.046 1205.37 134.198 1207.03 134.482C1212.81 115.112 1230.66 101 1251.8 101C1270.7 101 1286.98 112.285 1294.34 128.518C1299.2 125.943 1304.74 124.491 1310.62 124.491C1325.71 124.491 1338.58 134.084 1343.52 147.54C1356.03 148.14 1365.99 158.535 1365.99 171.271Z" fill="white"/>
</svg>
