<svg width="738" height="498" viewBox="0 0 738 498" fill="none" xmlns="http://www.w3.org/2000/svg">
<path d="M94.6986 163.566C77.0496 172.114 50.4948 177.553 33.9077 169.297L32.9164 168.811L32.392 167.843C31.7056 166.586 15.6823 136.691 22.2542 115.986C26.3481 103.103 41.7559 91.763 53.7169 85.97C60.1698 82.8446 76.2878 76.1828 86.4855 81.8216C92.7658 85.291 98.8489 90.9226 104.742 96.3684C111.983 103.061 119.468 109.981 124.622 109.885C127.883 109.827 130.323 111.401 131.325 114.205C134.694 123.662 118.161 147.247 106.39 156.482C103.241 158.951 99.3065 161.334 94.7076 163.562L94.6986 163.566Z" fill="#FBF3D6"/>
<path d="M55.2381 89.111C66.5781 83.6188 78.2587 81.2616 84.7876 84.8772C99.036 92.7542 113.474 113.595 124.68 113.378C135.882 113.175 118.715 142.356 104.22 153.722C101.27 156.028 97.4886 158.315 93.1686 160.407C76.2216 168.615 50.9839 173.883 35.4501 166.15C35.4501 166.15 19.3694 136.55 25.5687 117.025C28.9267 106.454 41.8328 95.5924 55.2247 89.1063M52.1735 82.8064C38.9885 89.1922 23.3202 100.981 18.9 114.91C11.8855 137.019 28.5905 168.184 29.303 169.494L30.3563 171.44L32.3341 172.426C50.0769 181.255 77.2028 175.917 96.2108 166.711C101.035 164.375 105.181 161.856 108.533 159.232C114.911 154.232 122.001 145.998 127.506 137.221C134.152 126.602 136.544 118.466 134.609 113.025C133.115 108.838 129.26 106.294 124.545 106.377C120.801 106.446 112.892 99.1324 107.114 93.7864C101.075 88.2001 94.8192 82.4187 88.1746 78.7479C76.5379 72.3172 59.1259 79.4503 52.1869 82.811L52.1735 82.8064Z" fill="#231F20"/>
<path d="M38.5954 313.849C37.7471 313.383 17.7874 302.316 7.83558 291.014C-4.1886 277.36 13.5316 235.877 21.3634 225.206C28.1031 216.02 29.4751 183.5 29.4357 171.741L29.4206 167.971L33.1874 168.246C49.4346 169.422 60.1584 174.839 65.061 184.342C73.487 200.662 61.4948 222.747 57.6306 229.13C53.2047 236.418 56.6009 247.996 59.8766 259.187C61.965 266.298 63.933 273.022 64.1338 279.081C64.6886 296.079 43.3444 312.849 42.432 313.558L40.6163 314.971L38.5998 313.858L38.5954 313.849Z" fill="#FBF3D6"/>
<path d="M32.9422 171.732C79.8069 175.123 62.865 213.762 54.639 227.312C46.4221 240.859 60.1271 263.788 60.6305 279.188C61.1382 294.598 40.2799 310.789 40.2799 310.789C40.2799 310.789 20.1239 299.684 10.4542 288.712C0.793482 277.736 15.2804 239.419 24.1817 227.286C33.083 215.152 32.9376 171.745 32.9376 171.745M25.9124 164.214L25.9378 171.769C25.9952 188.841 23.7374 216.068 18.5449 223.149C13.2979 230.302 7.16729 244.026 3.62817 256.54C-1.34326 274.104 -0.810809 286.49 5.21232 293.329C15.5609 305.083 36.0449 316.429 36.9109 316.91L40.9439 319.134L44.5754 316.309C46.9965 314.425 68.2366 297.393 67.6284 278.955C67.4109 272.449 65.2885 265.199 63.2391 258.192C60.1732 247.732 57.0001 236.913 60.6267 230.935C64.733 224.157 77.4317 200.662 68.1764 182.723C62.6711 172.067 50.9848 166.015 33.4463 164.743L25.917 164.201L25.9124 164.214Z" fill="#231F20"/>
<path d="M76.3807 303.794C69.8557 306.954 62.3887 306.792 53.5685 303.286L48.5309 301.282L52.4292 297.516C52.8684 297.092 63.2327 286.695 60.342 270.15C59.9041 267.64 59.4392 265.143 58.9827 262.686C55.9804 246.485 53.1412 231.171 58.8826 219.579C60.7599 215.77 63.0401 210.521 65.4403 204.97C71.0052 192.119 76.7547 178.823 81.7183 173.219C84.3318 170.265 91.5514 164.157 99.9014 157.08C110.932 147.737 129.336 132.146 130.993 128.132L131.318 124.675L134.961 125.199C135.323 125.258 143.875 126.56 147.414 133.224C149.664 137.456 149.344 142.6 146.483 148.508C143.567 154.509 136.497 164.733 128.315 176.562C121.218 186.822 113.879 197.432 108.356 206.585C100.051 220.34 100.282 223.707 100.414 224.232C103.451 236.627 106.683 263.973 97.2035 278.72C96.1178 280.401 95.0807 282.137 93.975 283.983C89.2695 291.818 84.4041 299.919 76.3671 303.811L76.3807 303.794Z" fill="#FBF3D6"/>
<path d="M134.466 128.65C134.466 128.65 151.06 131.047 143.336 146.965C135.613 162.884 94.3597 214.164 97.0221 225.052C99.6844 235.94 103.19 262.931 94.2712 276.818C88.6005 285.642 83.6841 296.367 74.8551 300.644C69.7791 303.102 63.4151 303.429 54.8574 300.029C54.8574 300.029 67.0549 288.255 63.7935 269.545C60.5321 250.836 55.9944 233.323 62.0207 221.126C68.056 208.925 77.5946 183.15 84.3412 175.538C91.0879 167.926 133.857 135.034 134.466 128.65ZM128.189 120.668L127.594 127.012C124.476 131.677 107.121 146.383 97.6497 154.403C87.8803 162.679 81.7541 167.902 79.1044 170.897C73.7687 176.925 67.9087 190.474 62.2332 203.579C59.8469 209.09 57.594 214.303 55.7446 218.032C49.489 230.673 52.4285 246.539 55.5396 263.332C55.9921 265.757 56.4524 268.268 56.8906 270.755C59.4056 285.171 50.5993 294.38 49.9741 295.016L41.9271 302.536L52.2662 306.539C61.9141 310.378 70.5353 310.513 77.8973 306.948C86.8703 302.602 92.2384 293.658 96.9758 285.774C98.0632 283.959 99.0911 282.25 100.149 280.604C112.266 261.758 104.875 227.915 103.908 223.761C104.005 222.792 104.928 218.823 112.279 206.863C117.644 198.142 124.528 188.174 131.197 178.544C139.466 166.595 146.6 156.273 149.631 150.028C153.841 141.355 152.43 135.206 150.507 131.581C146.217 123.503 136.555 121.883 135.47 121.731L128.193 120.677L128.189 120.668Z" fill="#231F20"/>
<path d="M26.1701 264.289C24.8397 256.656 23.5238 279.771 26.6219 283.782C29.7199 287.792 33.6025 285.623 34.3562 281.191C35.1098 276.76 27.4712 271.77 26.1701 264.289Z" fill="#231F20"/>
<path d="M44.6784 129.525C45.9302 122.475 59.9263 130.496 65.7927 128.844C71.6591 127.191 75.6904 131.317 76.4615 134.721C77.2325 138.125 75.5828 149.058 70.5595 149.468C65.5362 149.879 57.6195 148.491 53.3175 147.386C49.0155 146.28 42.4115 142.234 44.6738 129.539L44.6784 129.525Z" fill="#231F20"/>
<path d="M33.7545 225.027C36.6202 220.162 40.1701 188.009 38.9206 183.181C37.6711 178.353 45.8079 184.623 46.2414 188.546C46.6749 192.47 43.6802 215.009 41.7232 217.69C39.7661 220.371 33.7545 225.027 33.7545 225.027Z" fill="#231F20"/>
<path d="M162.929 138.92C162.263 139.243 161.571 139.489 160.88 139.646C156.076 140.739 145.832 137.734 142.278 131.956C141.471 130.635 140.312 129.319 139.091 127.921C136.533 125.004 133.628 121.689 133.609 117.498C133.595 115.106 134.724 111.703 140.151 109.074C145.578 106.446 159.043 103.736 162.352 108.411C164.888 111.994 163.87 115.353 163.119 117.795C163.022 118.098 162.928 118.41 162.839 118.731C163.023 120.119 165.494 123.822 166.438 125.243C166.96 126.024 167.417 126.714 167.741 127.245C168.705 128.845 168.917 130.798 168.338 132.745C167.577 135.303 165.507 137.66 162.933 138.907L162.929 138.92Z" fill="#FBF3D6"/>
<path d="M141.668 112.229C147.833 109.243 158.203 108.631 159.487 110.432C161.319 113.022 160.122 115.346 159.4 118.007C158.682 120.677 163.25 126.576 164.735 129.046C166.027 131.186 164.135 134.436 161.399 135.762C160.985 135.962 160.54 136.122 160.1 136.224C156.709 136.999 147.992 134.555 145.253 130.115C142.527 125.679 137.127 121.939 137.098 117.475C137.086 115.27 138.973 113.523 141.664 112.22M138.612 105.92C131.169 109.525 130.089 114.726 130.103 117.508C130.132 123.005 133.637 127.007 136.45 130.223C137.569 131.503 138.632 132.71 139.285 133.783C143.781 141.094 155.766 144.389 161.651 143.05C162.602 142.834 163.55 142.497 164.45 142.062C167.933 140.375 170.638 137.265 171.689 133.745C172.548 130.839 172.21 127.892 170.742 125.436C170.357 124.801 169.896 124.102 169.361 123.294C168.658 122.234 167.157 119.984 166.53 118.643C167.328 116.001 168.676 111.259 165.213 106.381C162.955 103.186 158.699 101.969 151.835 102.549C147.022 102.958 142.208 104.19 138.635 105.92L138.612 105.92Z" fill="#231F20"/>
<path d="M190.212 140.584C188.421 141.452 186.509 141.289 185.091 140.242C184.58 140.334 183.88 140.518 183.315 140.658C179.38 141.642 172.053 143.468 167.306 136.901C161.772 129.236 158.724 114.913 160.492 109.823L161.077 108.14L162.783 107.625C176.553 103.433 178.265 103.826 179.086 104.006C181.084 104.461 182.734 106.217 184.477 108.073C185.122 108.761 186.009 109.698 186.399 109.976C188.226 111.224 189.585 114.121 192.464 120.938C193.354 123.029 194.188 125.003 194.925 126.524C196.158 129.071 196.169 132.099 194.947 135.058C193.904 137.585 192.129 139.656 190.212 140.584Z" fill="#FBF3D6"/>
<path d="M163.8 110.965C163.8 110.965 176.681 107.049 178.314 107.414C179.937 107.783 182.697 111.669 184.43 112.862C186.164 114.056 189.434 123.194 191.788 128.054C193.567 131.726 190.869 136.388 188.7 137.439C187.998 137.779 187.346 137.739 186.933 137.162C185.214 134.805 175.438 142.151 170.159 134.852C164.879 127.554 162.602 114.456 163.814 110.97M158.371 105.306L157.201 108.672C154.899 115.298 158.647 130.861 164.489 138.954C170.626 147.448 180.128 145.068 184.184 144.059C184.314 144.03 184.44 143.991 184.579 143.957C186.768 144.919 189.366 144.894 191.751 143.739C197.529 140.94 201.549 132.149 198.088 125.003C197.391 123.563 196.531 121.535 195.706 119.579C192.731 112.542 191.156 109.038 188.474 107.148C188.178 106.903 187.498 106.165 187.039 105.677C185.014 103.513 182.922 101.282 179.876 100.59C178.266 100.226 176.433 99.8135 161.769 104.271L158.362 105.31L158.371 105.306Z" fill="#231F20"/>
<path d="M216.986 144.728C214.394 145.984 212.229 145.321 210.922 143.976C210.403 143.983 209.678 144.046 209.091 144.096C205.048 144.421 197.522 145.033 193.906 137.773C189.693 129.302 189.023 114.682 191.605 109.943L192.457 108.375L194.222 108.142C208.495 106.251 210.119 106.92 210.907 107.239C212.807 108.019 214.15 110.013 215.564 112.128C216.086 112.908 216.806 113.982 217.16 114.322C218.759 115.858 219.628 118.937 221.358 126.133C221.893 128.34 222.395 130.431 222.866 132.047C224.505 137.587 220.428 143.072 216.99 144.737L216.986 144.728Z" fill="#FBF3D6"/>
<path d="M194.688 111.605C194.688 111.605 208.034 109.842 209.583 110.469C211.131 111.097 213.206 115.381 214.722 116.836C216.237 118.291 217.973 127.839 219.495 133.024C220.559 136.642 217.715 140.475 215.456 141.569C214.475 142.044 213.612 142.007 213.22 141.219C211.902 138.613 201.061 144.263 197.053 136.194C193.035 128.128 192.921 114.839 194.684 111.596M190.239 105.127L188.541 108.249C185.189 114.406 186.338 130.383 190.783 139.308C195.45 148.692 205.21 147.898 209.378 147.557C209.508 147.55 209.647 147.538 209.786 147.527C212.221 149.114 215.479 149.325 218.512 147.856C223.849 145.271 228.309 138.1 226.22 131.034C225.766 129.498 225.251 127.358 224.75 125.29C222.961 117.857 221.988 114.15 219.651 111.849C219.399 111.559 218.851 110.725 218.469 110.166C216.823 107.707 215.124 105.163 212.227 103.977C210.692 103.354 208.957 102.639 193.765 104.652L190.235 105.118L190.239 105.127Z" fill="#231F20"/>
<path d="M241.461 151.697C239.238 152.773 237.107 152.916 235.454 152.095C234.596 151.677 233.907 151.011 233.452 150.187C232.948 150.064 232.23 149.934 231.654 149.824C227.665 149.089 220.236 147.721 218.641 139.771C216.772 130.498 219.927 116.204 223.648 112.302L224.881 111.016L226.649 111.248C240.919 113.137 242.323 114.201 242.992 114.71C244.627 115.952 245.399 118.234 246.209 120.641C246.511 121.54 246.925 122.761 247.179 123.172C248.322 125.073 248.358 128.267 248.166 135.671C248.111 137.943 248.048 140.084 248.089 141.775C248.201 146.365 244.849 150.067 241.474 151.701L241.461 151.697Z" fill="#FBF3D6"/>
<path d="M226.176 114.722C226.176 114.722 239.531 116.487 240.855 117.501C242.188 118.511 243.078 123.191 244.169 124.985C245.251 126.783 244.449 136.461 244.573 141.856C244.646 144.921 242.185 147.457 239.926 148.551C238.216 149.379 236.629 149.381 236.372 148.139C235.777 145.283 223.842 147.919 222.066 139.09C220.29 130.261 223.624 117.391 226.176 114.722ZM223.568 107.318L221.116 109.895C216.275 114.973 213.245 130.695 215.215 140.475C217.281 150.752 226.915 152.519 231.029 153.282C231.15 153.302 231.284 153.326 231.422 153.359C232.11 154.137 232.951 154.774 233.903 155.246C236.547 156.554 239.778 156.412 242.991 154.856C247.374 152.733 251.729 147.846 251.583 141.694C251.545 140.101 251.6 137.897 251.658 135.769C251.857 128.128 251.879 124.295 250.22 121.466C250.05 121.115 249.735 120.167 249.519 119.538C248.571 116.731 247.592 113.838 245.098 111.946C243.778 110.941 242.285 109.809 227.099 107.797L223.572 107.327L223.568 107.318Z" fill="#231F20"/>
<path d="M263.366 166.365C260.594 167.708 256.7 168.272 254.231 166.501C253.207 165.763 252.545 164.717 252.336 163.529C251.902 163.251 251.262 162.894 250.76 162.615C247.225 160.638 240.63 156.955 241.675 148.904C242.889 139.527 250.481 127.006 255.258 124.503L256.838 123.683L258.433 124.476C271.336 130.861 272.32 132.318 272.79 133.012C273.936 134.713 273.936 137.124 273.936 139.668C273.937 140.612 273.93 141.905 274.036 142.375C274.509 144.546 273.514 147.584 270.948 154.515C270.157 156.643 269.42 158.655 268.912 160.268C268.102 162.861 266.138 165.023 263.375 166.361L263.366 166.365Z" fill="#FBF3D6"/>
<path d="M256.873 127.61C256.873 127.61 268.941 133.576 269.88 134.966C270.815 136.346 270.157 141.065 270.609 143.124C271.062 145.182 267.179 154.074 265.562 159.224C264.975 161.086 263.487 162.418 261.84 163.215C258.933 164.623 255.55 164.384 255.775 162.531C256.138 159.633 243.985 158.285 245.14 149.359C246.304 140.429 253.604 129.326 256.873 127.61ZM256.78 119.755L253.624 121.406C247.411 124.659 239.476 138.558 238.192 148.457C236.849 158.852 245.394 163.625 249.04 165.67C249.147 165.73 249.267 165.794 249.378 165.862C249.951 167.229 250.901 168.435 252.187 169.346C256.07 172.132 261.449 171.172 264.878 169.511C268.514 167.75 271.127 164.84 272.231 161.316C272.707 159.797 273.471 157.727 274.207 155.737C276.856 148.565 278.113 144.945 277.456 141.73C277.416 141.349 277.42 140.347 277.415 139.672C277.417 136.716 277.424 133.657 275.677 131.058C274.755 129.683 273.705 128.135 259.967 121.334L256.78 119.755Z" fill="#231F20"/>
<path d="M289.422 179.19C287.037 180.346 284.763 180.491 283.039 179.593C282.15 179.134 281.461 178.424 281.029 177.555C280.535 177.406 279.826 177.249 279.25 177.117C275.299 176.208 267.941 174.527 266.682 166.515C265.212 157.171 268.982 143.023 272.872 139.284L274.153 138.052L275.902 138.36C290.08 140.86 291.425 141.987 292.076 142.527C293.656 143.84 294.329 146.147 295.036 148.593C295.297 149.5 295.662 150.735 295.889 151.158C296.951 153.099 296.848 156.304 296.331 163.678C296.172 165.943 296.02 168.083 295.994 169.774C295.909 174.415 292.392 177.752 289.413 179.195L289.422 179.19Z" fill="#FBF3D6"/>
<path d="M275.291 141.801C275.291 141.801 288.558 144.142 289.841 145.209C291.125 146.276 291.817 150.986 292.822 152.832C293.828 154.679 292.601 164.306 292.502 169.698C292.443 172.627 290.097 174.963 287.892 176.031C286.029 176.934 284.253 176.938 284.046 175.616C283.577 172.743 271.533 174.854 270.147 165.959C268.761 157.064 272.647 144.348 275.309 141.792M273.015 134.281L270.453 136.744C265.4 141.614 261.684 157.18 263.236 167.039C264.863 177.396 274.407 179.573 278.483 180.51C278.608 180.539 278.733 180.567 278.871 180.6C279.558 181.445 280.426 182.158 281.434 182.681C284.167 184.102 287.55 183.975 290.961 182.323C296.064 179.851 299.422 174.947 299.518 169.823C299.547 168.231 299.704 166.032 299.852 163.905C300.382 156.282 300.569 152.447 299.031 149.547C298.879 149.188 298.605 148.231 298.416 147.589C297.585 144.748 296.736 141.803 294.328 139.814C293.058 138.751 291.615 137.561 276.523 134.893L273.011 134.272L273.015 134.281Z" fill="#231F20"/>
<path d="M318.153 180.219C316.182 181.174 314.646 180.962 313.694 180.624C312.968 180.364 312.334 179.927 311.822 179.352C311.308 179.346 310.579 179.377 309.997 179.392C305.943 179.555 298.398 179.854 295.084 172.459C291.221 163.819 291.146 149.188 293.915 144.558L294.829 143.027L296.607 142.866C310.944 141.567 312.54 142.293 313.31 142.643C315.182 143.503 316.43 145.554 317.758 147.722C318.249 148.529 318.928 149.633 319.259 149.972C320.8 151.571 321.539 154.679 322.968 161.943C323.414 164.171 323.821 166.274 324.235 167.907C325.529 173.058 322.078 178.297 318.145 180.201L318.153 180.219Z" fill="#FBF3D6"/>
<path d="M296.929 146.354C296.929 146.354 310.34 145.137 311.865 145.832C313.381 146.53 315.29 150.884 316.747 152.401C318.203 153.917 319.549 163.532 320.861 168.764C321.755 172.331 318.923 175.958 316.637 177.065C315.575 177.579 314.627 177.55 314.248 176.699C313.039 174.041 301.98 179.242 298.3 171.024C294.62 162.806 295.047 149.51 296.938 146.35M292.76 139.696L290.928 142.75C287.323 148.773 287.828 164.773 291.904 173.877C296.184 183.449 305.97 183.053 310.154 182.882C310.284 182.875 310.414 182.868 310.548 182.87C311.146 183.302 311.804 183.65 312.516 183.905C314.751 184.712 317.294 184.525 319.688 183.365C324.971 180.806 329.39 174.01 327.649 167.065C327.257 165.521 326.832 163.36 326.42 161.271C324.932 153.77 324.107 150.025 321.87 147.631C321.632 147.323 321.11 146.476 320.764 145.899C319.218 143.371 317.622 140.765 314.781 139.464C313.282 138.778 311.57 137.996 296.311 139.387L292.764 139.705L292.76 139.696Z" fill="#231F20"/>
<path d="M348.858 176.626C347.31 177.376 345.633 177.31 344.293 176.515C343.799 176.665 343.107 176.912 342.568 177.106C338.753 178.498 331.658 181.079 326.256 175.04C319.944 167.996 315.42 154.066 316.644 148.817L317.051 147.087L318.692 146.392C331.952 140.781 333.698 140.991 334.538 141.095C336.579 141.34 338.397 142.915 340.322 144.572C341.034 145.193 342.007 146.033 342.438 146.258C344.384 147.315 346.044 150.056 349.621 156.523C350.719 158.514 351.759 160.388 352.645 161.825C354.122 164.21 354.451 167.206 353.571 170.254C352.721 173.178 350.919 175.606 348.867 176.6L348.858 176.626Z" fill="#FBF3D6"/>
<path d="M320.047 149.625C320.047 149.625 332.452 144.383 334.114 144.578C335.775 144.774 338.91 148.355 340.762 149.358C342.614 150.361 346.82 159.113 349.66 163.693C351.891 167.29 349.438 172.456 347.332 173.476C346.756 173.755 346.197 173.726 345.778 173.251C343.82 171.088 334.864 179.415 328.857 172.702C322.85 165.989 319.214 153.206 320.051 149.611M314.046 144.553L313.237 148.022C311.635 154.854 316.986 169.94 323.641 177.373C330.632 185.176 339.833 181.83 343.761 180.395C343.882 180.347 344.017 180.304 344.156 180.248C346.143 180.886 348.363 180.744 350.388 179.763C353.349 178.329 355.795 175.144 356.927 171.24C358.091 167.221 357.623 163.226 355.611 159.989C354.765 158.632 353.698 156.704 352.675 154.844C348.98 148.156 347.049 144.835 344.185 143.234C343.87 143.02 343.109 142.366 342.605 141.921C340.366 139.983 338.052 137.982 334.949 137.607C333.31 137.412 331.443 137.183 317.324 143.154L314.042 144.544L314.046 144.553Z" fill="#231F20"/>
<path d="M376.062 161.839C374.901 162.402 373.635 162.471 372.486 162.071C372.045 162.307 371.495 162.64 370.913 163C369.913 163.618 368.781 164.31 367.503 164.929C362.661 167.274 358.29 167.036 354.511 164.233C346.92 158.587 339.715 145.843 339.873 140.456L339.922 138.676L341.388 137.666C342.272 137.06 350.095 131.716 353.524 130.055C354.487 129.589 355.179 129.365 355.855 129.315C357.905 129.144 360.001 130.329 362.217 131.578C363.039 132.036 364.171 132.676 364.626 132.812C366.747 133.451 368.913 135.813 373.708 141.446C375.18 143.178 376.572 144.814 377.733 146.041C379.931 148.377 380.818 151.791 380.151 155.415C379.589 158.476 378.056 160.885 376.058 161.853L376.062 161.839Z" fill="#FBF3D6"/>
<path d="M355.059 133.201C355.554 132.961 355.927 132.814 356.151 132.794C357.816 132.654 361.604 135.542 363.622 136.153C365.631 136.769 371.5 144.504 375.203 148.433C378.27 151.692 376.557 157.722 374.55 158.694C374.136 158.894 373.707 158.88 373.308 158.584C372.807 158.216 372.085 158.377 371.203 158.804C369.826 159.471 368.03 160.785 365.996 161.77C363.188 163.13 359.909 163.863 356.621 161.411C349.395 156.033 343.287 144.224 343.391 140.54C343.391 140.54 351.783 134.787 355.077 133.192M352.026 126.892C348.444 128.627 340.914 133.751 339.435 134.757L336.498 136.768L336.399 140.327C336.194 147.337 344.438 161.055 352.449 167.02C355.821 169.531 361.442 171.754 369.056 168.066C370.487 167.373 371.745 166.597 372.768 165.979C372.889 165.909 372.998 165.835 373.119 165.765C374.633 165.931 376.188 165.678 377.61 164.989C380.652 163.516 382.849 160.252 383.627 156.031C384.492 151.301 383.292 146.782 380.313 143.636C379.218 142.477 377.795 140.8 376.411 139.181C371.448 133.363 368.904 130.495 365.777 129.499C365.425 129.347 364.546 128.861 363.964 128.532C361.384 127.082 358.715 125.585 355.603 125.837C354.18 125.949 352.997 126.444 352.025 126.914L352.026 126.892Z" fill="#231F20"/>
<path d="M399.165 146.75C398.121 147.256 396.993 147.358 395.932 147.071C395.486 147.343 394.953 147.734 394.421 148.103C393.189 148.978 391.663 150.072 389.917 150.918C385.732 152.945 381.772 152.796 378.147 150.474C370.188 145.373 362.099 133.169 361.876 127.777L361.805 126L363.201 124.891C364.75 123.662 372.633 117.456 375.513 116.061C376.071 115.791 376.561 115.631 377.045 115.552C379.074 115.247 381.249 116.272 383.552 117.356C384.401 117.756 385.57 118.312 386.043 118.417C388.206 118.913 390.526 121.112 395.71 126.401C397.295 128.022 398.801 129.549 400.043 130.691C402.488 132.941 403.61 136.542 403.048 140.314C402.589 143.381 401.141 145.782 399.161 146.741L399.165 146.75Z" fill="#FBF3D6"/>
<path d="M377.039 119.211C377.264 119.102 377.443 119.037 377.578 119.016C379.231 118.76 383.215 121.364 385.266 121.837C387.318 122.31 393.711 129.614 397.672 133.273C401.019 136.352 399.629 142.637 397.64 143.6C397.271 143.779 396.877 143.769 396.482 143.527C396.048 143.249 395.487 143.354 394.821 143.676C393.228 144.448 391.011 146.499 388.392 147.768C385.908 148.971 383.061 149.472 380.031 147.528C372.445 142.669 365.526 131.32 365.375 127.637C365.375 127.637 374.357 120.51 377.039 119.211ZM373.987 112.911C370.936 114.389 363.899 119.863 361.021 122.157L358.238 124.372L358.381 127.925C358.664 134.932 367.86 148.045 376.254 153.424C379.497 155.509 384.765 157.302 391.443 154.068C393.45 153.096 395.12 151.909 396.456 150.951C396.564 150.876 396.672 150.802 396.785 150.714C398.113 150.771 399.449 150.501 400.691 149.9C403.76 148.413 405.881 145.108 406.512 140.836C407.241 135.917 405.704 131.161 402.415 128.132C401.234 127.048 399.698 125.481 398.205 123.959C392.853 118.507 390.105 115.816 386.922 115.046C386.561 114.921 385.654 114.494 385.049 114.209C382.369 112.941 379.612 111.631 376.52 112.106C375.691 112.23 374.865 112.497 373.992 112.92L373.987 112.911Z" fill="#231F20"/>
<path d="M412.872 133.411C409.155 135.212 405.515 135.152 402.038 133.226C393.763 128.644 384.912 116.976 384.34 111.619L384.152 109.855L385.473 108.659C388.3 106.101 395.148 100.029 397.614 98.8344C397.983 98.6557 398.334 98.5304 398.684 98.4498C400.693 98.01 402.922 98.8969 405.29 99.8392C406.171 100.19 407.368 100.666 407.837 100.739C410.019 101.093 412.489 103.141 418.004 108.081C419.693 109.597 421.286 111.025 422.6 112.089C425.301 114.269 426.637 117.945 426.18 121.911C425.827 125.015 424.47 127.35 422.481 128.313C421.545 128.767 420.528 128.892 419.551 128.688C419.131 128.991 418.589 129.432 418.119 129.815C416.709 130.964 414.956 132.391 412.859 133.407L412.872 133.411Z" fill="#FBF3D6"/>
<path d="M399.158 101.976C399.275 101.919 399.374 101.871 399.459 101.863C401.087 101.508 405.235 103.855 407.306 104.185C409.381 104.524 416.227 111.409 420.424 114.798C424.006 117.697 422.953 124.196 420.973 125.155C420.64 125.316 420.273 125.316 419.9 125.119C419.509 124.908 419.043 124.978 418.503 125.24C416.793 126.068 414.37 128.797 411.346 130.261C409.123 131.338 406.569 131.731 403.731 130.161C395.852 125.799 388.216 114.92 387.828 111.252C387.828 111.252 396.863 103.087 399.149 101.98M396.098 95.68C393.983 96.7044 389.618 100.196 383.126 106.062L380.484 108.453L380.855 111.996C381.59 118.973 391.607 131.466 400.335 136.295C403.448 138.02 408.413 139.46 414.389 136.566C416.855 135.371 418.861 133.733 420.334 132.531C420.429 132.451 420.533 132.368 420.637 132.284C421.791 132.258 422.935 131.982 424.015 131.459C427.111 129.959 429.175 126.627 429.672 122.308C430.261 117.145 428.452 112.31 424.817 109.37C423.573 108.362 421.941 106.897 420.354 105.477C414.662 100.378 411.751 97.8768 408.52 97.3082C408.15 97.2097 407.215 96.8401 406.597 96.5952C403.846 95.505 400.998 94.3733 397.944 95.0414C397.321 95.1767 396.714 95.3926 396.093 95.6934L396.098 95.68Z" fill="#231F20"/>
<path d="M433.2 116.333C429.483 118.133 425.843 118.073 422.366 116.147C414.091 111.565 405.24 99.8967 404.668 94.5403L404.48 92.7758L405.801 91.5804C408.629 89.0221 415.477 82.9499 417.943 81.7555C418.312 81.5768 418.671 81.4472 419.012 81.371C421.021 80.9312 423.251 81.818 425.618 82.7603C426.499 83.1113 427.696 83.5871 428.165 83.6601C430.348 84.0141 432.818 86.0624 438.319 90.9979C440.008 92.513 441.614 93.9466 442.92 95.0141C445.62 97.195 446.956 100.87 446.499 104.836C446.147 107.94 444.789 110.276 442.8 111.239C441.864 111.692 440.847 111.818 439.87 111.613C439.45 111.917 438.908 112.357 438.438 112.74C437.028 113.89 435.275 115.317 433.178 116.332L433.2 116.333Z" fill="#FBF3D6"/>
<path d="M419.486 84.8968C419.603 84.8402 419.702 84.7922 419.787 84.7843C421.415 84.4292 425.563 86.7759 427.634 87.1062C429.71 87.4455 436.555 94.33 440.752 97.7195C444.334 100.618 443.281 107.117 441.301 108.076C440.968 108.237 440.602 108.237 440.228 108.04C439.837 107.829 439.371 107.899 438.831 108.161C437.121 108.989 434.699 111.718 431.675 113.183C429.452 114.259 426.897 114.652 424.059 113.082C416.18 108.72 408.544 97.8408 408.157 94.1729C408.157 94.1729 417.191 86.0084 419.477 84.9012M416.426 78.6012C414.311 79.6255 409.947 83.1171 403.455 88.9836L400.812 91.3744L401.184 94.9168C401.919 101.894 411.936 114.387 420.663 119.216C423.777 120.941 428.741 122.381 434.717 119.487C437.183 118.293 439.189 116.654 440.663 115.452C440.758 115.372 440.861 115.289 440.965 115.205C442.12 115.179 443.264 114.903 444.344 114.38C447.44 112.881 449.503 109.548 450 105.229C450.589 100.066 448.78 95.2312 445.146 92.2917C443.902 91.2831 442.27 89.8178 440.682 88.3979C434.99 83.299 432.079 80.7979 428.848 80.2294C428.478 80.1308 427.543 79.7612 426.925 79.5164C424.175 78.4262 421.327 77.2945 418.272 77.9626C417.649 78.0978 417.042 78.3138 416.421 78.6145L416.426 78.6012Z" fill="#231F20"/>
<path d="M463.562 95.1941C462.5 95.7085 461.359 95.8059 460.289 95.5017C459.834 95.7777 459.297 96.16 458.774 96.5246C457.573 97.3727 456.071 98.4226 454.37 99.2465C450.122 101.304 446.121 101.142 442.474 98.7743C434.552 93.6115 426.557 81.3499 426.379 75.9583L426.317 74.1775L427.717 73.077C429.267 71.8711 437.108 65.7846 440.042 64.3636C440.636 64.0759 441.134 63.9122 441.64 63.8337C443.675 63.5373 445.84 64.5888 448.129 65.6911C448.983 66.0999 450.143 66.6602 450.611 66.7779C452.769 67.2882 455.076 69.5044 460.219 74.8245C461.8 76.459 463.288 77.9939 464.516 79.1544C466.93 81.4077 468.034 84.9951 467.463 88.7493C466.995 91.8205 465.534 94.2172 463.554 95.1761L463.562 95.1941Z" fill="#FBF3D6"/>
<path d="M441.581 67.5182C441.824 67.4006 442.021 67.327 442.156 67.3063C443.805 67.0633 447.77 69.6984 449.817 70.1849C451.863 70.6714 458.202 78.0237 462.145 81.714C465.46 84.8195 464.044 91.0721 462.046 92.0398C461.668 92.2228 461.274 92.2134 460.888 91.967C460.449 91.6797 459.867 91.7842 459.183 92.1154C457.608 92.8782 455.431 94.8545 452.866 96.0968C450.301 97.339 447.473 97.8311 444.408 95.8379C436.862 90.9258 430.02 79.5286 429.896 75.8327C429.896 75.8327 438.845 68.8433 441.59 67.5139M438.538 61.2139C435.46 62.7046 428.451 68.0771 425.592 70.3175L422.787 72.5094L422.907 76.0621C423.137 83.0734 432.228 96.2478 440.599 101.694C443.86 103.814 449.163 105.657 455.922 102.383C457.875 101.438 459.5 100.295 460.808 99.3725C460.917 99.2978 461.025 99.2231 461.142 99.1441C462.488 99.2147 463.846 98.9457 465.115 98.331C468.184 96.8447 470.31 93.5484 470.959 89.2675C471.7 84.375 470.204 79.6332 466.941 76.5909C465.779 75.4984 464.247 73.9182 462.763 72.3922C457.448 66.9 454.727 64.1956 451.548 63.3907C451.188 63.2654 450.285 62.8246 449.68 62.5397C447.013 61.2537 444.257 59.9219 441.165 60.3749C440.305 60.5027 439.465 60.7649 438.547 61.2095L438.538 61.2139Z" fill="#231F20"/>
<path d="M484.982 79.5423C483.749 80.1395 482.42 80.1943 481.223 79.7185C480.737 79.9539 480.196 80.2602 479.62 80.5839C478.836 81.0302 477.944 81.5288 476.972 81.9995C475.001 82.9541 468.989 85.8659 463.184 81.1994C455.813 75.2698 449.076 62.2772 449.434 56.8923L449.551 55.1137L451.056 54.1622C451.381 53.9606 458.937 49.1898 462.744 47.346C464.139 46.6704 465.006 46.3951 465.829 46.3518C467.883 46.257 469.938 47.5173 472.104 48.8461C472.907 49.3348 474.012 50.0107 474.467 50.1685C476.56 50.8881 478.64 53.3251 483.218 59.13C484.627 60.9144 485.961 62.5905 487.067 63.8657C489.126 66.2129 489.898 69.5726 489.187 73.0835C488.567 76.1393 486.989 78.548 484.982 79.52L484.982 79.5423Z" fill="#FBF3D6"/>
<path d="M464.274 50.505C465.075 50.1171 465.691 49.8744 465.986 49.8647C467.651 49.7918 471.334 52.808 473.324 53.4995C475.31 54.182 480.886 62.1374 484.439 66.1941C487.367 69.5317 485.481 75.4116 483.456 76.3923C483.015 76.6059 482.573 76.587 482.161 76.2642C481.616 75.828 480.759 76.0542 479.688 76.5729C478.509 77.1439 477.057 78.0693 475.437 78.8539C472.422 80.3141 468.841 81.2708 465.366 78.4763C458.343 72.8329 452.676 60.8109 452.915 57.1286C452.915 57.1286 460.58 52.2832 464.252 50.5047M461.2 44.2047C457.285 46.1008 449.987 50.6915 449.17 51.2089L446.159 53.112L445.922 56.6601C445.458 63.6627 453.188 77.6742 460.972 83.9265C464.408 86.6847 470.231 89.142 478.484 85.1449C479.546 84.6305 480.488 84.0968 481.317 83.6287C481.443 83.5676 481.551 83.493 481.668 83.4363C483.271 83.6712 484.946 83.4374 486.485 82.6921C489.473 81.2449 491.76 77.9149 492.6 73.7974C493.534 69.2115 492.468 64.7613 489.681 61.5775C488.632 60.3746 487.263 58.6488 485.942 56.9773C481.205 50.9826 478.76 48.0222 475.675 46.9054C475.328 46.74 474.476 46.2194 473.899 45.8767C471.374 44.3331 468.764 42.7303 465.645 42.8744C464.101 42.9443 462.748 43.455 461.191 44.2091L461.2 44.2047Z" fill="#231F20"/>
<path d="M507.83 65.5545C506.597 66.1517 505.267 66.2065 504.07 65.7307C503.584 65.9661 503.044 66.2724 502.467 66.596C501.683 67.0423 500.792 67.5409 499.82 68.0117C497.849 68.9663 491.837 71.8781 486.032 67.2116C478.66 61.2819 471.923 48.2893 472.282 42.9045L472.398 41.1259L473.904 40.1743C474.229 39.9727 481.785 35.202 485.592 33.3582C486.987 32.6825 487.853 32.4072 488.668 32.3683C490.722 32.2735 492.777 33.5338 494.942 34.8626C495.746 35.3513 496.851 36.0272 497.305 36.185C499.398 36.9047 501.478 39.3416 506.057 45.1465C507.465 46.9309 508.804 48.6161 509.906 49.8823C511.965 52.2295 512.736 55.5891 512.026 59.1C511.406 62.1558 509.828 64.5645 507.821 65.5365L507.83 65.5545Z" fill="#FBF3D6"/>
<path d="M487.113 36.5215C487.914 36.1335 488.529 35.8909 488.825 35.8812C490.489 35.8082 494.172 38.8245 496.163 39.516C498.153 40.2075 503.724 48.1539 507.278 52.2105C510.205 55.5482 508.32 61.4281 506.295 62.4089C505.854 62.6224 505.411 62.6034 505 62.2807C504.455 61.8444 503.598 62.0707 502.527 62.5894C501.348 63.1604 499.896 64.0858 498.276 64.8704C495.261 66.3306 491.68 67.2873 488.204 64.4928C481.182 58.8494 475.515 46.8274 475.754 43.145C475.754 43.145 483.418 38.2997 487.09 36.5212M484.039 30.2212C480.124 32.1174 472.825 36.7079 472.009 37.2254L468.997 39.1285L468.76 42.6766C468.296 49.6792 476.027 63.6907 483.811 69.943C487.246 72.7012 493.07 75.1585 501.323 71.1614C502.385 70.647 503.326 70.1133 504.155 69.6452C504.281 69.5842 504.389 69.5095 504.506 69.4528C506.109 69.6877 507.785 69.454 509.324 68.7086C512.312 67.2614 514.599 63.9314 515.438 59.8139C516.373 55.228 515.306 50.7778 512.52 47.594C511.47 46.3911 510.101 44.6653 508.781 42.9938C504.044 36.9991 501.599 34.0387 498.514 32.9219C498.167 32.7565 497.315 32.2359 496.738 31.8932C494.212 30.3496 491.603 28.7468 488.484 28.8908C486.94 28.9608 485.587 29.4715 484.03 30.2256L484.039 30.2212Z" fill="#231F20"/>
<path d="M531.039 55.1805C529.644 55.8561 528.132 55.8549 526.843 55.2125C526.357 55.4032 525.701 55.699 525.17 55.9338C521.477 57.6002 514.599 60.7202 508.744 55.1004C501.926 48.5471 496.358 35.0102 497.186 29.676L497.459 27.9218L499.043 27.1099C499.142 27.0619 501.569 25.8089 504.413 24.4315C512.432 20.5478 513.5 20.597 514.439 20.6312C516.495 20.7242 518.422 22.1574 520.465 23.668C521.227 24.2322 522.264 24.9967 522.705 25.1946C524.733 26.1013 526.583 28.7052 530.637 34.8971C531.879 36.7957 533.059 38.5907 534.053 39.9539C535.776 42.3192 536.308 45.5283 535.498 48.7651C534.918 51.1013 533.437 54.0076 531.016 55.1802L531.039 55.1805Z" fill="#FBF3D6"/>
<path d="M505.952 27.5862C509.39 25.9211 513.384 24.0975 514.301 24.1314C515.968 24.2017 519.37 27.5319 521.287 28.3924C523.203 29.253 528.053 37.6598 531.24 42.016C533.799 45.51 531.583 51.0279 529.513 52.0305C529.009 52.2746 528.508 52.2504 528.084 51.8559C525.967 49.8479 517.669 58.8223 511.169 52.5817C504.668 46.341 500.081 33.863 500.65 30.2206C500.65 30.2206 503.103 28.9546 505.947 27.5772M502.896 21.2772C500.007 22.6764 497.554 23.9424 497.446 23.9947L494.281 25.6275L493.731 29.1494C492.655 36.0816 499.125 50.7257 506.315 57.6325C513.876 64.8928 522.796 60.8504 526.606 59.1274C526.723 59.0707 526.849 59.0097 526.979 58.9577C528.798 59.3877 530.751 59.1976 532.551 58.3258C535.521 56.8874 537.897 53.6256 538.895 49.6085C539.951 45.364 539.213 41.0879 536.874 37.8874C535.929 36.6008 534.727 34.7609 533.555 32.984C529.36 26.5935 527.195 23.4309 524.216 22.0516C523.878 21.8595 523.076 21.259 522.54 20.8632C520.165 19.1023 517.706 17.2823 514.581 17.14C512.619 17.0571 510.825 17.4369 502.878 21.2859L502.896 21.2772Z" fill="#231F20"/>
<path d="M555.382 46.6679C553.69 47.4874 551.894 47.3798 550.501 46.4319C549.994 46.5552 549.303 46.7567 548.751 46.9241C544.868 48.0827 537.631 50.2545 532.585 43.898C526.699 36.4933 522.996 22.3314 524.532 17.1537L525.041 15.4517L526.717 14.8512C540.285 10.0355 542.012 10.3436 542.837 10.4882C544.859 10.8536 546.582 12.5302 548.407 14.3019C549.083 14.9634 550.006 15.8606 550.419 16.1163C552.305 17.2806 553.79 20.117 556.988 26.7901C557.978 28.8331 558.897 30.7768 559.701 32.2539C560.978 34.6136 561.174 37.4964 560.247 40.3784C559.321 43.238 557.462 45.6386 555.374 46.6499L555.382 46.6679Z" fill="#FBF3D6"/>
<path d="M527.887 18.1621C527.887 18.1621 540.579 13.6485 542.226 13.9511C543.868 14.2447 546.799 18.0027 548.579 19.1076C550.372 20.217 554.055 29.1995 556.621 33.9459C558.596 37.5891 555.99 42.4849 553.848 43.5223C553.2 43.8361 552.601 43.7928 552.183 43.2732C550.36 41.0005 540.927 48.7799 535.327 41.7366C529.723 34.6843 526.836 21.7045 527.892 18.1711M522.195 12.7636L521.181 16.1767C519.182 22.9005 523.64 38.275 529.847 46.0908C536.367 54.2996 545.75 51.4885 549.755 50.2822C549.872 50.2479 549.998 50.2093 550.132 50.1662C552.233 50.9933 554.658 50.9076 556.908 49.8179C559.869 48.3838 562.359 45.2666 563.584 41.4626C564.803 37.6719 564.521 33.8086 562.777 30.5977C562.017 29.1882 561.067 27.2038 560.151 25.2914C556.848 18.4024 555.12 14.9726 552.356 13.2113C552.051 12.9704 551.335 12.2726 550.853 11.8058C548.733 9.7441 546.541 7.60541 543.462 7.05224C541.833 6.76334 539.991 6.42254 525.547 11.5625L522.191 12.7546L522.195 12.7636Z" fill="#231F20"/>
<path d="M581.651 43.3678C579.752 44.2875 577.755 44.0879 576.32 42.9382C575.805 43.0212 575.097 43.1643 574.532 43.2824C570.558 44.1178 563.177 45.6705 558.674 38.9184C553.428 31.0477 550.918 16.6191 552.878 11.6033L553.52 9.94764L555.243 9.49082C569.168 5.82467 570.862 6.27093 571.677 6.48695C573.665 7.01296 575.239 8.83971 576.91 10.7527C577.532 11.4627 578.374 12.4438 578.764 12.7216C580.545 14.0366 581.787 16.9907 584.414 23.907C585.219 26.0282 585.981 28.037 586.664 29.5842C589.133 35.2104 585.273 41.6021 581.646 43.3588L581.651 43.3678Z" fill="#FBF3D6"/>
<path d="M556.14 12.8789C556.14 12.8789 569.167 9.44739 570.776 9.87916C572.385 10.3109 574.991 14.293 576.679 15.5532C578.363 16.8044 581.292 26.0636 583.453 31.0062C585.066 34.6806 582.303 39.1629 580.116 40.2221C579.36 40.5883 578.672 40.5438 578.25 39.9258C576.622 37.5035 566.578 44.479 561.578 36.9782C556.583 29.4863 554.79 16.3101 556.135 12.8699M550.909 7.01205L549.615 10.3277C547.068 16.8612 550.225 32.5547 555.76 40.8629C561.571 49.5816 571.154 47.5736 575.249 46.7129C575.37 46.6876 575.5 46.6579 575.63 46.6283C577.888 47.7346 580.62 47.7557 583.167 46.5221C588.909 43.7411 592.992 35.3083 589.87 28.1979C589.227 26.7318 588.443 24.678 587.69 22.6871C584.976 15.5461 583.541 11.9858 580.931 9.99389C580.648 9.73092 579.996 8.98025 579.551 8.47372C577.611 6.23536 575.605 3.92908 572.579 3.11714C570.983 2.69 569.169 2.20196 554.351 6.11176L550.914 7.02104L550.909 7.01205Z" fill="#231F20"/>
<path d="M724.991 58.4778C723.983 58.966 723.054 58.8828 722.509 58.8356C722.473 58.8307 722.429 58.8301 722.393 58.8252C722.154 58.9966 721.897 59.1544 721.627 59.2852C717.19 61.4341 702.413 58.1795 699.497 57.5031C687.345 54.6887 680.083 51.3947 677.911 47.7133C674.98 43.244 642.54 34.7663 636.6 36.932C636.277 37.0443 602.899 47.3212 596.02 42.4086C581.494 32.0325 577.373 19.0729 576.481 10.0272C576.294 8.15084 577.295 6.49971 579.167 5.59305C581.795 4.32025 586.63 4.25606 596.447 4.24576C599.766 4.23845 603.523 4.24112 607.312 4.1503C621.892 3.811 651.01 4.03088 665.299 4.8105C681.344 5.68385 712.898 27.2459 721.578 43.2641L722.439 44.8582C727.278 53.7927 727.571 54.3286 726.947 56.2752C726.635 57.2597 725.949 58.0472 725.022 58.4961L724.991 58.4778Z" fill="#FBF3D6"/>
<path d="M580.688 8.73404C583.613 7.31739 594.934 7.93435 607.385 7.64868C622 7.31433 650.801 7.52126 665.089 8.30088C679.378 9.0805 710.268 29.7754 718.485 44.9291C723.07 53.3862 724.028 55.0666 723.47 55.3369C723.101 55.5156 722.047 55.0595 720.949 55.5913C720.751 55.6872 720.557 55.8144 720.358 55.9774C720.286 56.0346 720.2 56.0872 720.101 56.1352C715.898 58.1708 684.529 52.0412 680.939 45.9357C677.252 39.6768 642.624 31.0149 635.417 33.6388C628.21 36.2626 602.053 42.4087 598.059 39.5541C594.066 36.6994 581.738 27.5586 579.965 9.67308C579.925 9.29241 580.184 8.97813 580.688 8.73404ZM577.637 2.43404C574.442 3.98145 572.668 7.01828 573.001 10.3679C573.974 20.1302 578.4 34.1089 593.998 45.2544C596.462 47.0164 600.472 48.6413 616.844 45.5338C624.385 44.1038 633.314 41.8461 637.703 40.2646C639.556 39.8675 646.901 40.4656 657.038 43.0668C667.983 45.8661 673.788 48.7659 675.129 49.8831C676.426 51.9881 680.151 56.6284 698.711 60.9281C703.34 61.9973 708.048 62.817 711.974 63.2378C718.862 63.9688 721.415 63.2988 723.161 62.4532C723.206 62.4314 723.251 62.4096 723.287 62.3921C724.15 62.3851 725.302 62.2387 726.535 61.6415C728.308 60.7828 729.669 59.2122 730.265 57.3458C731.261 54.2634 729.944 51.6348 729.076 49.8886C728.365 48.4663 727.224 46.3632 725.511 43.193L724.65 41.5988C718.426 30.102 703.948 19.4805 698.015 15.443C692.082 11.4055 677.026 1.95299 665.486 1.31984C650.88 0.527255 622.174 0.308133 607.231 0.656256C603.487 0.747634 599.743 0.749624 596.442 0.748208C585.816 0.761702 580.971 0.830245 577.641 2.44305L577.637 2.43404Z" fill="#231F20"/>
<path d="M554.315 215.607C550.058 217.669 544.042 219.15 540.778 217.986C539.625 217.578 538.913 216.911 538.487 216.284C537.822 215.829 536.031 214.929 534.684 214.259C528.275 211.052 519.502 206.657 519.502 199.957C519.504 195.878 523.181 191.564 528.747 185.046C535.356 177.312 543.569 167.679 546.125 157.196C548.814 146.161 556.152 132.04 562.629 119.58C567.767 109.703 572.613 100.367 574.299 94.3061C575.747 89.0826 576.829 82.392 577.859 75.9154C579.805 63.7838 581.485 53.3035 585.679 48.7722C586.745 47.6228 587.995 46.6949 589.39 46.0192C595.087 43.26 601.528 45.4076 604.13 46.5138C605.404 46.1855 607.513 45.3311 609.279 44.6199C614.701 42.4386 620.842 39.9534 625.606 41.2568C629.787 42.3875 633.071 45.497 634.18 49.3708C635.311 53.3119 634.104 57.5858 630.852 61.1049C629.701 62.3516 627.704 64.3077 625.181 66.7849C615.322 76.4598 596.968 94.4715 592.302 105.943C589.528 112.764 583.904 124.921 577.95 137.794C570.759 153.343 563.315 169.426 561.221 175.496C559.425 180.688 560.596 187.81 561.631 194.098C562.694 200.56 563.607 206.14 561.356 209.819C559.977 212.065 557.604 214.025 554.31 215.621L554.315 215.607Z" fill="#FBF3D6"/>
<path d="M590.925 49.1649C596.496 46.4667 603.664 50.1396 603.664 50.1396C607.854 49.8436 618.911 43.0553 624.705 44.6267C630.504 46.2071 633.807 52.7518 628.297 58.7201C622.788 64.6884 595.242 89.4628 589.08 104.614C582.918 119.765 561.825 163.092 557.926 174.336C554.027 185.58 561.767 202.432 558.374 207.975C557.264 209.79 555.152 211.302 552.785 212.448C547.925 214.802 541.966 215.599 541.305 214.186C540.329 212.081 523.008 206.715 523.004 199.961C522.999 193.207 544.848 177.248 549.531 158.035C554.215 138.822 573.686 109.603 577.677 95.2477C581.669 80.8922 582.679 57.1918 588.257 51.1572C589.064 50.2774 589.975 49.6359 590.92 49.1782M587.869 42.8782C586.078 43.7457 584.484 44.9286 583.124 46.4098C578.209 51.7237 576.451 62.6859 574.422 75.3801C573.398 81.7539 572.339 88.3553 570.943 93.3872C569.355 99.1008 564.588 108.276 559.536 117.99C552.647 131.248 545.528 144.952 542.736 156.393C540.378 166.069 532.456 175.338 526.101 182.794C520.027 189.914 516.014 194.613 516.013 199.98C516.017 208.845 525.902 213.791 533.119 217.406C534.119 217.911 535.422 218.558 536.132 218.969C537.036 220.009 538.224 220.812 539.605 221.299C544.614 223.084 552.164 220.549 555.836 218.771C559.742 216.879 562.603 214.482 564.343 211.651C567.279 206.862 566.266 200.686 565.09 193.533C564.122 187.657 563.03 180.997 564.534 176.647C566.577 170.746 574.31 154.023 581.134 139.274C587.102 126.361 592.744 114.173 595.554 107.267C599.948 96.4725 618.647 78.1163 627.641 69.2937C630.204 66.7857 632.219 64.7985 633.43 63.4899C637.524 59.0512 639.029 53.5556 637.551 48.416C636.103 43.3841 631.883 39.3503 626.534 37.8963C620.633 36.2877 613.912 38.9983 607.983 41.3923C606.868 41.8433 605.371 42.4461 604.266 42.8257C600.664 41.5146 593.998 39.9098 587.869 42.8782Z" fill="#231F20"/>
<path d="M529.629 245.552C528.819 245.944 527.99 246.068 527.178 245.906C524.689 245.423 512.627 235.82 510.958 227.029C509.352 218.551 515.306 207.422 521.12 204.606C521.507 204.419 521.907 204.259 522.298 204.147C525.58 203.169 529.231 205.89 535.922 211.193C537.538 212.466 539.655 214.152 540.733 214.819C541.766 214.796 542.925 215.168 543.976 216.192C546.327 218.476 548.52 225.07 546.799 228.881C545.115 232.607 532.118 244.336 529.616 245.548L529.629 245.552Z" fill="#FBF3D6"/>
<path d="M522.655 207.752C522.88 207.643 523.096 207.561 523.307 207.492C526.324 206.586 538.925 219.161 540.527 218.385C540.527 218.385 540.536 218.381 540.545 218.376C540.554 218.372 540.563 218.368 540.572 218.363C542.12 217.614 544.88 224.666 543.62 227.432C542.419 230.069 530.196 241.378 528.108 242.389C527.991 242.446 527.915 242.471 527.852 242.457C526.893 242.266 515.802 233.727 514.401 226.361C513.076 219.358 518.439 209.783 522.651 207.743M519.599 201.443C512.57 204.847 505.62 217.614 507.524 227.67C508.379 232.211 511.341 237.043 516.332 242.048C518.779 244.507 523.354 248.725 526.518 249.337C527.597 249.547 529.283 249.609 531.155 248.702C533.027 247.796 536.254 245.121 541.007 240.62C548.589 233.447 549.537 231.344 549.992 230.334C552.476 224.842 549.493 216.687 546.423 213.696C545.137 212.441 543.564 211.67 541.939 211.412C540.888 210.666 539.263 209.375 538.094 208.452C531.35 203.108 526.47 199.249 521.294 200.789C520.723 200.965 520.153 201.186 519.595 201.457L519.599 201.443Z" fill="#231F20"/>
<path d="M654.176 346.109C651.584 347.364 649.261 347.501 647.279 346.505C645.27 345.5 643.945 343.475 643.334 340.494C642.148 337.723 630.971 325.292 621.096 314.308C614.961 307.491 608.014 299.755 601.441 292.194C583.005 270.968 543.318 252.045 539.271 250.893C534.194 249.908 531.984 243.967 531.607 241.95C530.999 238.722 533.52 236.701 538.088 233.055C538.946 232.373 539.89 231.616 540.916 230.774C542.516 229.466 542.388 227.94 541.745 225.006C541.33 223.118 540.861 220.979 542.248 219.14C543.522 217.457 544.991 216.201 546.62 215.412C555.953 210.892 565.468 222.417 571.151 229.309L572.146 230.516C573.816 232.518 576.103 234.899 578.522 237.417C583.387 242.483 589.443 248.794 593.942 255.604C597.992 261.742 607.631 270.907 616.139 278.998C620.766 283.39 625.128 287.555 628.301 290.919C637.3 300.505 652.517 311.368 657.468 313.837C663.965 317.09 666.436 319.827 669.483 327.129C672.643 334.709 666.731 338.217 662.419 340.784C660.909 341.681 659.345 342.605 657.918 343.719C656.568 344.762 655.346 345.542 654.185 346.105L654.176 346.109Z" fill="#FBF3D6"/>
<path d="M548.142 218.553C555.513 214.983 564.95 227.357 569.453 232.754C574.63 238.946 584.489 247.649 591.019 257.531C597.55 267.412 616.768 283.76 625.744 293.324C634.72 302.887 650.156 314.111 655.899 316.975C661.636 319.851 663.542 321.973 666.25 328.483C668.959 334.994 661.782 336.303 655.766 340.95C654.587 341.865 653.559 342.519 652.65 342.959C648.933 344.759 647.351 342.87 646.739 339.678C645.97 335.705 623.757 312.553 604.086 289.902C584.416 267.251 542.926 248.001 539.981 247.472C537.036 246.943 535.317 242.775 535.041 241.309C534.768 239.852 537.939 237.727 543.136 233.477C548.32 229.222 543.816 222.881 545.039 221.255C546.013 219.962 547.057 219.089 548.137 218.566M545.086 212.266C542.953 213.299 541.063 214.903 539.453 217.039C537.097 220.158 537.862 223.665 538.323 225.764C538.475 226.446 538.712 227.553 538.696 228.072C537.679 228.909 536.749 229.648 535.899 230.326C531.02 234.223 527.166 237.301 528.159 242.609C528.678 245.402 531.519 252.826 538.365 254.299C543.723 256.093 581.263 274.322 598.791 294.5C605.377 302.088 612.342 309.837 618.481 316.664C627.682 326.896 638.068 338.455 640.008 341.749C641.125 346.463 643.692 348.642 645.7 349.647C647.767 350.68 651.179 351.461 655.697 349.272C657.074 348.606 658.499 347.693 660.043 346.501C661.312 345.519 662.781 344.652 664.196 343.812C666.733 342.305 669.347 340.75 671.265 338.332C674.083 334.79 674.59 330.333 672.707 325.801C669.338 317.744 666.276 314.36 659.019 310.73C654.148 308.289 639.247 297.506 630.84 288.544C627.605 285.1 623.199 280.912 618.541 276.479C610.175 268.52 600.682 259.495 596.851 253.695C592.181 246.623 585.997 240.185 581.035 235.011C578.655 232.53 576.413 230.194 574.813 228.291C574.505 227.929 574.174 227.522 573.826 227.102C567.906 219.925 556.889 206.561 545.072 212.284L545.086 212.266Z" fill="#231F20"/>
<path d="M697.041 422.593C696.519 422.846 695.935 423.062 695.311 423.22C689.796 424.68 686.692 422.95 684.835 421.916C684.742 421.861 684.635 421.801 684.529 421.742C682.159 422.723 680.026 422.723 678.182 421.738C675.77 420.451 674.31 417.735 673.721 413.443C673.393 411.069 673.345 408.147 673.29 405.052C673.189 398.834 673.059 391.108 670.488 386.075C668.799 382.771 667.702 378.603 666.643 374.582C664.949 368.147 663.195 361.496 659.45 359.499C651.138 355.069 648.25 353.146 647.964 345.329C647.906 343.601 648.891 342.08 650.601 341.252C651.771 340.685 653.237 340.431 654.787 340.168C655.957 339.969 657.414 339.719 658.053 339.409C658.411 339.047 659.211 338.037 659.861 337.222C662.11 334.388 664.91 330.855 667.817 329.447C669.932 328.422 671.619 328.717 672.656 329.137C677.083 330.937 684.738 338.529 682.98 346.003C681.785 351.06 679.585 364.436 684.877 379.284C690.159 394.115 695.118 405.524 695.954 407.341C696.069 407.486 696.214 407.671 696.386 407.888C698.169 410.124 701.489 414.295 700.579 418.313C700.162 420.159 698.9 421.682 697.046 422.58L697.041 422.593Z" fill="#FBF3D6"/>
<path d="M669.338 332.61C670.058 332.261 670.739 332.154 671.335 332.398C674.588 333.723 680.811 339.987 679.577 345.218C678.344 350.448 675.946 364.654 681.579 380.482C687.211 396.309 692.377 408.007 692.887 409.06C693.366 410.05 700.411 417.072 695.515 419.443C695.2 419.596 694.832 419.73 694.41 419.845C687.477 421.681 686.13 417.111 683.664 418.305C681.198 419.499 678.134 419.895 677.17 412.972C676.207 406.05 677.862 392.859 673.594 384.482C669.321 376.118 668.993 360.621 661.085 356.407C653.178 352.193 651.67 351.19 651.459 345.203C651.45 344.863 651.695 344.611 652.127 344.402C653.674 343.652 657.536 343.549 659.579 342.559C659.885 342.411 660.146 342.24 660.363 342.046C662.001 340.541 666.121 334.157 669.343 332.597M666.291 326.297C662.934 327.923 660.155 331.224 657.12 335.05C656.797 335.462 656.397 335.967 656.065 336.361C655.505 336.488 654.725 336.621 654.191 336.713C652.466 337.004 650.682 337.312 649.071 338.093C646.11 339.527 644.352 342.345 644.456 345.45C644.828 355.67 649.986 358.427 657.787 362.582C660.186 363.865 661.953 370.564 663.238 375.465C664.343 379.674 665.491 384.018 667.346 387.664C669.546 391.976 669.664 399.263 669.765 405.115C669.818 408.322 669.865 411.355 670.226 413.936C670.504 415.956 671.362 422.086 676.506 424.838C678.212 425.746 680.819 426.494 684.19 425.562C686.47 426.713 690.365 428.149 696.185 426.607C697.033 426.386 697.824 426.091 698.544 425.743C701.379 424.37 703.314 422.01 703.973 419.102C705.256 413.448 701.254 408.419 699.105 405.726C699.048 405.654 698.995 405.591 698.942 405.528C697.794 402.973 693.192 392.279 688.152 378.132C683.171 364.155 685.249 351.582 686.364 346.819C688.6 337.326 679.471 328.158 673.949 325.91C671.541 324.932 668.82 325.072 666.264 326.31L666.291 326.297Z" fill="#231F20"/>
<path d="M693.085 433.72C689.872 435.276 687.527 435.457 684.109 434.434C680.611 433.384 678.444 429.689 677.144 427.485C677.004 427.242 676.872 427.017 676.745 426.823C674.124 422.559 678.698 419.177 680.422 417.897L680.829 417.589C681.041 417.431 681.271 417.286 681.514 417.169C684.718 415.617 693.764 418.236 695.624 419.668C697.591 421.182 697.977 422.806 698.241 423.878C698.318 424.197 698.386 424.475 698.494 424.789C699.418 427.386 698.468 431.091 693.077 433.702L693.085 433.72Z" fill="#FBF3D6"/>
<path d="M683.057 420.332C684.569 419.6 692.163 421.422 693.509 422.459C694.896 423.532 694.626 424.307 695.214 425.978C695.801 427.649 694.035 429.371 691.569 430.565C689.103 431.76 687.613 431.826 685.117 431.079C682.622 430.332 680.759 426.668 679.733 424.987C678.699 423.31 681.342 421.585 682.94 420.389C682.976 420.372 683.008 420.345 683.053 420.323M680.002 414.023C679.552 414.241 679.132 414.5 678.731 414.794L678.347 415.08C677.34 415.823 675.95 416.853 674.801 418.22C671.631 422 672.188 426.085 673.766 428.655C673.875 428.835 673.993 429.033 674.125 429.259C675.684 431.904 678.289 436.342 683.096 437.78C687.311 439.05 690.647 438.779 694.607 436.861C702.086 433.239 703.16 427.474 701.8 423.633C701.757 423.498 701.714 423.341 701.65 423.072C701.349 421.807 700.707 419.173 697.775 416.904C697.203 416.459 695.449 415.108 689.834 413.884C684.053 412.616 681.694 413.204 680.002 414.023Z" fill="#231F20"/>
<path d="M687.729 463.748C685.272 464.938 682.742 464.441 681.225 464.153C680.953 464.096 680.694 464.043 680.484 464.023C679.591 463.922 677.924 463.463 676.792 461.4C675.336 458.761 675.202 453.759 676.506 451.105C676.749 450.621 677.23 449.343 677.748 448.004C679.034 444.625 680.99 439.511 683.43 435.052C684.461 433.164 685.675 431.909 687.142 431.198C690.427 429.607 693.274 431.562 694.214 432.196L694.343 432.278C697.722 434.552 695.587 438.242 694.883 439.449C694.389 440.311 693.817 441.288 693.345 442.538C692.434 444.946 692.541 445.65 692.636 446.327C692.66 446.515 692.685 446.703 692.709 446.891C693.129 450.81 693.222 456.254 691.308 460.081C690.459 461.769 689.259 463.007 687.738 463.743L687.729 463.748Z" fill="#FBF3D6"/>
<path d="M688.663 434.339C690.211 433.59 691.607 434.658 692.378 435.173C693.5 435.93 691.472 437.568 690.065 441.294C688.649 445.024 689.096 446.108 689.216 447.272C689.335 448.436 690.033 454.787 688.166 458.525C687.629 459.596 686.941 460.24 686.203 460.598C684.367 461.487 682.163 460.676 680.864 460.539C679.023 460.342 678.666 454.648 679.653 452.648C680.64 450.648 683.085 442.964 686.504 436.718C687.232 435.399 687.961 434.679 688.672 434.335M685.621 428.035C683.506 429.059 681.739 430.848 680.366 433.358C677.807 438.031 675.804 443.279 674.485 446.751C674.074 447.828 673.56 449.176 673.386 449.55C671.577 453.226 671.731 459.418 673.738 463.079C675.124 465.597 677.452 467.214 680.123 467.498C680.221 467.517 680.391 467.546 680.573 467.58C682.389 467.934 685.762 468.589 689.272 466.889C691.477 465.821 693.267 464.01 694.451 461.637C696.749 457.045 696.666 450.886 696.193 446.515C696.165 446.273 696.137 446.053 696.099 445.816C696.087 445.744 696.079 445.681 696.071 445.596C696.095 445.462 696.187 444.918 696.626 443.761C697.001 442.768 697.467 441.964 697.924 441.187C698.464 440.259 699.017 439.291 699.377 438.084C700.377 434.711 699.172 431.283 696.307 429.36L696.205 429.287C691.687 426.197 687.961 426.902 685.639 428.026L685.621 428.035Z" fill="#231F20"/>
<path d="M661.739 489.624L660.045 487.089C658.776 485.204 658.801 477.18 662.85 473.564C669.183 467.897 673.259 463.489 674.11 461.966C674.192 460.459 675.013 459.173 676.372 458.515C678.46 457.503 680.787 458.454 683.248 459.451C683.604 459.59 684.062 459.779 684.445 459.927C686.863 458.956 688.365 459.762 689.212 460.662C691.326 462.894 689.72 465.794 688.951 467.189C688.452 468.086 688.094 468.815 687.796 469.415C686.85 471.34 686.024 473.007 683.396 474.279C682.604 474.663 681.737 475.005 680.9 475.344C680.091 475.669 679.26 475.994 678.54 476.342C677.901 476.652 677.401 476.95 677.08 477.227C676.004 478.126 674.426 479.068 672.899 479.975C672.142 480.43 671.024 481.082 670.55 481.434C670.145 482.019 669.51 482.705 668.44 483.845C667.892 484.433 666.976 485.41 666.463 486.025L666.447 487.277L664.493 488.29L661.739 489.624Z" fill="#FBF3D6"/>
<path d="M677.889 461.669C679.149 461.059 684.027 463.996 684.936 463.556C685.089 463.482 685.26 463.399 685.422 463.32C686.439 462.828 687.562 462.44 685.877 465.5C683.905 469.066 683.981 470.118 681.866 471.143C680.453 471.827 678.621 472.426 677.001 473.21C676.191 473.603 675.438 474.045 674.819 474.556C672.961 476.111 668.209 478.413 667.76 479.275C667.315 480.146 662.97 484.205 662.959 485.077C662.959 485.122 662.949 485.149 662.949 485.149C662.85 485.197 662.161 478.864 665.169 476.174C668.358 473.329 677.825 464.611 677.598 462.332C677.563 461.982 677.673 461.774 677.889 461.669ZM674.837 455.369C672.668 456.419 671.19 458.391 670.745 460.684C669.498 462.377 665.773 466.248 660.517 470.949C657.979 473.212 656.406 476.64 655.951 480.839C655.357 486.381 656.648 488.312 657.131 489.034L660.515 494.094L665.996 491.44C667.499 490.712 668.65 489.51 669.317 488.042C669.762 487.516 670.519 486.716 670.973 486.23C671.802 485.35 672.446 484.66 672.955 484.014C673.424 483.72 674.141 483.295 674.654 482.98C676.304 482.003 678.003 480.992 679.3 479.908C679.3 479.908 679.494 479.758 680.043 479.492C680.655 479.196 681.392 478.905 682.174 478.593C683.069 478.238 683.999 477.865 684.908 477.425C688.616 475.629 689.892 473.033 690.921 470.957C691.21 470.362 691.54 469.69 691.993 468.882C694.392 464.543 694.307 460.973 691.734 458.252C690.984 457.46 688.502 455.295 684.572 456.221C684.572 456.221 684.572 456.221 684.559 456.216C681.778 455.085 678.329 453.678 674.837 455.369Z" fill="#231F20"/>
<path d="M711.046 447.243C710.758 447.383 710.457 447.518 710.151 447.643C709.944 447.744 709.738 447.822 709.54 447.917C707.587 448.863 705.65 448.49 703.775 446.798L703.696 446.726C701.138 446.653 699.46 444.932 698.432 443.886C698.277 443.728 698.074 443.515 697.941 443.401C695.639 442.272 691.525 437.976 690.734 434.692C690.097 432.045 691.459 429.33 694.06 428.07C696.499 426.889 699.194 427.428 700.659 429.374C701.221 429.846 703.28 430.749 704.797 431.426C705.997 431.955 707.354 432.554 708.736 433.229C712.888 435.262 714.149 436.674 714.598 439.801C714.626 440.021 714.663 440.258 714.722 440.541C715.055 442.213 715.011 445.312 711.042 447.234L711.046 447.243Z" fill="#FBF3D6"/>
<path d="M695.595 431.238C696.441 430.828 697.415 430.845 697.894 431.535C698.922 432.993 702.94 434.314 707.207 436.403C711.474 438.491 710.838 438.966 711.296 441.244C711.612 442.836 710.663 443.562 709.52 444.116C709.025 444.355 708.495 444.568 708.018 444.799C706.434 445.566 706.022 443.155 704.017 443.259C702.012 443.363 700.765 440.812 699.546 440.313C698.326 439.815 694.714 436.187 694.161 433.899C693.876 432.715 694.658 431.714 695.612 431.252M692.561 424.952C688.475 426.931 686.331 431.291 687.36 435.548C688.38 439.765 692.745 444.418 695.843 446.251C695.883 446.287 695.914 446.328 695.954 446.364C696.952 447.392 699.067 449.556 702.298 450.125C705.962 452.873 709.337 451.949 711.092 451.099C711.245 451.025 711.407 450.946 711.577 450.886C711.919 450.743 712.265 450.586 712.598 450.425C719.096 447.278 718.52 441.568 718.188 439.896C718.146 439.694 718.121 439.506 718.096 439.34C717.393 434.447 714.822 432.326 710.31 430.122C708.865 429.411 707.473 428.807 706.254 428.264C705.169 427.79 703.737 427.15 703.066 426.775C700.518 423.898 696.336 423.134 692.574 424.956L692.561 424.952Z" fill="#231F20"/>
<path d="M731.71 445.746C731.125 446.03 730.48 446.165 729.813 446.143C729.463 446.246 728.609 446.57 726.593 447.547C725.9 447.882 725.171 448.235 724.451 448.607C723.704 448.968 722.966 449.348 722.255 449.692C719.78 450.891 718.391 451.442 717.301 451.669C714.691 452.2 712.346 451.625 710.323 449.949C709.078 449.074 707.8 447.216 707.661 445.461C707.572 444.315 707.939 443.237 708.661 442.41C708.719 442.093 708.778 441.664 708.812 441.392C708.922 440.517 709.021 439.758 709.397 439.02C709.892 438.047 710.649 437.291 711.603 436.829C712.989 436.158 715.314 435.843 718.605 438.049C719.597 438.057 721.973 437.296 723.167 436.917C724.11 436.616 725.008 436.337 725.785 436.15C729.548 435.271 732.745 438.201 733.622 440.654C734.36 442.752 733.587 444.849 731.724 445.751L731.71 445.746Z" fill="#FBF3D6"/>
<path d="M713.115 439.975C713.997 439.547 715.439 440.093 716.897 441.132C718.777 442.466 723.967 440.174 726.569 439.559C728.924 439.007 731.058 442.173 730.185 442.596C730.095 442.64 729.96 442.661 729.8 442.627C729.094 442.524 727.223 443.342 725.063 444.388C723.65 445.072 722.115 445.849 720.711 446.529C718.993 447.361 717.468 448.044 716.589 448.226C713.871 448.786 712.621 447.214 712.332 447.076C712.047 446.947 710.545 445.175 711.397 444.595C712.259 444.011 712.205 441.171 712.499 440.584C712.646 440.291 712.859 440.088 713.111 439.966M710.059 433.666C708.412 434.463 707.09 435.771 706.25 437.433C705.604 438.713 705.455 439.896 705.325 440.936C705.325 440.959 705.316 440.985 705.32 441.017C704.457 442.379 704.043 444.002 704.165 445.698C704.371 448.487 706.136 451.122 708.049 452.595C711.661 455.601 715.449 455.6 717.996 455.077C719.413 454.791 720.982 454.176 723.772 452.824C724.492 452.476 725.257 452.105 726.004 451.721C726.724 451.372 727.435 451.006 728.119 450.674C729.37 450.068 730.076 449.76 730.467 449.604C731.434 449.535 732.372 449.292 733.245 448.87C736.71 447.191 738.249 443.235 736.911 439.461C735.412 435.22 730.428 431.445 724.978 432.718C724.059 432.93 723.106 433.236 722.096 433.558C721.364 433.79 720.188 434.16 719.331 434.364C715.018 431.975 711.734 432.833 710.069 433.639L710.059 433.666Z" fill="#231F20"/>
<path d="M673.886 460.219C673.292 460.506 672.65 460.673 671.974 460.722C669.602 460.871 667.159 459.91 665.584 458.217C664.3 456.828 663.722 455.13 663.958 453.416C664.337 450.643 666.077 447.445 668.39 445.269C668.856 444.832 669.535 444.237 670.312 443.572C671.746 442.333 675.553 439.022 676.119 437.826C676.262 437.457 676.356 436.778 676.453 436.131C676.751 434.131 677.245 430.792 680.602 429.166C680.746 429.096 680.89 429.026 681.043 428.975C682.778 428.267 684.644 428.519 686.053 429.637C687.664 430.923 688.393 433.115 688 435.516C687.67 437.587 685.739 441.034 679.746 450.247L679.613 450.456C678.71 451.849 678.159 453.394 677.672 454.752C676.898 456.916 676.104 459.155 673.89 460.228L673.886 460.219Z" fill="#FBF3D6"/>
<path d="M682.132 432.302C682.204 432.268 682.276 432.233 682.357 432.193C683.787 431.612 684.871 432.932 684.541 434.936C684.212 436.94 679.35 444.406 676.677 448.522C674.26 452.249 674.084 456.223 672.365 457.055C672.185 457.142 671.979 457.198 671.764 457.213C669.445 457.358 667.195 455.626 667.427 453.88C667.669 452.13 668.849 449.636 670.787 447.809C672.724 445.981 678.474 441.474 679.377 439.07C680.256 436.733 679.622 433.496 682.124 432.284M679.072 425.984C674.05 428.417 673.332 433.265 672.989 435.586C672.96 435.823 672.911 436.113 672.877 436.341C671.909 437.532 669.223 439.855 668.02 440.904C667.229 441.587 666.542 442.187 665.999 442.694C663.097 445.422 660.982 449.335 660.494 452.916C660.115 455.644 661.037 458.442 663.027 460.578C665.33 463.062 668.761 464.412 672.203 464.2C673.336 464.13 674.413 463.852 675.421 463.364C678.922 461.669 680.109 458.338 680.971 455.92C681.416 454.683 681.871 453.396 682.555 452.353L682.682 452.158C689.136 442.221 691.018 438.766 691.459 436.074C692.051 432.41 690.846 428.982 688.234 426.892C685.83 424.978 682.651 424.54 679.733 425.72C679.508 425.807 679.292 425.911 679.085 426.011L679.072 425.984Z" fill="#231F20"/>
<path d="M654.192 478.401C653.933 477.682 651.734 471.192 654.031 466.001C655.564 462.559 657.546 461.122 658.995 460.075C659.595 459.64 660.042 459.324 660.333 458.938C660.71 458.456 660.998 457.627 661.263 456.821C661.783 455.28 662.499 453.178 664.605 452.158C664.749 452.089 664.902 452.014 665.054 451.963C666.33 451.5 668.182 451.492 669.759 454.106C669.79 454.169 669.834 454.237 669.877 454.305C671.172 454.522 672.46 454.82 673.426 455.897C674.136 456.697 674.458 457.753 674.333 458.869C674.072 461.084 671.723 464.355 669.102 466.169C668.42 466.644 667.659 467.068 666.866 467.519C664.988 468.573 662.65 469.894 662.416 471.385C661.749 475.697 660.859 478.172 660.766 478.439L657.432 487.477L654.183 478.406L654.192 478.401Z" fill="#FBF3D6"/>
<path d="M666.135 455.295C666.135 455.295 666.225 455.251 666.261 455.234C666.486 455.147 667.392 457.408 668.257 457.567C669.132 457.721 670.499 457.859 670.816 458.216C671.134 458.574 669.548 461.586 667.108 463.268C664.671 464.959 659.59 466.742 658.957 470.827C658.324 474.911 657.481 477.208 657.481 477.208C657.481 477.208 655.42 471.462 657.225 467.41C659.029 463.359 661.419 463.201 663.078 461.097C664.688 459.051 664.659 456.01 666.126 455.299M663.075 448.999C659.655 450.656 658.544 453.938 657.95 455.693C657.838 456.036 657.671 456.516 657.551 456.774C657.398 456.893 657.136 457.087 656.937 457.227C655.367 458.366 652.74 460.26 650.825 464.566C648.03 470.863 650.389 478.165 650.89 479.567L657.384 497.7L664.043 479.63C664.145 479.336 665.095 476.71 665.804 472.322C666.36 471.797 667.775 471.001 668.577 470.546C669.415 470.073 670.279 469.588 671.087 469.03C674.024 466.996 677.368 462.888 677.803 459.266C678.053 457.167 677.404 455.093 676.037 453.555C674.802 452.175 673.329 451.521 671.979 451.165C668.805 447.135 664.697 448.358 663.848 448.669C663.583 448.764 663.327 448.877 663.075 448.999Z" fill="#231F20"/>
<path d="M664.433 454.786C663.488 455.244 660.952 455.95 657.957 452.611C655.801 450.2 655.246 447.724 656.437 445.825C657.3 444.463 658.655 443.751 659.848 443.118C660.478 442.79 661.185 442.414 661.489 442.101C662.105 441.469 663.117 440.645 664.861 439.245C666.556 437.88 670.094 435.044 670.732 434.091C670.915 433.78 671.26 432.612 671.485 431.837C672.33 428.972 673.288 425.719 676.042 424.385C677.374 423.74 678.851 423.692 680.302 424.233C684.42 425.761 684.925 429.006 684.099 431.316L683.965 431.704C683.408 433.307 682.475 435.992 680.614 437.816L679.794 438.602C669.441 448.516 667.074 451.429 666.54 452.277C666.195 453.399 665.441 454.298 664.424 454.79L664.433 454.786Z" fill="#FBF3D6"/>
<path d="M677.586 427.527C678.018 427.317 678.515 427.288 679.098 427.505C680.589 428.061 681.259 428.892 680.814 430.13C680.369 431.368 679.603 433.916 678.172 435.298C676.755 436.685 663.647 449.033 663.218 451.13C663.161 451.402 663.047 451.557 662.894 451.631C661.823 452.15 658.776 448.659 659.392 447.683C660.095 446.564 662.589 445.979 663.994 444.543C665.399 443.107 672.232 438.197 673.659 436.006C674.854 434.183 675.395 428.577 677.573 427.522M674.521 421.222C670.363 423.236 669.078 427.625 668.134 430.838C668.008 431.266 667.835 431.849 667.705 432.246C666.708 433.284 664.024 435.428 662.682 436.512C660.938 437.912 659.876 438.771 659.115 439.517C658.921 439.644 658.503 439.858 658.21 440.011C656.783 440.758 654.829 441.793 653.464 443.954C652.693 445.183 650.549 449.588 655.329 454.939C660.048 460.209 664.64 458.563 665.936 457.936C667.646 457.107 668.948 455.688 669.659 453.922C670.404 452.938 673.05 449.89 682.222 441.114C682.612 440.748 682.888 440.47 683.051 440.324C685.514 437.931 686.656 434.623 687.273 432.846L687.399 432.485C688.817 428.509 687.583 423.207 681.524 420.953C679.178 420.078 676.695 420.18 674.517 421.235L674.521 421.222Z" fill="#231F20"/>
<path d="M651.505 471.636C650.361 469.757 648.483 466.222 648.78 463.6C649.093 460.071 651.093 456.035 652.291 453.622C652.47 453.257 652.686 452.831 652.805 452.573C653.268 449.949 654.304 448.28 655.969 447.474C656.194 447.365 656.437 447.27 656.684 447.206C659.619 446.362 662.604 449.038 664.126 450.712C665.344 452.056 665.47 453.417 665.364 454.324C665.128 456.382 663.569 457.637 662.103 458.648C661.387 459.394 659.805 462.805 658.714 466.356C658.099 468.343 657.988 469.996 657.988 470.018L657.285 481.07L651.514 471.632L651.505 471.636Z" fill="#FBF3D6"/>
<path d="M657.486 450.628C657.531 450.607 657.585 450.58 657.634 450.568C658.59 450.293 660.616 452.068 661.521 453.063C662.301 453.918 661.823 454.583 660.032 455.817C658.241 457.051 656.119 462.857 655.359 465.325C654.599 467.793 654.484 469.804 654.484 469.804C654.484 469.804 652.039 465.811 652.25 463.998C652.62 459.829 656.081 454.242 656.198 453.452C656.31 452.698 656.64 451.038 657.477 450.633M654.426 444.333C651.834 445.588 650.162 447.987 649.442 451.479C649.346 451.671 649.24 451.888 649.153 452.075C647.469 455.457 645.657 459.402 645.281 463.328C645 466.098 646.084 469.506 648.503 473.468L660.536 493.151L661.46 470.237C661.476 470.04 661.599 468.825 662.042 467.4C662.825 464.865 663.954 462.218 664.576 461.183C666.101 460.089 668.421 458.11 668.821 454.738C669.087 452.443 668.333 450.175 666.696 448.379C664.627 446.103 660.455 442.49 655.697 443.861C655.266 443.981 654.835 444.146 654.43 444.342L654.426 444.333Z" fill="#231F20"/>
<path d="M384.588 297.821C380.043 300.022 378.304 296.776 378.121 296.398C378.143 296.443 378.178 296.515 378.222 296.605C378.055 296.33 377.189 295.138 376.284 293.866C369.141 283.936 347.41 253.727 344.226 236.003C334.187 180.198 337.922 178.389 340.658 177.064L340.829 176.981L341.063 176.89C341.423 176.761 341.868 176.556 342.327 176.334C343.992 175.55 346.507 174.365 348.972 175.715C351.495 177.093 351.873 180.055 352 181.027C352.216 182.666 352.742 184.556 353.345 186.742C354.398 190.521 355.703 195.233 356.306 201.686C357.289 212.365 364.291 243.663 368.554 249.276C369.558 250.59 371.314 252.817 373.357 255.383C395.915 283.858 396.451 286.342 394.678 289.334C393.134 291.927 387.689 296.308 384.584 297.812L384.588 297.821Z" fill="#FBF3D6"/>
<path d="M342.193 180.21C342.193 180.21 342.229 180.192 342.256 180.179C344.934 179.216 347.901 176.579 348.541 181.479C349.177 186.394 351.906 192.028 352.831 202.013C353.756 211.998 360.705 244.722 365.782 251.396C370.85 258.075 393.13 285.106 391.682 287.552C390.603 289.364 385.772 293.359 383.072 294.667C382.145 295.116 381.463 295.246 381.28 294.868C380.557 293.374 351.285 255.373 347.691 235.38C344.118 215.5 338.863 181.823 342.202 180.205M339.151 173.905C333.931 176.434 334.072 182.965 334.148 186.862C334.223 190.526 334.651 195.54 335.4 201.789C337.008 215.088 339.71 230.579 340.792 236.621C343.781 253.207 360.861 278.402 373.454 295.914C374.245 297.02 375.076 298.162 375.273 298.477C376.701 300.808 380.381 303.748 386.105 300.976C389.309 299.424 395.558 294.708 397.683 291.135C400.242 286.829 397.587 282.47 396.005 279.87C394.717 277.76 392.85 275.053 390.309 271.595C385.854 265.541 380.22 258.426 376.099 253.222C374.074 250.669 372.326 248.46 371.345 247.169C370.395 245.918 367.896 240.117 364.542 226.308C361.974 215.707 360.179 205.554 359.789 201.376C359.168 194.611 357.807 189.736 356.72 185.818C356.147 183.763 355.655 181.99 355.476 180.588C354.987 176.802 353.361 174.134 350.656 172.655C346.632 170.449 342.722 172.287 340.842 173.175C340.491 173.345 340.095 173.537 339.893 173.602C339.636 173.692 339.389 173.801 339.146 173.919L339.151 173.905Z" fill="#231F20"/>
<path d="M337.631 286.53C334.841 287.882 333.08 288.168 331.554 287.518C330.589 287.108 329.847 286.334 329.479 285.368C329.322 285.044 328.767 283.99 328.182 282.873C323.264 273.544 308.308 245.165 307.686 229.589C305.776 181.436 309.187 179.784 311.455 178.686C311.752 178.542 312.066 178.434 312.389 178.367C312.69 178.299 313.076 178.178 313.484 178.058C315.087 177.56 317.512 176.808 319.648 178.396C321.092 179.474 321.821 181.254 321.795 183.678C321.777 185.064 322.002 186.722 322.26 188.63C322.714 191.999 323.274 196.184 323.015 201.798C322.591 210.97 324.813 238.294 327.744 243.519C328.444 244.758 329.674 246.862 331.106 249.291C333.992 254.193 337.932 260.907 340.983 266.54C346.227 276.245 347.016 278.996 345.189 281.281C343.671 283.172 339.832 285.453 337.627 286.521L337.631 286.53Z" fill="#FBF3D6"/>
<path d="M312.981 181.836C312.981 181.836 313.061 181.797 313.106 181.797C315.505 181.291 318.343 179.394 318.307 183.656C318.266 187.909 319.928 193.038 319.524 201.655C319.129 210.269 321.169 238.959 324.694 245.251C328.215 251.535 343.983 277.209 342.461 279.113C341.566 280.225 338.549 282.208 336.11 283.389C334.373 284.231 332.927 284.664 332.746 284.107C332.312 282.751 311.891 246.919 311.19 229.459C310.508 212.244 310.037 183.284 312.989 181.854M309.938 175.554C305.303 177.799 304.024 182.751 303.735 199.614C303.536 211.11 303.993 224.511 304.2 229.733C304.784 244.405 316.405 268.033 325.102 284.521C325.6 285.457 326.102 286.425 326.294 286.799C327.028 288.566 328.423 289.979 330.203 290.739C333.383 292.099 336.524 290.967 339.179 289.681C339.431 289.559 345.416 286.638 347.952 283.476C351.01 279.651 349.046 275.113 347.99 272.68C347.129 270.697 345.851 268.149 344.09 264.88C341.009 259.183 337.042 252.438 334.147 247.518C332.724 245.107 331.503 243.021 330.829 241.814C328.561 237.59 326.083 212.079 326.542 201.968C326.818 196.045 326.205 191.498 325.763 188.178C325.522 186.395 325.322 184.858 325.328 183.722C325.371 179.224 323.411 176.829 321.772 175.6C318.209 172.948 314.334 174.147 312.48 174.723C312.21 174.809 311.842 174.92 311.712 174.95C311.107 175.077 310.523 175.27 309.965 175.541L309.938 175.554Z" fill="#231F20"/>
<path d="M427.022 299.014C423.593 300.675 415.924 301.611 412.796 296.437C394.709 268.475 377.472 211.368 369.187 183.914C367.345 177.817 365.89 172.999 365.052 170.605C363.913 167.335 365.008 164.526 367.987 163.084C368.941 162.621 369.955 162.353 370.934 162.101C371.584 161.93 372.186 161.772 372.68 161.577C373.727 161.17 374.92 161.248 375.942 161.797C377.399 162.581 379.603 163.758 387.503 188.098C391.502 200.417 395.546 214.525 397.116 221.643C400.136 235.335 423.056 275.524 428.556 281.971C433.77 288.079 433.9 293.372 428.935 297.688C428.835 297.78 428.731 297.864 428.645 297.939C428.198 298.345 427.67 298.7 427.004 299.023L427.022 299.014Z" fill="#FBF3D6"/>
<path d="M369.509 166.225C370.706 165.645 372.457 165.407 373.945 164.831C376.875 163.701 390.555 208.098 393.707 222.382C396.863 236.676 419.869 277.156 425.907 284.232C431.945 291.307 427.801 293.97 426.29 295.346C426.104 295.514 425.825 295.694 425.492 295.855C423.125 297.001 417.588 297.683 415.762 294.578C393.845 260.749 372.955 182.655 368.354 169.439C367.729 167.642 368.361 166.769 369.504 166.216M366.453 159.916C361.863 162.139 360.011 166.78 361.746 171.74C362.558 174.058 364 178.848 365.829 184.895C374.162 212.493 391.48 269.883 409.83 298.274C413.984 305.084 423.431 304.631 428.552 302.151C429.506 301.689 430.345 301.127 431.028 300.496C431.087 300.434 431.169 300.372 431.245 300.302C432.417 299.279 435.162 296.894 435.907 292.766C436.662 288.59 435.085 284.187 431.242 279.67C425.53 272.97 403.306 233.323 400.547 220.859C398.952 213.642 394.874 199.395 390.844 186.991C388.644 180.201 386.585 174.365 384.898 170.126C381.994 162.8 380.293 160.135 377.605 158.692C375.681 157.657 373.434 157.512 371.429 158.283C371.119 158.4 370.576 158.541 370.055 158.682C368.961 158.968 367.731 159.297 366.471 159.907L366.453 159.916Z" fill="#231F20"/>
<path d="M467.449 275.279C463.246 277.314 457.65 277.713 454.561 274.043C432.328 249.244 406.395 195.515 393.929 169.686C391.153 163.953 388.983 159.426 387.781 157.197C386.868 155.495 386.66 153.851 387.154 152.323C387.838 150.203 389.596 149.129 391.036 148.432C391.423 148.244 391.836 148.066 392.264 147.87C392.619 147.709 392.979 147.557 393.339 147.383C393.537 147.287 393.735 147.191 393.915 147.082L394.032 147.025L394.163 146.951C395.144 146.475 396.271 146.441 397.317 146.856C398.768 147.42 401.198 148.377 412.728 171.059C418.585 182.578 424.755 195.845 427.407 202.605C432.524 215.649 461.434 251.781 467.872 257.296C473.969 262.521 474.923 267.725 470.696 272.762C470.605 272.872 470.528 272.965 470.451 273.058C469.796 273.886 468.781 274.634 467.44 275.283L467.449 275.279Z" fill="#FBF3D6"/>
<path d="M392.566 151.568C393.277 151.224 394.086 150.899 394.86 150.524C395.139 150.389 395.409 150.258 395.666 150.1L395.684 150.092C398.483 148.736 418.827 190.283 424.152 203.87C429.495 217.494 458.536 253.895 465.598 259.942C472.66 265.988 468.982 269.269 467.71 270.863C467.392 271.262 466.742 271.71 465.905 272.115C463.385 273.336 459.158 274.128 457.189 271.737C430.258 241.735 397.454 167.856 390.848 155.523C389.685 153.352 390.847 152.379 392.548 151.555M389.488 145.259C388.372 145.8 385.042 147.412 383.818 151.217C383.264 152.918 382.97 155.616 384.688 158.817C385.85 160.988 388.016 165.483 390.775 171.18C403.306 197.144 429.361 251.125 451.916 276.313C456.222 281.372 463.561 281.017 468.97 278.398C470.788 277.517 472.211 276.439 473.201 275.204C473.256 275.133 473.319 275.058 473.383 274.983C474.382 273.788 476.725 271.008 476.818 266.819C476.907 262.576 474.674 258.468 470.16 254.61C463.475 248.881 435.332 213.189 430.675 201.3C427.988 194.446 421.757 181.053 415.857 169.444C403.715 145.568 401.112 144.552 398.602 143.567C396.626 142.791 394.509 142.872 392.646 143.774L392.412 143.887L392.16 144.032C392.079 144.071 391.966 144.137 391.822 144.206C391.507 144.359 391.184 144.493 390.873 144.633C390.406 144.837 389.956 145.032 389.524 145.242L389.488 145.259Z" fill="#231F20"/>
<path d="M494.872 239.63C490.831 241.587 486.929 241.4 484.413 239.118C461.278 219.478 431.244 174.236 416.809 152.483C413.605 147.657 411.081 143.846 409.727 141.99C408.619 140.46 408.218 138.899 408.52 137.342C409.017 134.834 411.153 133.533 412.704 132.582C413.208 132.271 413.7 131.977 414.061 131.691L414.35 131.462L414.737 131.275C417.896 129.745 420.526 132.582 424.181 137.101C426.691 140.196 430.016 144.697 433.798 150.121C440.73 160.052 448.214 171.65 451.595 177.69C457.802 188.784 488.256 217.712 494.729 221.877C501.056 225.946 502.584 230.662 499.28 235.907L499.097 236.195C498.087 237.895 496.006 239.081 494.863 239.635L494.872 239.63Z" fill="#FBF3D6"/>
<path d="M416.267 134.411C418.805 133.182 442.09 167.861 448.541 179.392C455.036 191.013 485.72 220.229 492.841 224.814C499.957 229.39 497.042 232.801 496.092 234.395C495.722 235.008 494.665 235.831 493.342 236.471C491.218 237.5 488.416 238.046 486.714 236.482C458.738 212.764 420.026 150.224 412.548 139.924C410.478 137.071 413.951 136.189 416.213 134.438C416.231 134.429 416.249 134.42 416.267 134.411ZM413.216 128.111C412.757 128.334 412.32 128.601 411.918 128.918C411.71 129.085 411.273 129.353 410.876 129.589C409.006 130.728 405.887 132.639 405.085 136.65C404.736 138.407 404.76 141.118 406.888 144.043C408.193 145.844 410.704 149.628 413.886 154.409C428.405 176.288 458.602 221.775 482.112 241.755C485.73 244.98 491.052 245.37 496.407 242.776C498.243 241.887 500.722 240.33 502.121 237.964C502.157 237.902 502.203 237.835 502.253 237.756C506.589 230.878 504.542 224.014 496.632 218.923C489.919 214.607 460.3 186.052 454.663 175.971C451.238 169.841 443.671 158.117 436.686 148.1C432.864 142.618 429.483 138.044 426.919 134.886C423.63 130.823 419.111 125.256 413.225 128.107L413.216 128.111Z" fill="#231F20"/>
<path d="M507.283 197.808C504.232 199.286 501.246 199.199 499.083 197.579C478.993 183.399 451.557 149.142 438.361 132.678C435.442 129.036 433.139 126.162 431.931 124.77C430.525 123.151 430.356 121.61 430.467 120.601C430.721 118.256 432.477 116.95 433.759 115.995C434.125 115.718 434.477 115.459 434.73 115.225L435.12 114.859L435.66 114.597C438.454 113.232 440.886 115.432 444.282 118.932C446.542 121.26 449.541 124.652 452.978 128.743C459.256 136.224 466.096 145 469.249 149.607C475.002 158.02 501.389 178.94 506.868 181.809C510.831 183.89 514.908 187.627 511.83 193.661L511.72 193.893C510.907 195.586 508.912 197.019 507.31 197.795L507.283 197.808Z" fill="#FBF3D6"/>
<path d="M437.167 117.756C439.228 116.758 460.341 142.821 466.339 151.605C472.404 160.479 499.167 181.761 505.223 184.928C511.27 188.099 509.175 191.047 508.532 192.403C508.229 193.039 507.108 194.004 505.758 194.658C504.237 195.395 502.421 195.73 501.15 194.757C476.949 177.711 441.322 130.21 434.572 122.468C432.703 120.329 435.434 119.362 437.118 117.791C437.136 117.782 437.158 117.76 437.176 117.751M434.125 111.451C433.477 111.765 432.877 112.178 432.348 112.668C432.239 112.765 431.896 113.02 431.675 113.183C430.189 114.291 427.408 116.349 426.993 120.217C426.806 121.919 427.064 124.493 429.299 127.067C430.467 128.401 432.748 131.252 435.637 134.853C448.925 151.439 476.542 185.93 497.031 200.407C500.23 202.769 504.619 202.976 508.804 200.949C510.127 200.308 513.375 198.48 514.845 195.412L514.919 195.266C518.248 188.764 515.839 182.575 508.472 178.721C502.843 175.77 477.309 155.236 472.123 147.648C468.917 142.956 461.985 134.058 455.64 126.509C452.164 122.359 449.094 118.913 446.781 116.522C443.668 113.307 439.399 108.897 434.116 111.456L434.125 111.451Z" fill="#231F20"/>
<path d="M457.264 343.7C454.852 344.868 452.414 345.661 450.011 346.069C415.199 351.962 376.628 355.921 359.593 328.16C352.034 315.832 346.618 309.467 342.655 304.819C338.063 299.421 335.027 295.858 333.449 288.289C332.944 285.845 333.95 283.68 336.092 282.642C343.427 279.09 370.484 293.43 370.764 293.572C376.055 296.421 412.761 308.065 447.807 291.092C456.708 286.781 464.949 280.901 472.291 273.6C473.65 271.886 475.576 269.554 477.797 266.867C482.547 261.122 491.368 250.45 492.297 248.033C492.65 246.651 493.545 245.54 494.832 244.916C497.919 243.421 502.323 245.288 505.306 247.799C508.824 250.751 510.277 254.414 509.298 257.854C509.097 258.563 487.423 329.093 457.264 343.7Z" fill="#FBF3D6"/>
<path d="M337.618 285.792C342.037 283.652 363.464 293.619 369.101 296.655C374.33 299.467 412.298 312.179 449.324 294.246C458.045 290.022 466.72 284.098 474.905 275.945C480.009 269.462 494.872 252.364 495.685 248.925C495.78 248.524 496.02 248.241 496.353 248.08C498.909 246.842 507.356 251.917 505.938 256.904C504.441 262.163 483.13 327.295 455.752 340.555C453.682 341.557 451.58 342.264 449.442 342.622C419.085 347.758 378.994 353.075 362.586 326.333C346.179 299.591 339.52 300.204 336.88 287.572C336.694 286.684 336.979 286.102 337.618 285.792ZM334.567 279.492C331.021 281.21 329.197 285.037 330.028 289.002C331.795 297.446 335.233 301.492 339.997 307.084C343.884 311.646 349.199 317.894 356.614 329.992C365.059 343.758 379.71 351.64 400.167 353.41C416.961 354.865 435.001 352.172 450.598 349.529C453.328 349.062 456.085 348.171 458.794 346.859C471.718 340.6 484.526 324.419 496.858 298.768C505.824 280.115 511.694 262.25 512.667 258.823C514.02 254.068 512.108 248.949 507.558 245.131C503.982 242.129 498.108 239.452 493.302 241.78C491.223 242.787 489.679 244.601 489.008 246.793C487.555 249.574 479.17 259.724 475.092 264.655C472.926 267.271 471.041 269.55 469.677 271.277C462.644 278.228 454.773 283.84 446.277 287.955C428.151 296.734 409.967 297.318 397.896 296.276C383.349 295.01 373.71 291.212 372.417 290.516C369.609 289.009 362.524 285.574 355.465 282.793C342.795 277.807 337.951 277.876 334.567 279.515L334.567 279.492Z" fill="#231F20"/>
</svg>
