<svg width="1440" height="227" viewBox="0 0 1440 227" fill="none" xmlns="http://www.w3.org/2000/svg">
<path d="M0 54.9999V227H336C336 227 270.458 217.712 260.935 200.915C251.412 184.119 246.045 173.068 221.016 170.407C195.987 167.746 161.434 184.559 153.693 166.424C145.951 148.288 165.614 116.458 119.14 105.407C72.6672 94.3558 73.8547 95.6779 67.9171 82.8643C61.9795 70.0507 35.7398 73.5762 25.6231 70.4914C15.5063 67.4067 2.37504 68.2711 0 54.9999Z" fill="#241F0B"/>
<path d="M200.62 100.841C195.401 99.6541 188.578 99.3634 185.313 102.401C182.048 105.439 178.863 110.659 178.164 116.966C177.465 123.273 175.443 137.375 179.252 139.868C183.061 142.36 209.092 149.451 211.034 147.735C212.976 146.019 228.208 129.352 228.597 125.379C228.986 121.405 233.804 105.204 228.597 102.788C223.39 100.371 206.45 102.162 200.624 100.841H200.62Z" fill="#241F0B"/>
<path d="M47.9328 22.3425C51.6768 18.9421 56.8165 6.64235 60.8192 7.50324C64.8219 8.36412 72.7287 4.87626 73.2947 3.96132C73.8607 3.04638 79.2248 -0.846495 81.435 0.507086C83.6451 1.86067 98.4297 8.14421 99.6407 12.3553C100.852 16.5664 92.8394 41.5157 87.5205 43.6379C82.2016 45.7601 69.4284 52.9831 66.4416 49.1434C63.4547 45.3037 47.3751 42.8985 46.0019 40.4336C44.6287 37.9688 41.2655 28.3921 47.9328 22.3425Z" fill="#241F0B"/>
<path d="M222.334 218.531C219.359 217.218 210.833 217.344 210.268 214.803C209.703 212.262 205.568 208.554 204.884 208.457C204.201 208.359 200.508 206.23 200.707 204.605C200.906 202.98 200.624 192.809 202.752 191.041C204.88 189.273 221.532 187.616 224.183 190.167C226.834 192.718 234.439 198.307 233 201.011C231.561 203.716 234.444 213.658 233.376 215.078C232.307 216.499 227.63 220.872 222.334 218.531Z" fill="#574B1E"/>
<path d="M137.505 10.4716C143.256 11.5847 169.365 9.14663 172.995 19.2558C176.624 29.365 179.055 40.1866 180.289 41.2377C181.523 42.2888 196.382 64.922 194.369 71.1487C192.355 77.3754 149.211 90.0359 137.547 83.283C125.884 76.5301 111.442 59.8894 113.218 47.5119C114.993 35.1343 121.312 16.9165 122.316 13.3378C123.32 9.75915 131.21 9.25347 137.505 10.4716Z" fill="#241F0B"/>
<path d="M80.7012 150.837C77.2645 152.914 65.1057 166.155 58.6131 162.681C52.1204 159.208 45.9104 154.821 44.7994 154.854C43.6885 154.886 25.7282 150.205 23.8902 146.112C22.0523 142.02 38.1767 115.75 47.2129 113.823C56.2492 111.897 71.2432 113.723 76.0291 120.834C80.8151 127.946 85.9751 140.116 87.1091 142.398C88.2432 144.679 84.4629 148.563 80.7012 150.837Z" fill="#574B1E"/>
<path d="M1440 101V227H1104C1104 227 1169.54 220.196 1179.07 207.891C1188.59 195.587 1193.95 187.492 1218.98 185.542C1244.01 183.593 1278.57 195.91 1286.31 182.624C1294.05 169.339 1274.39 146.021 1320.86 137.926C1367.33 129.831 1366.15 130.799 1372.08 121.412C1378.02 112.026 1404.26 114.608 1414.38 112.348C1424.49 110.089 1437.62 110.722 1440 101Z" fill="#241F0B"/>
<path d="M1362.32 68.4258C1359.82 71.4974 1357.38 75.9275 1358.32 79.0912C1359.27 82.2549 1361.68 86.083 1365.64 88.6192C1369.59 91.1554 1378.28 97.1307 1381.18 95.4235C1384.09 93.7163 1397.34 78.7817 1396.84 76.9296C1396.34 75.0775 1390.3 59.498 1387.79 57.934C1385.28 56.37 1376.12 47.8506 1372.81 50.5099C1369.49 53.1692 1365.11 64.9931 1362.32 68.4232L1362.32 68.4258Z" fill="#241F0B"/>
<path d="M1387.32 149.426C1384.82 152.497 1382.38 156.928 1383.32 160.091C1384.27 163.255 1386.68 167.083 1390.64 169.619C1394.59 172.155 1403.28 178.131 1406.18 176.424C1409.09 174.716 1422.34 159.782 1421.84 157.93C1421.34 156.078 1415.3 140.498 1412.79 138.934C1410.28 137.37 1401.12 128.851 1397.81 131.51C1394.49 134.169 1390.11 145.993 1387.32 149.423L1387.32 149.426Z" fill="#574B1E"/>
<path d="M1232.8 130.412C1236.93 130.448 1246.82 125.928 1248.74 128.66C1250.66 131.393 1257.33 133.682 1258.17 133.448C1259.02 133.213 1264.39 133.852 1264.96 135.887C1265.54 137.922 1270.91 149.873 1269.3 153.066C1267.7 156.259 1249.08 166.765 1244.72 165.09C1240.36 163.416 1228.71 160.668 1229.05 156.714C1229.38 152.76 1221.09 142.415 1221.63 140.178C1222.17 137.941 1225.46 130.343 1232.8 130.412Z" fill="#241F0B"/>
<path d="M1230.9 209.401C1228.98 210.954 1226.13 216.807 1224.2 216.276C1222.27 215.745 1218.32 217.224 1218.02 217.655C1217.72 218.085 1214.99 219.833 1213.95 219.112C1212.91 218.39 1205.88 214.915 1205.41 212.828C1204.94 210.741 1209.54 198.802 1212.19 197.916C1214.84 197.029 1221.27 193.864 1222.62 195.82C1223.97 197.775 1231.74 199.396 1232.34 200.636C1232.94 201.876 1234.31 206.638 1230.9 209.401Z" fill="#574B1E"/>
<path d="M1257.97 76.3243C1260.92 72.5575 1268.86 52.6693 1277.56 53.7914C1286.26 54.9135 1295.03 57.1726 1296.26 56.6663C1297.48 56.16 1319.46 53.7778 1323.24 57.5581C1327.02 61.3384 1320.17 97.4137 1310.92 103.381C1301.67 109.348 1284.2 113.657 1275.87 107.761C1267.53 101.865 1256.64 90.4945 1254.41 88.433C1252.18 86.3715 1254.75 80.4477 1257.97 76.3243Z" fill="#241F0B"/>
</svg>
