<svg width="394" height="173" viewBox="0 0 394 173" fill="none" xmlns="http://www.w3.org/2000/svg">
<path d="M325.292 173C325.292 173 345.734 160.981 334.764 150C323.794 139.03 304.551 154.955 304.551 154.955C304.551 154.955 319.727 126.85 304.401 118.277C289.076 109.716 275.848 136.161 275.848 136.161C275.848 136.161 273.289 112.412 259.013 111.963C244.736 111.513 241.728 127.599 241.728 127.599C241.728 127.599 226.172 87.7643 184.689 115.95C184.689 115.95 172.971 113.023 165.527 123.843C165.527 123.843 201.375 76.9442 186.268 63.8772C171.162 50.8101 146.595 78.3039 146.595 78.3039C146.595 78.3039 154.857 43.2855 137.123 38.9298C119.389 34.5742 111.726 83.1206 111.726 83.1206C111.726 83.1206 98.348 72.3005 99.3966 42.3867C100.445 12.473 87.3666 -0.294452 72.479 0.00514569C57.5913 0.304744 35.352 18.3382 38.9587 46.754C42.5654 75.1697 51.2883 96.1992 51.2883 96.1992C51.2883 96.1992 34.603 82.6712 23.3336 92.5925C12.0641 102.514 15.6132 120.397 15.6132 120.397C15.6132 120.397 9.04512 109.877 -2.07452 116.192C-2.07452 116.192 -10.1867 100.716 -22.9656 100.405C-35.7446 100.094 -42.209 123.105 -42.209 123.105C-42.209 123.105 -43.5571 99.3565 -45.6658 91.6937C-47.7745 84.0309 -49.8717 75.308 -59.6432 83.1321C-69.4146 90.9562 -55.2875 115.293 -55.1377 122.057C-54.9879 128.821 -54.2389 133.476 -56.3361 137.532C-56.3361 137.532 -59.8736 134.456 -60.9914 131.068C-62.1091 127.68 -64.7478 120.616 -70.7628 122.345C-76.7778 124.073 -77.5959 140.978 -68.1356 150.53C-68.1356 150.53 -85.2702 140.839 -91.6539 151.429C-98.0376 162.019 -79.8775 171.698 -75.5679 173H325.292Z" fill="#006838"/>
<path d="M15.7164 173H325.432C325.432 173 331.084 156.771 320.926 159.916C320.926 159.916 325.432 146.598 301.769 155.093C301.769 155.093 313.518 136.037 307.187 130.533C300.856 125.03 285.818 142.772 285.818 142.772C285.818 142.772 303.945 93.6755 292.266 90.0026C280.587 86.3298 271.657 108.719 271.657 108.719C271.657 108.719 273.144 44.5553 252.652 43.0533C232.16 41.5513 229.644 72.0959 231.821 94.8255C233.998 117.555 236.853 129.947 236.853 129.947C236.853 129.947 231.821 114.797 223.348 113.87C214.875 112.943 212.815 123.516 212.815 123.516C212.815 123.516 196.783 106.302 211.329 72.0842C211.329 72.0842 180.527 97.9116 200.797 140.39C200.797 140.39 186.718 122.824 161.3 134.312C161.3 134.312 171.376 116.863 163.933 102.511C156.49 88.1603 142.411 67.1558 146.87 49.7067C146.87 49.7067 135.764 64.7502 141.264 79.782C146.765 94.8137 158.327 104.459 132.909 133.279C132.909 133.279 133.938 113.53 118.596 102.054C103.254 90.5776 106.46 78.057 111.27 68.5287C111.27 68.5287 93.9849 84.0298 98.6777 102.511C103.371 120.993 116.197 126.274 116.197 126.274C116.197 126.274 76.2434 120.301 63.1948 140.273C63.1948 140.273 56.2082 114.105 71.6676 91.0235C71.6676 91.0235 51.7494 104.342 53.1186 128.222C53.1186 128.222 21.755 95.5061 45.2192 50.2817C45.2192 50.2817 7.93401 79.782 31.7493 135.039C31.7493 135.039 26.4011 126.156 9.1628 123.258C9.1628 123.258 24.119 134.429 29.2332 148.968C29.2332 148.968 15.7983 126.696 -9 146.445C-9 146.445 20.1518 138.219 15.7281 173H15.7164Z" fill="#009444"/>
<path d="M-203.476 173H387.004C387.004 173 387.413 163.274 394 163.019C394 163.019 380.757 158.36 371.02 168.001C371.02 168.001 369.778 154.535 381.353 152.698C381.353 152.698 368.195 148.957 362.373 153.786C362.373 153.786 371.701 141.391 359.786 122.024C353.368 109.221 349.794 103.814 352.466 93C352.466 93 343.802 102.148 347.223 112.384C350.645 122.62 356.96 132.09 351.053 140.575C345.147 149.06 342.389 151.967 341.981 153.463C341.981 153.463 342.985 139.827 335.989 134.335C328.993 128.843 322.507 124.932 322.661 119.032C322.814 113.132 326.576 106.467 326.576 106.467C326.576 106.467 316.754 114.203 316.754 127.925C316.754 141.646 328.823 147.631 328.823 147.631C328.823 147.631 315.171 143.891 308.345 150.794C308.345 150.794 311.596 149.791 313.588 151.372C313.588 151.372 305.009 153.446 303.187 156.116C303.187 156.116 301.025 133.332 284.616 139.81C268.207 146.288 279.867 161.268 279.867 161.268C279.867 161.268 275.203 156.439 271.203 157.935C271.203 157.935 270.369 146.05 249.806 161.591C249.806 161.591 267.798 140.303 252.802 125C234.741 111.601 211.591 132.481 211.012 141.051C211.012 141.051 212.34 126.836 202.11 125.833C191.88 124.83 186.535 143.806 186.535 143.806C186.535 143.806 176.798 123.759 164.712 130.832C152.627 137.905 163.623 159.533 163.623 159.533C163.623 159.533 159.129 152.137 153.137 152.222C153.137 152.222 156.882 135.593 144.984 132.175C126.242 127.431 116.676 148.141 116.676 148.141C116.676 148.141 117.425 136.256 108.676 136.001C99.9262 135.746 97.1856 150.063 97.1856 150.063C97.1856 150.063 89.6959 133.094 79.1251 140.575C68.5544 148.056 79.789 162.203 79.789 162.203C79.789 162.203 71.6354 150.233 53.0643 161.455C53.0643 161.455 66.8011 147.903 61.8137 142.581C56.8262 137.259 39.1742 147.648 39.1742 147.648C39.1742 147.648 38.6806 115.121 11.3601 123.113C-15.9604 131.104 5.02786 156.133 5.02786 156.133C5.02786 156.133 -3.21085 148.974 -14.122 150.471C-14.122 150.471 -17.203 142.241 -37.6806 153.208C-37.6806 153.208 -23.2799 130.832 -29.6803 125.51C-36.0806 120.188 -50.5834 128.18 -55.1623 134.318C-55.1623 134.318 -55.7411 92.898 -79.0614 95.4825C-117.361 101.298 -95.0452 146.968 -95.0452 146.968C-95.0452 146.968 -104.867 134.998 -118.365 138.739C-118.365 138.739 -134.179 117.536 -153.669 148.379C-153.669 148.379 -152.427 136.069 -162.248 135.746C-172.07 135.423 -172.904 150.216 -172.904 150.216C-172.904 150.216 -178.981 134.335 -189.552 139.98C-200.123 145.625 -190.641 161.931 -190.641 161.931C-190.641 161.931 -199.391 151.117 -208.038 157.935C-216.685 164.753 -203.459 172.983 -203.459 172.983L-203.476 173Z" fill="#39B54A"/>
</svg>
