<svg width="392" height="173" viewBox="0 0 392 173" fill="none" xmlns="http://www.w3.org/2000/svg">
<path d="M527.292 173C527.292 173 547.734 160.981 536.764 150C525.794 139.03 506.551 154.955 506.551 154.955C506.551 154.955 521.727 126.85 506.401 118.277C491.076 109.716 477.848 136.161 477.848 136.161C477.848 136.161 475.289 112.412 461.013 111.963C446.736 111.513 443.728 127.599 443.728 127.599C443.728 127.599 428.172 87.7643 386.689 115.95C386.689 115.95 374.971 113.023 367.527 123.843C367.527 123.843 403.375 76.9442 388.268 63.8772C373.162 50.8101 348.595 78.3039 348.595 78.3039C348.595 78.3039 356.857 43.2855 339.123 38.9298C321.389 34.5742 313.726 83.1206 313.726 83.1206C313.726 83.1206 300.348 72.3005 301.397 42.3867C302.445 12.473 289.367 -0.294452 274.479 0.00514569C259.591 0.304744 237.352 18.3382 240.959 46.754C244.565 75.1697 253.288 96.1992 253.288 96.1992C253.288 96.1992 236.603 82.6712 225.334 92.5925C214.064 102.514 217.613 120.397 217.613 120.397C217.613 120.397 211.045 109.877 199.925 116.192C199.925 116.192 191.813 100.716 179.034 100.405C166.255 100.094 159.791 123.105 159.791 123.105C159.791 123.105 158.443 99.3565 156.334 91.6937C154.225 84.0309 152.128 75.308 142.357 83.1321C132.585 90.9562 146.713 115.293 146.862 122.057C147.012 128.821 147.761 133.476 145.664 137.532C145.664 137.532 142.126 134.456 141.009 131.068C139.891 127.68 137.252 120.616 131.237 122.345C125.222 124.073 124.404 140.978 133.864 150.53C133.864 150.53 116.73 140.839 110.346 151.429C103.962 162.019 122.123 171.698 126.432 173H527.292Z" fill="#006838"/>
<path d="M80.7164 173H390.432C390.432 173 396.084 156.771 385.926 159.916C385.926 159.916 390.432 146.598 366.769 155.093C366.769 155.093 378.518 136.037 372.187 130.533C365.856 125.03 350.818 142.772 350.818 142.772C350.818 142.772 368.945 93.6755 357.266 90.0026C345.587 86.3298 336.657 108.719 336.657 108.719C336.657 108.719 338.144 44.5553 317.652 43.0533C297.16 41.5513 294.644 72.0959 296.821 94.8255C298.998 117.555 301.853 129.947 301.853 129.947C301.853 129.947 296.821 114.797 288.348 113.87C279.875 112.943 277.815 123.516 277.815 123.516C277.815 123.516 261.783 106.302 276.329 72.0842C276.329 72.0842 245.527 97.9116 265.797 140.39C265.797 140.39 251.718 122.824 226.3 134.312C226.3 134.312 236.376 116.863 228.933 102.511C221.49 88.1603 207.411 67.1558 211.87 49.7067C211.87 49.7067 200.764 64.7502 206.264 79.782C211.765 94.8137 223.327 104.459 197.909 133.279C197.909 133.279 198.938 113.53 183.596 102.054C168.254 90.5776 171.46 78.057 176.27 68.5287C176.27 68.5287 158.985 84.0298 163.678 102.511C168.371 120.993 181.197 126.274 181.197 126.274C181.197 126.274 141.243 120.301 128.195 140.273C128.195 140.273 121.208 114.105 136.668 91.0235C136.668 91.0235 116.749 104.342 118.119 128.222C118.119 128.222 86.755 95.5061 110.219 50.2817C110.219 50.2817 72.934 79.782 96.7493 135.039C96.7493 135.039 91.4011 126.156 74.1628 123.258C74.1628 123.258 89.119 134.429 94.2332 148.968C94.2332 148.968 80.7983 126.696 56 146.445C56 146.445 85.1518 138.219 80.7281 173H80.7164Z" fill="#009444"/>
<path d="M7.52397 173H598.004C598.004 173 598.413 163.274 605 163.019C605 163.019 591.757 158.36 582.02 168.001C582.02 168.001 580.778 154.535 592.353 152.698C592.353 152.698 579.195 148.957 573.373 153.786C573.373 153.786 582.701 141.391 570.786 122.024C564.368 109.221 560.794 103.814 563.466 93C563.466 93 554.802 102.148 558.223 112.384C561.645 122.62 567.96 132.09 562.053 140.575C556.147 149.06 553.389 151.967 552.981 153.463C552.981 153.463 553.985 139.827 546.989 134.335C539.993 128.843 533.507 124.932 533.661 119.032C533.814 113.132 537.576 106.467 537.576 106.467C537.576 106.467 527.754 114.203 527.754 127.925C527.754 141.646 539.823 147.631 539.823 147.631C539.823 147.631 526.171 143.891 519.345 150.794C519.345 150.794 522.596 149.791 524.588 151.372C524.588 151.372 516.009 153.446 514.187 156.116C514.187 156.116 512.025 133.332 495.616 139.81C479.207 146.288 490.867 161.268 490.867 161.268C490.867 161.268 486.203 156.439 482.203 157.935C482.203 157.935 481.369 146.05 460.806 161.591C460.806 161.591 478.798 140.303 463.802 125C445.741 111.601 422.591 132.481 422.012 141.051C422.012 141.051 423.34 126.836 413.11 125.833C402.88 124.83 397.535 143.806 397.535 143.806C397.535 143.806 387.798 123.759 375.712 130.832C363.627 137.905 374.623 159.533 374.623 159.533C374.623 159.533 370.129 152.137 364.137 152.222C364.137 152.222 367.882 135.593 355.984 132.175C337.242 127.431 327.676 148.141 327.676 148.141C327.676 148.141 328.425 136.256 319.676 136.001C310.926 135.746 308.186 150.063 308.186 150.063C308.186 150.063 300.696 133.094 290.125 140.575C279.554 148.056 290.789 162.203 290.789 162.203C290.789 162.203 282.635 150.233 264.064 161.455C264.064 161.455 277.801 147.903 272.814 142.581C267.826 137.259 250.174 147.648 250.174 147.648C250.174 147.648 249.681 115.121 222.36 123.113C195.04 131.104 216.028 156.133 216.028 156.133C216.028 156.133 207.789 148.974 196.878 150.471C196.878 150.471 193.797 142.241 173.319 153.208C173.319 153.208 187.72 130.832 181.32 125.51C174.919 120.188 160.417 128.18 155.838 134.318C155.838 134.318 155.259 92.898 131.939 95.4825C93.6389 101.298 115.955 146.968 115.955 146.968C115.955 146.968 106.133 134.998 92.6345 138.739C92.6345 138.739 76.821 117.536 57.3307 148.379C57.3307 148.379 58.5733 136.069 48.7515 135.746C38.9298 135.423 38.0957 150.216 38.0957 150.216C38.0957 150.216 32.0188 134.335 21.4481 139.98C10.8773 145.625 20.3586 161.931 20.3586 161.931C20.3586 161.931 11.6093 151.117 2.96204 157.935C-5.68519 164.753 7.54099 172.983 7.54099 172.983L7.52397 173Z" fill="#39B54A"/>
</svg>
