<svg width="1440" height="166" viewBox="0 0 1440 166" fill="none" xmlns="http://www.w3.org/2000/svg">
<path d="M-0.000206944 130V0H260C260 0 238.436 2.40635 234.027 9.15173C227.426 19.2319 234.882 34.9585 215.028 34.3521C181.92 33.3669 174.598 41.0217 174.598 41.0217C174.598 41.0217 200.732 37.5543 210.137 44.7355C210.137 44.7355 173.102 43.9397 161.959 52.523C161.959 52.523 185.661 46.1565 193.944 53.3188C193.944 53.3188 171.204 49.8513 164.577 58.6241C164.577 58.6241 180.343 53.0724 186.703 62.0157C186.703 62.0157 173.208 56.3883 164.23 63.6831C162.573 66.7716 172.327 79.0118 129.973 86.0414C87.6195 93.071 91.0132 86.7803 64.8795 98.2816C64.8795 98.2816 78.4808 94.3026 88.3945 100.593C88.3945 100.593 75.8354 94.8521 48.526 109.404C48.526 109.404 59.3749 104.023 68.3801 107.547C68.3801 107.547 52.1601 105.785 43.6894 118.025C35.2187 130.265 15.0173 121.265 -0.0536499 129.981L-0.000206944 130Z" fill="#39B54A"/>
<path d="M1440 166V0H1154C1154 0 1177.72 3.07273 1182.57 11.6861C1189.83 24.5576 1181.63 44.6393 1203.47 43.865C1239.89 42.6069 1247.94 52.3816 1247.94 52.3816C1247.94 52.3816 1219.2 47.9539 1208.85 57.1237C1208.85 57.1237 1249.59 56.1076 1261.85 67.0678C1261.85 67.0678 1235.77 58.9383 1226.66 68.084C1226.66 68.084 1251.68 63.6563 1258.96 74.8585C1258.96 74.8585 1241.62 67.7694 1234.63 79.1893C1234.63 79.1893 1249.47 72.0035 1259.35 81.3185C1261.17 85.2622 1250.44 100.892 1297.03 109.868C1343.62 118.844 1339.89 110.812 1368.63 125.498C1368.63 125.498 1353.67 120.417 1342.77 128.45C1342.77 128.45 1356.58 121.119 1386.62 139.7C1386.62 139.7 1374.69 132.829 1364.78 137.329C1364.78 137.329 1382.62 135.079 1391.94 150.709C1401.26 166.339 1423.48 154.846 1440.06 165.976L1440 166Z" fill="#39B54A"/>
<path d="M327 0H630C630 0 603.178 7.05775 600.899 18.6292C598.62 30.2006 622.43 70.9714 583.52 72.5799C544.609 74.1885 558.957 26.9836 558.957 26.9836C558.957 26.9836 539.318 49.4699 520.413 34.6979C520.413 34.6979 527.21 81.5909 488.686 74.5167C450.162 67.4426 486.041 29.8723 486.041 29.8723C486.041 29.8723 455.434 39.1787 455.434 60.3848C455.434 60.3848 450.896 36.6182 466.016 28.9204C466.016 28.9204 444.852 45.6128 418.416 35.0261C418.416 35.0261 438.054 49.1581 431.257 67.459C431.257 67.459 425.966 39.9173 395.359 37.6359C395.359 37.6359 410.846 78.7021 387.422 80.9508C363.999 83.1994 377.226 36.3064 377.226 36.3064C377.226 36.3064 368.537 47.6316 357.955 40.5246C347.372 33.4176 351.524 25.0632 351.524 25.0632C351.524 25.0632 357.955 7.71429 326.961 0.0164134L327 0Z" fill="#39B54A"/>
<path d="M1045 0H709C709 0 738.743 7.05775 741.27 18.6292C743.797 30.2006 717.394 70.9714 760.542 72.5799C803.691 74.1885 787.78 26.9836 787.78 26.9836C787.78 26.9836 809.558 49.4699 830.522 34.6979C830.522 34.6979 822.984 81.5909 865.704 74.5167C908.424 67.4426 868.638 29.8723 868.638 29.8723C868.638 29.8723 902.578 39.1787 902.578 60.3848C902.578 60.3848 907.611 36.6182 890.844 28.9204C890.844 28.9204 914.313 45.6128 943.628 35.0261C943.628 35.0261 921.851 49.1581 929.388 67.459C929.388 67.459 935.256 39.9173 969.196 37.6359C969.196 37.6359 952.022 78.7021 977.997 80.9508C1003.97 83.1994 989.303 36.3064 989.303 36.3064C989.303 36.3064 998.939 47.6316 1010.67 40.5246C1022.41 33.4176 1017.8 25.0632 1017.8 25.0632C1017.8 25.0632 1010.67 7.71429 1045.04 0.0164134L1045 0Z" fill="#39B54A"/>
</svg>
