<svg width="1440" height="241" viewBox="0 0 1440 241" fill="none" xmlns="http://www.w3.org/2000/svg">
<path d="M1362.32 78.4258C1359.82 81.4974 1357.38 85.9275 1358.32 89.0912C1359.27 92.2549 1361.68 96.083 1365.64 98.6192C1369.59 101.155 1378.28 107.131 1381.18 105.424C1384.09 103.716 1397.34 88.7817 1396.84 86.9296C1396.34 85.0775 1390.3 69.498 1387.79 67.934C1385.28 66.37 1376.12 57.8506 1372.81 60.5099C1369.49 63.1692 1365.11 74.9931 1362.32 78.4232L1362.32 78.4258Z" fill="#77672D"/>
<path d="M1232.8 140.412C1236.93 140.448 1246.82 135.928 1248.74 138.66C1250.66 141.393 1257.33 143.682 1258.17 143.448C1259.02 143.213 1264.39 143.852 1264.96 145.887C1265.54 147.922 1270.91 159.873 1269.3 163.066C1267.7 166.259 1249.08 176.765 1244.72 175.09C1240.36 173.416 1228.71 170.668 1229.05 166.714C1229.38 162.76 1221.09 152.415 1221.63 150.178C1222.17 147.941 1225.46 140.343 1232.8 140.412Z" fill="#77672D"/>
<path d="M1257.97 86.3239C1260.92 82.557 1268.86 62.6688 1277.56 63.7909C1286.26 64.913 1295.03 67.1722 1296.26 66.6658C1297.48 66.1595 1319.46 63.7773 1323.24 67.5576C1327.02 71.3379 1320.17 107.413 1310.92 113.38C1301.67 119.348 1284.2 123.656 1275.87 117.761C1267.53 111.865 1256.64 100.494 1254.41 98.4325C1252.18 96.371 1254.75 90.4472 1257.97 86.3239Z" fill="#77672D"/>
<path d="M1440 115V241H1104C1104 241 1169.54 234.196 1179.07 221.891C1188.59 209.587 1193.95 201.492 1218.98 199.542C1244.01 197.593 1278.57 209.91 1286.31 196.624C1294.05 183.339 1274.39 160.021 1320.86 151.926C1367.33 143.831 1366.15 144.799 1372.08 135.412C1378.02 126.026 1404.26 128.608 1414.38 126.348C1424.49 124.089 1437.62 124.722 1440 115Z" fill="#77672D"/>
<path d="M1387.32 162.426C1384.82 165.498 1382.38 169.928 1383.32 173.091C1384.27 176.255 1386.68 180.083 1390.64 182.619C1394.59 185.156 1403.28 191.131 1406.18 189.424C1409.09 187.717 1422.34 172.782 1421.84 170.93C1421.34 169.078 1415.3 153.498 1412.79 151.934C1410.28 150.37 1401.12 141.851 1397.81 144.51C1394.49 147.169 1390.11 158.993 1387.32 162.423L1387.32 162.426Z" fill="#A08C44"/>
<path d="M1230.9 222.401C1228.98 223.954 1226.13 229.807 1224.2 229.276C1222.27 228.745 1218.32 230.224 1218.02 230.655C1217.72 231.085 1214.99 232.833 1213.95 232.112C1212.91 231.39 1205.88 227.915 1205.41 225.828C1204.94 223.741 1209.54 211.802 1212.19 210.916C1214.84 210.029 1221.27 206.864 1222.62 208.82C1223.97 210.775 1231.74 212.396 1232.34 213.636C1232.94 214.876 1234.31 219.638 1230.9 222.401Z" fill="#A08C44"/>
<path d="M200.62 100.841C195.401 99.6548 188.578 99.3642 185.313 102.402C182.048 105.44 178.863 110.66 178.164 116.967C177.465 123.273 175.443 137.376 179.252 139.868C183.061 142.361 209.092 149.452 211.034 147.736C212.976 146.02 228.208 129.353 228.597 125.38C228.986 121.406 233.804 105.205 228.597 102.788C223.39 100.371 206.45 102.163 200.624 100.841H200.62Z" fill="#77672D"/>
<path d="M47.9328 22.3432C51.6768 18.9429 56.8165 6.64309 60.8192 7.50397C64.8219 8.36486 72.7287 4.87699 73.2947 3.96205C73.8607 3.04711 79.2248 -0.845763 81.435 0.507819C83.6451 1.8614 98.4297 8.14495 99.6407 12.356C100.852 16.5671 92.8394 41.5164 87.5205 43.6386C82.2016 45.7609 69.4284 52.9839 66.4416 49.1442C63.4547 45.3044 47.3751 42.8992 46.0019 40.4344C44.6287 37.9695 41.2655 28.3929 47.9328 22.3432Z" fill="#77672D"/>
<path d="M137.505 10.4721C143.256 11.5852 169.365 9.14711 172.995 19.2563C176.624 29.3655 179.055 40.1871 180.289 41.2382C181.523 42.2893 196.382 64.9225 194.369 71.1492C192.355 77.3759 149.211 90.0363 137.547 83.2835C125.884 76.5306 111.442 59.8899 113.218 47.5123C114.993 35.1348 121.312 16.917 122.316 13.3383C123.32 9.75964 131.21 9.25396 137.505 10.4721Z" fill="#77672D"/>
<path d="M0 69.0001V241H336C336 241 270.458 231.712 260.935 214.915C251.412 198.119 246.045 187.068 221.016 184.407C195.987 181.746 161.434 198.559 153.693 180.424C145.951 162.288 165.614 130.458 119.14 119.407C72.6672 108.356 73.8547 109.678 67.9171 96.8645C61.9795 84.051 35.7398 87.5764 25.6231 84.4917C15.5063 81.4069 2.37504 82.2713 0 69.0001Z" fill="#77672D"/>
<path d="M222.334 234.532C219.359 233.218 210.833 233.345 210.268 230.803C209.703 228.262 205.568 224.554 204.884 224.457C204.201 224.36 200.508 222.23 200.707 220.605C200.906 218.98 200.624 208.809 202.752 207.042C204.88 205.274 221.532 203.617 224.183 206.168C226.834 208.719 234.439 214.307 233 217.012C231.561 219.716 234.444 229.658 233.376 231.079C232.307 232.499 227.63 236.873 222.334 234.532Z" fill="#A08C44"/>
<path d="M80.7012 166.837C77.2645 168.914 65.1057 182.155 58.6131 178.682C52.1204 175.209 45.9104 170.822 44.7994 170.854C43.6885 170.887 25.7282 166.205 23.8902 162.113C22.0523 158.02 38.1767 131.75 47.2129 129.824C56.2492 127.897 71.2432 129.723 76.0291 136.835C80.8151 143.946 85.9751 156.116 87.1091 158.398C88.2432 160.68 84.4629 164.563 80.7012 166.837Z" fill="#A08C44"/>
</svg>
