<svg width="594" height="498" viewBox="0 0 594 498" fill="none" xmlns="http://www.w3.org/2000/svg">
<path d="M18.1683 143.962C11.2667 146.091 3.0969 150.354 1.33942 156.119C-0.418059 161.885 -0.605131 170.157 2.84907 178.026C6.30326 185.895 13.4915 203.801 19.6299 204.155C25.7684 204.509 60.9867 195.265 62.094 191.942C63.2012 188.619 69.7121 158.794 67.4759 153.871C65.2398 148.948 59.8978 126.694 52.1769 127.372C44.4561 128.05 25.8762 141.579 18.1729 143.96L18.1683 143.962Z" fill="#ADBBBD"/>
<path fill-rule="evenodd" clip-rule="evenodd" d="M20.9853 150.419L20.2317 150.651C17.2224 151.58 14.0984 152.931 11.6677 154.528C9.0633 156.238 8.20789 157.594 8.03527 158.16C6.72094 162.472 6.53613 169.01 9.25874 175.212C9.57696 175.937 9.91559 176.72 10.2728 177.545C11.96 181.444 14.0611 186.3 16.3811 190.562C17.7891 193.148 19.0954 195.166 20.2129 196.467C20.4559 196.75 20.6554 196.959 20.8115 197.11C21.1787 197.074 21.6294 197.018 22.1661 196.94C23.5311 196.742 25.266 196.427 27.2753 196.009C31.286 195.176 36.15 193.988 40.8851 192.68C45.6402 191.367 50.1201 189.973 53.404 188.745C54.4607 188.35 55.3179 188 55.981 187.704C56.2354 186.655 56.5422 185.323 56.8784 183.787C57.5916 180.529 58.4197 176.432 59.1437 172.299C59.8723 168.139 60.4734 164.067 60.7613 160.812C60.9061 159.176 60.9585 157.887 60.9345 156.967C60.926 156.642 60.9089 156.423 60.8955 156.291C60.3027 154.88 59.6245 152.859 58.9732 150.919C58.8464 150.542 58.7206 150.167 58.5966 149.8C57.6661 147.048 56.6178 144.039 55.4371 141.25C54.2206 138.377 53.0457 136.185 52.0018 134.854C51.9201 134.75 51.845 134.658 51.7763 134.577C50.9089 134.838 49.5698 135.347 47.6943 136.238C45.0081 137.514 41.9215 139.227 38.6473 141.102C37.7176 141.634 36.7656 142.184 35.8083 142.737C33.4951 144.073 31.1504 145.427 29.0132 146.598C26.3811 148.04 23.5537 149.494 21.0614 150.375L20.9853 150.419ZM18.1729 143.96C21.4483 142.948 26.6901 139.92 32.2275 136.721C39.7132 132.398 47.739 127.762 52.1769 127.372C58.2564 126.839 62.861 140.522 65.6357 148.768C66.3848 150.994 67.0005 152.824 67.4759 153.871C69.7121 158.794 63.2012 188.619 62.094 191.942C60.9867 195.265 25.7684 204.509 19.6299 204.155C14.012 203.831 7.51486 188.806 3.80548 180.227C3.46176 179.433 3.14199 178.693 2.84907 178.026C-0.605131 170.157 -0.418059 161.885 1.33942 156.119C3.0969 150.354 11.2667 146.091 18.1683 143.962L18.1729 143.96ZM51.2271 134.029C51.2271 134.026 51.2544 134.042 51.309 134.088C51.2545 134.056 51.2271 134.033 51.2271 134.029Z" fill="#574B1E"/>
<path d="M320.962 9.89856C244.217 2.38163 135.621 -19.4419 131.982 43.0194C128.344 105.481 94.7974 193.037 85.5363 204.381C76.2751 215.725 28.9812 268.207 41.249 304.275C53.5169 340.344 112.949 417.6 150.964 430.406C188.979 443.212 486.636 495.688 515.655 497.104C544.675 498.52 601.943 231.776 592.881 192.369C583.819 152.962 519.257 68.2823 471.512 51.7343C423.768 35.1863 320.962 9.89856 320.962 9.89856Z" fill="#ADBBBD"/>
<path fill-rule="evenodd" clip-rule="evenodd" d="M155.658 16.5525C145.735 22.0769 139.733 30.3401 138.971 43.4264C137.101 75.5185 127.604 113.672 117.532 145.011C112.48 160.733 107.237 174.881 102.648 185.865C100.355 191.353 98.2019 196.106 96.2959 199.897C94.4667 203.535 92.6413 206.747 90.9587 208.808C90.2522 209.674 89.3564 210.742 88.307 211.995C82.178 219.307 70.8098 232.872 61.319 248.663C55.7744 257.888 51.0538 267.588 48.4308 276.937C45.8011 286.309 45.4224 294.807 47.8762 302.021C53.5984 318.845 70.8795 346.393 91.8334 371.588C102.229 384.088 113.339 395.778 124.088 405.073C134.948 414.465 144.973 421.001 153.199 423.772C162.178 426.797 187.385 432.387 221.277 439.167C254.922 445.898 296.552 453.693 337.923 461.137C379.291 468.58 420.369 475.666 452.904 480.978C485.02 486.221 508.256 489.638 515.552 490.088C515.741 489.975 516.093 489.732 516.617 489.241C517.951 487.99 519.661 485.8 521.669 482.441C525.658 475.768 530.063 465.794 534.665 453.222C543.837 428.172 553.358 394.034 561.735 358.441C570.104 322.881 577.28 286.081 581.795 255.776C584.053 240.617 585.633 227.169 586.371 216.358C587.128 205.282 586.935 197.745 586.059 193.937C584.028 185.104 578.703 173.139 570.773 159.643C562.906 146.255 552.713 131.76 541.304 117.935C529.891 104.105 517.353 91.0551 504.832 80.5001C492.239 69.8839 480.01 62.0879 469.22 58.3483C445.626 50.1708 408.224 39.7717 376.54 31.3775C360.736 27.1905 346.419 23.519 336.053 20.8942C330.87 19.5819 326.677 18.5316 323.78 17.8097C322.331 17.4488 321.207 17.17 320.446 16.9816C320.176 16.9148 319.952 16.8594 319.775 16.8157C309.78 15.8306 299.38 14.6276 288.825 13.4068C258.253 9.87055 226.387 6.18465 199.323 7.21212C181.079 7.90472 166.097 10.7408 155.658 16.5525ZM320.962 9.89856C311.113 8.93389 300.739 7.73359 290.13 6.50605C218.073 -1.83162 135.154 -11.426 131.982 43.0194C128.344 105.481 94.7974 193.037 85.5363 204.381C84.8732 205.194 84.0153 206.217 82.9982 207.429C69.8086 223.156 29.8595 270.789 41.249 304.275C53.5169 340.344 112.949 417.6 150.964 430.406C188.979 443.212 486.636 495.688 515.655 497.104C544.675 498.52 601.943 231.776 592.881 192.369C583.819 152.962 519.257 68.2823 471.512 51.7343C423.768 35.1863 320.962 9.89856 320.962 9.89856Z" fill="#574B1E"/>
<path d="M227.977 189.83C223.247 189.83 217.187 188.54 214.757 186.07C213.897 185.2 213.547 184.29 213.437 183.54C213.037 182.84 211.817 181.25 210.897 180.06C206.527 174.38 200.547 166.61 203.467 160.57C205.247 156.9 210.437 154.62 218.287 151.18C227.607 147.1 239.197 142.01 246.067 133.69C253.297 124.93 266.057 115.42 277.317 107.03C286.247 100.38 294.677 94.09 298.837 89.37C302.417 85.3 306.307 79.75 310.057 74.37C317.097 64.3 323.177 55.6 328.927 53.35C330.387 52.78 331.917 52.49 333.467 52.49C339.797 52.49 344.657 57.23 346.517 59.36C347.807 59.62 350.077 59.77 351.977 59.9C357.807 60.3 364.407 60.74 368.137 63.99C371.407 66.83 373.007 71.06 372.317 75.02C371.617 79.06 368.667 82.38 364.207 84.13C362.627 84.75 359.977 85.64 356.627 86.77C343.537 91.18 319.167 99.39 309.977 107.68C304.507 112.61 294.137 121.11 283.167 130.1C269.917 140.96 256.217 152.18 251.677 156.73C247.797 160.62 245.747 167.54 243.937 173.65C242.077 179.93 240.467 185.35 236.837 187.68C234.617 189.1 231.627 189.83 227.967 189.83H227.977Z" fill="#9AACAE"/>
<path d="M333.467 55.99C339.657 55.99 344.507 62.42 344.507 62.42C348.407 63.98 361.317 62.69 365.847 66.63C370.377 70.58 370.497 77.91 362.937 80.88C355.377 83.85 319.787 94.14 307.637 105.09C295.487 116.04 257.617 145.84 249.207 154.26C240.797 162.69 240.417 181.22 234.947 184.73C233.157 185.88 230.597 186.32 227.967 186.32C222.567 186.32 216.857 184.44 216.877 182.88C216.917 180.56 203.667 168.18 206.607 162.1C209.547 156.02 236.167 151.18 248.757 135.93C261.347 120.68 291.607 102.87 301.457 91.69C311.307 80.51 322.547 59.62 330.197 56.62C331.307 56.18 332.407 56 333.457 56M333.457 49C331.467 49 329.517 49.37 327.647 50.11C320.907 52.75 314.547 61.85 307.187 72.39C303.487 77.68 299.657 83.16 296.207 87.08C292.287 91.53 283.997 97.71 275.217 104.25C263.237 113.18 250.857 122.41 243.357 131.49C237.017 139.17 225.847 144.06 216.877 148C208.307 151.76 202.647 154.24 200.307 159.07C196.447 167.05 203.187 175.81 208.107 182.21C208.787 183.1 209.677 184.25 210.137 184.93C210.497 186.26 211.217 187.5 212.247 188.54C215.977 192.33 223.877 193.34 227.957 193.34C232.297 193.34 235.917 192.43 238.717 190.64C243.447 187.61 245.227 181.61 247.287 174.66C248.977 168.95 250.897 162.48 254.147 159.22C258.557 154.8 272.807 143.12 285.377 132.82C296.377 123.8 306.767 115.29 312.307 110.3C320.967 102.5 345.797 94.13 357.737 90.11C361.137 88.97 363.817 88.06 365.477 87.41C371.097 85.2 374.847 80.91 375.757 75.64C376.647 70.48 374.607 65.01 370.427 61.37C365.817 57.35 358.587 56.86 352.207 56.43C351.007 56.35 349.397 56.24 348.237 56.1C345.567 53.35 340.267 49 333.457 49Z" fill="#626F72"/>
<path d="M181.727 219.06C180.827 219.06 180.037 218.81 179.377 218.32C177.347 216.79 170.677 202.89 173.007 194.26C175.257 185.93 185.467 178.51 191.927 178.51C192.357 178.51 192.787 178.54 193.187 178.61C196.567 179.16 198.657 183.2 202.377 190.89C203.277 192.74 204.447 195.18 205.127 196.25C206.067 196.68 206.947 197.52 207.447 198.9C208.567 201.98 207.667 208.87 204.457 211.55C201.317 214.17 184.507 219.06 181.727 219.06Z" fill="#9AACAE"/>
<path d="M191.917 182C192.167 182 192.397 182.02 192.617 182.05C195.727 182.55 201.587 199.36 203.367 199.36C203.367 199.36 203.377 199.36 203.387 199.36C203.397 199.36 203.407 199.36 203.417 199.36C205.137 199.36 204.547 206.91 202.207 208.85C199.977 210.7 184.047 215.55 181.727 215.55C181.597 215.55 181.517 215.54 181.467 215.5C180.687 214.91 174.427 202.39 176.377 195.15C178.237 188.27 187.237 181.99 191.917 181.99M191.917 174.99C184.107 174.99 172.287 183.45 169.617 193.33C168.417 197.79 168.967 203.43 171.277 210.11C172.407 213.39 174.687 219.18 177.267 221.1C178.147 221.76 179.637 222.55 181.727 222.55C183.817 222.55 187.877 221.55 194.117 219.57C204.067 216.42 205.837 214.94 206.687 214.23C211.317 210.37 212.187 201.73 210.727 197.7C210.117 196.01 209.037 194.63 207.687 193.69C207.067 192.56 206.167 190.69 205.517 189.35C201.777 181.6 199.067 176 193.737 175.13C193.147 175.04 192.537 174.99 191.917 174.99Z" fill="#626F72"/>
<path d="M263.037 376.57C260.157 376.57 258.007 375.68 256.657 373.92C255.287 372.14 254.977 369.74 255.727 366.79C255.867 363.78 251.227 347.72 247.127 333.53C244.577 324.72 241.697 314.73 239.077 305.06C231.737 277.92 204.267 243.59 201.127 240.79C196.987 237.69 197.587 231.38 198.127 229.4C198.987 226.23 202.137 225.51 207.837 224.22C208.907 223.98 210.087 223.71 211.377 223.4C213.387 222.92 213.937 221.49 214.637 218.57C215.087 216.69 215.597 214.56 217.647 213.51C219.527 212.55 221.397 212.06 223.207 212.06C233.577 212.06 237.117 226.58 239.227 235.26L239.597 236.78C240.227 239.31 241.247 242.45 242.327 245.77C244.497 252.45 247.197 260.77 248.277 268.86C249.247 276.15 253.927 288.6 258.057 299.59C260.307 305.56 262.417 311.21 263.807 315.62C267.727 328.17 276.687 344.58 280.067 348.97C284.497 354.73 285.527 358.26 285.087 366.17C284.627 374.37 277.777 374.95 272.777 375.38C271.027 375.53 269.217 375.68 267.447 376.06C265.777 376.41 264.337 376.58 263.047 376.58L263.037 376.57Z" fill="#9AACAE"/>
<path d="M223.197 215.56C231.387 215.56 234.487 230.81 236.187 237.63C238.147 245.46 243.227 257.59 244.797 269.33C246.367 281.07 256.537 304.16 260.447 316.68C264.357 329.2 273.357 346.03 277.277 351.11C281.187 356.2 281.977 358.94 281.577 365.98C281.177 373.02 274.147 371.07 266.707 372.63C265.247 372.94 264.037 373.08 263.027 373.08C258.897 373.08 258.297 370.69 259.137 367.55C260.177 363.64 250.277 333.12 242.447 304.16C234.617 275.2 205.667 239.79 203.247 238.03C200.827 236.27 201.097 231.77 201.487 230.33C201.877 228.9 205.657 228.37 212.187 226.81C218.707 225.24 217.417 217.57 219.227 216.64C220.667 215.9 221.987 215.57 223.187 215.57M223.187 208.57C220.817 208.57 218.417 209.19 216.037 210.41C212.557 212.19 211.717 215.68 211.217 217.77C211.057 218.45 210.787 219.55 210.547 220.01C209.267 220.32 208.107 220.58 207.047 220.82C200.957 222.2 196.147 223.29 194.727 228.5C193.977 231.24 193.297 239.16 198.817 243.47C202.857 247.42 228.697 280.19 235.677 305.99C238.297 315.69 241.187 325.69 243.737 334.52C247.557 347.74 251.867 362.67 252.177 366.48C251.127 371.21 252.487 374.29 253.857 376.07C255.267 377.9 257.997 380.09 263.017 380.09C264.547 380.09 266.227 379.89 268.137 379.49C269.707 379.16 271.407 379.02 273.047 378.88C275.987 378.63 279.017 378.37 281.797 377.03C285.877 375.07 288.277 371.28 288.557 366.38C289.037 357.66 287.757 353.28 282.807 346.85C279.487 342.53 270.777 326.33 267.117 314.6C265.707 310.09 263.567 304.4 261.307 298.38C257.247 287.57 252.637 275.31 251.717 268.42C250.597 260.02 247.837 251.53 245.627 244.71C244.567 241.44 243.567 238.36 242.957 235.95C242.837 235.49 242.717 234.98 242.587 234.45C240.387 225.41 236.297 208.58 223.167 208.58L223.187 208.57Z" fill="#626F72"/>
<path d="M326.863 225.915C321.941 227.597 317.399 226.964 313.345 224.021C303.699 217.021 294.415 201.067 294.518 194.279L294.553 192.043L296.387 190.751C300.313 187.984 309.803 181.438 313.069 180.322C313.557 180.155 314.026 180.048 314.464 180.005C317.044 179.763 319.696 181.215 322.512 182.756C323.56 183.33 324.984 184.109 325.559 184.272C328.234 185.05 331.009 187.991 337.134 195.008C339.014 197.163 340.791 199.206 342.268 200.726C345.312 203.868 346.42 208.671 345.243 213.561C344.329 217.39 342.274 220.103 339.64 221.003C338.401 221.427 337.11 221.428 335.92 221.022C335.349 221.337 334.603 221.805 333.957 222.212C332.019 223.434 329.609 224.95 326.831 225.899L326.863 225.915Z" fill="#9AABAE"/>
<path d="M314.519 184.488C314.674 184.436 314.805 184.391 314.912 184.394C317.002 184.199 321.83 187.771 324.369 188.502C326.912 189.244 334.419 198.906 339.149 203.79C343.185 207.965 340.876 215.933 338.254 216.829C337.801 216.983 337.354 216.923 336.918 216.619C336.461 216.296 335.868 216.312 335.152 216.556C332.888 217.33 329.442 220.372 325.437 221.741C322.493 222.747 319.24 222.846 315.931 220.447C306.746 213.783 298.86 199.002 298.936 194.355C298.936 194.355 311.48 185.527 314.507 184.493M311.654 176.144C308.853 177.101 302.863 180.799 293.85 187.142L290.181 189.728L290.104 194.216C289.957 203.057 300.573 220.22 310.748 227.599C314.377 230.235 320.364 232.797 328.278 230.093C331.544 228.978 334.303 227.236 336.328 225.957C336.459 225.873 336.602 225.784 336.745 225.695C338.192 225.84 339.664 225.67 341.094 225.181C345.194 223.78 348.284 219.928 349.565 214.602C351.09 208.234 349.567 201.908 345.471 197.674C344.07 196.221 342.254 194.138 340.485 192.118C334.148 184.867 330.89 181.292 326.937 180.086C326.489 179.906 325.377 179.3 324.641 178.899C321.369 177.113 317.981 175.261 314.06 175.628C313.26 175.702 312.469 175.879 311.646 176.16L311.654 176.144Z" fill="#626F72"/>
<path d="M389.332 191.997C387.926 192.478 386.484 192.424 385.193 191.88C384.581 192.155 383.852 192.551 383.141 192.927C381.511 193.804 379.472 194.887 377.219 195.656C371.594 197.579 366.616 196.762 362.418 193.242C353.301 185.568 345.175 168.992 345.78 162.233L345.974 159.995L347.893 158.834C350.014 157.563 360.748 151.151 364.633 149.824C365.42 149.555 366.068 149.427 366.714 149.406C369.302 149.347 371.848 150.995 374.543 152.725C375.547 153.367 376.912 154.246 377.48 154.465C380.1 155.434 382.646 158.56 388.264 166.004C389.99 168.291 391.62 170.451 392.987 172.075C395.661 175.264 396.481 179.925 395.206 184.529C394.152 188.299 391.958 191.073 389.336 191.969L389.332 191.997Z" fill="#9AABAE"/>
<path d="M366.064 154.01C366.386 153.9 366.644 153.838 366.815 153.833C368.914 153.782 373.469 157.686 375.954 158.609C378.439 159.531 385.241 169.7 389.607 174.921C393.278 179.314 390.552 186.919 387.906 187.823C387.405 187.994 386.915 187.922 386.47 187.554C385.965 187.127 385.22 187.169 384.314 187.478C382.229 188.191 379.206 190.329 375.809 191.49C372.412 192.651 368.801 192.832 365.272 189.869C356.588 182.567 349.774 167.261 350.185 162.619C350.185 162.619 362.441 155.248 366.076 154.006M363.223 145.657C359.147 147.05 349.563 152.696 345.645 155.06L341.803 157.371L341.411 161.834C340.639 170.636 349.982 188.514 359.616 196.61C363.369 199.763 369.718 202.881 378.669 199.823C381.256 198.939 383.461 197.759 385.239 196.805C385.385 196.729 385.532 196.652 385.691 196.571C387.362 196.866 389.102 196.737 390.783 196.163C394.847 194.774 398.008 190.977 399.473 185.722C401.148 179.715 400.001 173.554 396.387 169.248C395.1 167.703 393.426 165.492 391.805 163.355C385.997 155.67 383.009 151.87 379.157 150.375C378.725 150.163 377.664 149.474 376.952 149.024C373.813 147.007 370.571 144.918 366.636 145.011C365.541 145.039 364.451 145.238 363.235 145.653L363.223 145.657Z" fill="#626F72"/>
<path d="M418.861 403.111C413.295 405.013 406.238 404.653 402.936 399.588C378.926 365.158 354.709 293.971 343.069 259.749C340.473 252.152 338.452 246.156 337.289 243.184C336.408 240.914 336.399 238.826 337.25 236.99C338.429 234.443 340.791 233.37 342.698 232.718C343.21 232.543 343.755 232.384 344.319 232.204C344.788 232.057 345.261 231.922 345.738 231.759C346 231.67 346.262 231.58 346.504 231.471L346.659 231.418L346.834 231.345C348.133 230.901 349.548 231.03 350.792 231.71C352.52 232.638 355.412 234.208 366.364 264.349C371.927 279.657 377.615 297.199 379.898 306.062C384.303 323.163 414.931 372.794 422.138 380.68C428.975 388.147 429.361 394.808 423.306 400.46C423.187 400.58 423.065 400.689 422.954 400.793C422.009 401.729 420.625 402.508 418.849 403.115L418.861 403.111Z" fill="#9AABAE"/>
<path d="M344.136 236.888C345.078 236.567 346.139 236.284 347.164 235.934C347.534 235.807 347.891 235.685 348.237 235.527L348.26 235.519C351.967 234.253 371.057 289.344 375.64 307.157C380.239 325.018 410.989 375.007 418.895 383.653C426.8 392.3 421.701 395.84 419.867 397.639C419.408 398.089 418.527 398.55 417.419 398.928C414.082 400.069 408.675 400.411 406.578 397.118C377.49 355.46 347.76 258.013 341.384 241.571C340.262 238.678 341.863 237.638 344.116 236.869M341.252 228.524C339.774 229.029 335.364 230.536 333.252 235.107C332.3 237.15 331.521 240.48 333.179 244.748C334.3 247.641 336.322 253.597 338.902 261.146C350.603 295.547 374.934 367.068 399.286 402.034C403.897 409.023 413.128 409.705 420.291 407.257C422.699 406.434 424.642 405.304 426.069 403.911C426.148 403.831 426.239 403.746 426.33 403.662C427.762 402.32 431.116 399.203 431.872 393.977C432.632 388.682 430.467 383.202 425.413 377.683C417.929 369.492 388.195 320.529 384.187 304.943C381.875 295.956 376.13 278.247 370.526 262.82C358.993 231.093 355.893 229.421 352.905 227.805C350.553 226.531 347.895 226.307 345.427 227.15L345.118 227.256L344.78 227.398C344.673 227.435 344.522 227.5 344.331 227.565C343.914 227.707 343.489 227.826 343.079 227.953C342.463 228.137 341.871 228.312 341.299 228.508L341.252 228.524Z" fill="#626F72"/>
<path d="M458.599 362.735C453.247 364.563 448.397 363.73 445.6 360.49C419.675 332.375 389.034 271.174 374.308 241.75C371.039 235.221 368.466 230.067 367.056 227.539C365.905 225.455 365.642 223.44 366.257 221.538C367.261 218.478 370.131 217.178 372.215 216.226C372.894 215.914 373.553 215.622 374.048 215.32L374.445 215.078L374.957 214.903C379.141 213.473 381.996 217.426 385.875 223.639C388.541 227.896 392.01 234.036 395.911 241.401C403.061 254.887 410.647 270.542 413.951 278.617C420.016 293.446 453.676 334.303 461.133 340.505C468.421 346.566 469.611 352.699 464.679 358.753L464.406 359.085C462.884 361.057 460.117 362.229 458.591 362.751L458.599 362.735Z" fill="#9AABAE"/>
<path d="M376.392 219.061C379.753 217.913 403.58 264.859 409.873 280.276C416.219 295.809 450.12 337.062 458.322 343.889C466.521 350.705 462.356 354.525 460.924 356.373C460.368 357.082 458.921 357.95 457.169 358.548C454.356 359.51 450.769 359.763 448.879 357.545C417.524 323.586 378.675 239.418 370.899 225.386C368.746 221.5 373.223 220.929 376.32 219.085C376.344 219.077 376.368 219.069 376.392 219.061ZM373.539 210.712C372.931 210.92 372.344 211.187 371.793 211.522C371.507 211.7 370.92 211.967 370.388 212.202C367.875 213.34 363.683 215.252 362.068 220.146C361.363 222.291 360.979 225.686 363.193 229.671C364.55 232.124 367.111 237.243 370.359 243.711C385.17 273.307 415.977 334.837 442.316 363.423C446.347 368.013 452.941 369.316 460.033 366.893C462.465 366.062 465.802 364.496 467.912 361.75C467.968 361.678 468.035 361.602 468.11 361.51C474.581 353.571 473.071 344.671 463.958 337.089C456.225 330.661 423.554 290.399 418.045 276.925C414.7 268.731 407.029 252.905 399.826 239.304C395.885 231.86 392.356 225.62 389.633 221.276C386.141 215.69 381.342 208.033 373.547 210.696L373.539 210.712Z" fill="#626F72"/>
<path d="M480.49 312.314C476.449 313.695 472.728 313.128 470.272 310.771C447.319 289.951 418.249 242.891 404.265 220.272C401.171 215.269 398.73 211.322 397.433 209.394C395.922 207.153 395.947 205.2 396.24 203.955C396.915 201.06 399.31 199.696 401.059 198.699C401.559 198.408 402.039 198.137 402.391 197.884L402.934 197.485L403.649 197.241C407.352 195.962 410.057 199.087 413.767 203.986C416.238 207.244 419.469 211.947 423.141 217.592C429.849 227.913 437.06 239.94 440.298 246.186C446.206 257.593 476.003 287.808 482.41 292.225C487.048 295.436 491.574 300.735 486.793 307.816L486.619 308.089C485.344 310.083 482.631 311.569 480.509 312.294L480.49 312.314Z" fill="#9AABAE"/>
<path d="M405.063 201.419C407.793 200.487 430.208 236.328 436.367 248.235C442.594 260.266 472.805 290.992 479.893 295.883C486.969 300.777 483.9 304.143 482.889 305.741C482.413 306.489 480.863 307.525 479.075 308.136C477.061 308.824 474.74 308.965 473.299 307.552C445.645 282.518 408.355 217.636 401.099 206.916C399.088 203.954 402.651 203.163 404.996 201.456C405.02 201.448 405.052 201.423 405.075 201.415M402.223 193.067C401.365 193.36 400.551 193.784 399.814 194.316C399.664 194.42 399.196 194.687 398.895 194.856C396.868 196.015 393.076 198.163 391.966 202.938C391.472 205.038 391.402 208.298 393.803 211.86C395.06 213.708 397.476 217.624 400.538 222.571C414.619 245.357 443.879 292.738 467.286 313.989C470.925 317.434 476.382 318.366 481.924 316.473C483.676 315.874 488.016 314.085 490.322 310.473L490.437 310.301C495.592 302.679 493.526 294.567 484.904 288.616C478.316 284.061 449.528 254.46 444.203 244.173C440.911 237.812 433.603 225.618 426.823 215.202C423.11 209.478 419.799 204.695 417.272 201.35C413.871 196.851 409.207 190.68 402.211 193.071L402.223 193.067Z" fill="#626F72"/>
</svg>
