<svg width="158" height="333" viewBox="0 0 158 333" fill="none" xmlns="http://www.w3.org/2000/svg">
<path fill-rule="evenodd" clip-rule="evenodd" d="M50.352 30.2443C50.3561 30.3636 50.1715 31.5178 50.9523 34.4687C51.8853 37.9944 53.7121 42.2985 56.0412 47.0531C57.5333 50.0992 59.0215 52.9237 60.4873 55.7058C61.3589 57.36 62.2226 58.9992 63.0745 60.6611C64.1444 62.7483 65.1835 64.8555 66.0027 66.7842C66.7332 68.5041 67.6719 70.9393 67.9645 73.4332C68.2144 75.5634 67.8722 77.5361 67.6325 78.6949C67.3504 80.0589 66.9393 81.4995 66.4854 82.9164C65.5755 85.7569 64.2614 89.2138 62.726 93.0457C61.0018 97.349 58.8353 102.522 56.4358 108.251C54.6086 112.614 52.6462 117.3 50.6412 122.17C41.1939 145.115 30.0969 173.809 23.2972 201.989L16.794 228.94L13.5584 222.336C10.1413 226.876 6.18107 230.905 2.00093 234.695C-2.01616 238.337 -6.45469 241.944 -10.9013 245.558C-11.6302 246.151 -12.3592 246.743 -13.0866 247.336C-18.3453 251.622 -23.7335 256.094 -29.1836 261.223C-32.8399 264.663 -33.3706 267.485 -33.1254 269.829C-32.8192 272.757 -31.0697 276.516 -27.4889 280.651C-23.9926 284.688 -19.3607 288.361 -14.7334 291.061C-9.88814 293.887 -6.09735 295.042 -4.34588 295.166C2.03348 295.617 7.60357 298.45 11.8675 301.044C14.0742 302.387 16.215 303.85 18.1459 305.182C18.4075 305.362 18.6648 305.54 18.9184 305.715C20.608 306.882 22.1311 307.935 23.6536 308.912C27.2861 311.244 29.6984 312.32 31.4548 312.604C32.5662 312.785 33.6355 312.742 35.3982 311.334C36.5278 310.432 38.2833 307.781 39.4716 301.603C40.5962 295.755 40.8989 288.441 40.7481 280.457C40.6203 273.691 40.1818 266.869 39.7688 260.444C39.697 259.327 39.6259 258.222 39.5574 257.131C39.1224 250.204 38.72 243.083 39.2589 238.144C39.8185 233.015 42.412 224.19 45.5581 214.545C48.8405 204.481 53.1361 192.333 57.6557 179.917C63.0863 164.998 69.0544 149.121 73.9627 136.063C77.1014 127.714 79.8066 120.517 81.6607 115.461C87.8359 98.622 101.223 88.8625 112.623 81.9387C115.4 80.2521 118.172 78.6704 120.741 77.2051L121.041 77.0337C123.742 75.4926 126.19 74.0912 128.446 72.6965C133.107 69.8164 136.009 67.5155 137.657 65.403C137.666 65.391 137.674 65.3801 137.682 65.3701C137.652 65.2005 137.565 64.8561 137.307 64.3146C136.382 62.3719 134.116 59.6872 130.58 56.9777C127.147 54.3469 123.352 52.3338 120.374 51.322C119.602 51.0597 118.99 50.901 118.537 50.8072C113.233 53.9189 107.343 52.8799 103.754 51.747C99.2727 50.3324 94.728 47.6977 90.642 44.8528C82.3536 39.082 73.6992 30.8466 67.4814 23.5642C65.8078 21.604 64.4743 21.0526 63.6543 20.8695C62.7583 20.6694 61.5406 20.7089 59.9065 21.3474C56.404 22.7159 52.5923 26.2609 50.352 30.2443ZM117.571 50.6836C117.57 50.6823 117.598 50.6806 117.659 50.6823C117.603 50.6858 117.572 50.6849 117.571 50.6836ZM11.0144 171.685C17.5508 150.873 25.3749 131.004 32.1474 114.555C34.2779 109.381 36.2723 104.62 38.0958 100.268C40.4191 94.7227 42.4648 89.8399 44.1608 85.6071C45.6577 81.8712 46.7541 78.9526 47.4387 76.8153C47.6371 76.196 47.7816 75.7013 47.8843 75.3167C47.8098 75.1232 47.7149 74.8866 47.5945 74.6033C47.0642 73.3549 46.2907 71.7628 45.2766 69.7845C44.6272 68.5176 43.8587 67.0572 43.031 65.484C41.4581 62.4949 39.6713 59.099 38.0803 55.8514C35.6018 50.7917 33.0674 45.0632 31.6178 39.5848C30.2921 34.575 29.1761 27.3017 32.6647 20.9009C36.6574 13.5754 43.8158 6.16203 52.6278 2.71893C57.1843 0.938598 62.4903 0.116887 68.0134 1.35034C73.6124 2.60074 78.5933 5.77766 82.6916 10.5776C88.0177 16.8157 95.4342 23.8192 102.07 28.4393C105.401 30.7589 108.007 32.103 109.707 32.6532C112.798 30.8766 116.075 30.6214 118.308 30.6928C121.241 30.7867 124.179 31.492 126.808 32.3852C132.108 34.1859 137.812 37.3221 142.746 41.1032C147.577 44.8054 152.544 49.795 155.364 55.7147C158.394 62.0782 159.153 70.3614 153.427 77.7035C149.486 82.7553 144.02 86.5833 138.961 89.7098C136.358 91.3183 133.608 92.8896 130.953 94.4047L130.733 94.5302C128.106 96.0293 125.544 97.4911 123.005 99.0328C112.426 105.458 104.155 112.21 100.438 122.347C98.3978 127.91 95.635 135.257 92.4741 143.662C87.6719 156.431 81.951 171.644 76.4493 186.758C71.9558 199.103 67.7502 211.003 64.5722 220.747C61.2578 230.908 59.4317 237.648 59.1409 240.313C58.8296 243.167 59.045 248.343 59.5181 255.877C59.5832 256.914 59.652 257.982 59.7226 259.078C60.1351 265.485 60.6074 272.819 60.7445 280.079C60.9043 288.537 60.6298 297.487 59.1116 305.38C57.6571 312.942 54.7041 321.51 47.8814 326.96C41.692 331.904 34.9225 333.427 28.2555 332.347C22.2335 331.371 16.9277 328.361 12.8491 325.742C11.0183 324.567 9.18947 323.303 7.52435 322.152C7.27543 321.98 7.03017 321.811 6.78911 321.645C4.86138 320.315 3.13873 319.145 1.47049 318.13C-2.01541 316.008 -4.2412 315.223 -5.75691 315.116C-11.9005 314.681 -18.7913 311.848 -24.8122 308.335C-31.0511 304.695 -37.47 299.676 -42.6071 293.744C-47.6598 287.91 -52.1263 280.425 -53.017 271.909C-53.9687 262.808 -50.6769 253.985 -42.8894 246.657C-36.8959 241.017 -31.0499 236.175 -25.7222 231.833C-24.9523 231.206 -24.1971 230.592 -23.4561 229.989C-18.979 226.349 -15.0159 223.127 -11.432 219.878C-3.22281 212.435 1.77724 205.902 3.85224 197.294L10.3519 170.333L11.0144 171.685ZM110.699 32.8943C110.702 32.8986 110.653 32.8969 110.542 32.8768C110.641 32.88 110.696 32.8901 110.699 32.8943ZM48.0892 74.4011C48.0904 74.3997 48.0872 74.4295 48.076 74.494C48.0824 74.4345 48.088 74.4025 48.0892 74.4011Z" fill="#241F0B"/>
<path d="M13.5762 199.643C27.5548 141.712 58.9604 82.5067 58.0326 74.5984C57.1048 66.69 35.2313 37.0876 41.4452 25.6865C47.6592 14.2855 63.5426 3.55052 75.0865 17.0709C86.6304 30.5914 107.228 47.5487 114.185 41.6774C121.141 35.8061 156.718 57.2248 145.542 71.5533C134.366 85.8818 100.942 91.9278 91.0493 118.904C81.1565 145.88 50.9005 223.642 49.1999 239.228C47.4993 254.814 57.5442 306.441 41.6398 319.147C25.7355 331.853 10.7387 306.257 -5.0514 305.141C-20.8415 304.024 -58.9239 275.476 -36.0365 253.94C-13.1492 232.403 8.06201 222.501 13.5737 199.638L13.5762 199.643Z" fill="#FBF3D6"/>
<path fill-rule="evenodd" clip-rule="evenodd" d="M57.5409 15.2932C52.2678 17.3535 47.3154 22.2297 44.5184 27.3615C43.6422 28.9691 43.5243 31.8071 44.6686 36.1314C45.7694 40.2918 47.8262 45.0588 50.2039 49.9125C51.7273 53.0224 53.3079 56.0237 54.8109 58.8778C55.6712 60.5113 56.506 62.0965 57.2902 63.6262C58.342 65.678 59.2947 67.6178 60.02 69.3254C60.7143 70.9599 61.331 72.6751 61.5087 74.1905C61.6339 75.2574 61.4697 76.3994 61.2672 77.3784C61.0499 78.4292 60.7132 79.6287 60.2952 80.9335C59.4586 83.5455 58.2152 86.8275 56.6923 90.6282C54.9773 94.9085 52.8506 99.986 50.4757 105.656C48.6493 110.016 46.6762 114.727 44.6307 119.695C35.1604 142.696 23.9015 171.774 16.9786 200.464L14.7024 209.897L14.1425 208.754C10.4167 217.026 4.55092 223.61 -2.36478 229.879C-6.24067 233.393 -10.5242 236.875 -14.9807 240.497C-15.7138 241.093 -16.4517 241.693 -17.1932 242.298C-22.4743 246.602 -28.0113 251.194 -33.638 256.489C-38.6369 261.193 -40.0649 265.965 -39.5902 270.505C-39.0941 275.249 -36.4615 280.219 -32.4023 284.906C-28.3728 289.559 -23.1601 293.669 -18.009 296.675C-12.7817 299.725 -7.98338 301.424 -4.80447 301.649C-0.00579693 301.989 4.4774 304.156 8.4885 306.597C10.5202 307.833 12.5251 309.201 14.4549 310.532C14.7102 310.708 14.964 310.884 15.2164 311.058C16.8977 312.22 18.5198 313.34 20.1422 314.382C23.9196 316.807 27.2723 318.511 30.4151 319.021C33.332 319.493 36.2538 318.97 39.4553 316.412C42.4351 314.032 44.5798 309.458 45.8546 302.83C47.1072 296.318 47.4006 288.473 47.2469 280.334C47.1161 273.408 46.6666 266.42 46.2538 260C46.1823 258.89 46.112 257.797 46.0446 256.724C45.5973 249.599 45.2556 243.11 45.7206 238.849C46.1927 234.521 48.5369 226.374 51.7377 216.56C54.9862 206.601 59.2525 194.533 63.7636 182.14C69.2171 167.159 75.103 151.502 79.9769 138.538C83.124 130.167 85.849 122.919 87.7633 117.699C93.1398 103.038 104.864 94.2561 115.997 87.4943C118.697 85.8548 121.401 84.3122 123.986 82.8371L124.263 82.6792C126.949 81.1466 129.494 79.69 131.864 78.2258C136.653 75.2657 140.389 72.4684 142.782 69.4007C144.549 67.1345 144.642 64.5996 143.175 61.5197C141.635 58.2844 138.491 54.8506 134.534 51.8184C130.613 48.8138 126.197 46.4357 122.465 45.1675C120.591 44.5309 119.032 44.2229 117.876 44.1859C116.777 44.1507 116.431 44.367 116.429 44.3637C116.429 44.3636 116.429 44.3639 116.429 44.3637C113.278 47.0125 109.139 46.6308 105.711 45.5485C102.134 44.4194 98.2113 42.2027 94.356 39.5184C86.6048 34.1216 78.3527 26.2866 72.4247 19.3436C69.963 16.4604 67.4442 15.0558 65.071 14.5258C62.6712 13.9898 60.1248 14.2836 57.5409 15.2932ZM12.5426 189.578C19.6174 163.438 29.6632 137.661 38.1579 117.03C40.2473 111.955 42.2317 107.218 44.0568 102.861C46.4049 97.2561 48.4894 92.2803 50.1945 88.0246C51.7039 84.2575 52.871 81.164 53.6289 78.7982C54.0082 77.6141 54.2647 76.6741 54.4123 75.9606C54.5346 75.3693 54.5492 75.083 54.5529 75.011C54.5541 74.9873 54.5541 74.9868 54.5564 75.0062C54.5022 74.5445 54.2324 73.6047 53.5772 72.0621C52.953 70.5926 52.0932 68.8331 51.0609 66.8194C50.3476 65.4279 49.5461 63.9052 48.7011 62.3C47.1605 59.3733 45.4755 56.1722 43.9176 52.9919C41.4877 48.0314 39.1832 42.7658 37.9015 37.9221C36.6632 33.2423 36.1413 28.1045 38.3721 24.0116C41.789 17.7423 47.8853 11.5505 54.9934 8.77319C58.6001 7.36396 62.5774 6.79646 66.5966 7.69407C70.6425 8.5976 74.438 10.9212 77.7483 14.7983C83.3642 21.3758 91.183 28.7796 98.3558 33.7737C101.963 36.2849 105.215 38.0516 107.818 38.8732C110.564 39.7402 111.602 39.2774 111.927 39.0027C113.75 37.4642 116.098 37.1254 118.1 37.1895C120.177 37.256 122.452 37.77 124.717 38.5396C129.262 40.0839 134.346 42.8551 138.792 46.2624C143.202 49.642 147.291 53.8825 149.495 58.5097C151.773 63.2922 152.122 68.8077 148.302 73.7058C145.106 77.8024 140.473 81.1341 135.544 84.1805C133.053 85.7195 130.402 87.2356 127.732 88.7591L127.483 88.9012C124.877 90.388 122.247 91.8885 119.631 93.4772C108.785 100.065 98.8516 107.794 94.3353 120.109C92.3559 125.506 89.6106 132.808 86.4557 141.198C81.6191 154.061 75.8196 169.485 70.3414 184.535C65.8394 196.902 61.6045 208.884 58.3926 218.731C55.1329 228.725 53.0574 236.142 52.6793 239.608C52.2939 243.139 52.5702 248.948 53.0309 256.285C53.0971 257.339 53.1666 258.419 53.2376 259.522C53.6503 265.935 54.1116 273.103 54.2457 280.202C54.4025 288.506 54.1189 296.924 52.7286 304.152C51.3606 311.265 48.7968 317.909 43.8244 321.882C39.0737 325.677 34.1567 326.718 29.2953 325.931C24.6596 325.179 20.2942 322.798 16.3606 320.273C14.6305 319.162 12.9015 317.967 11.2287 316.811C10.9778 316.638 10.7282 316.465 10.4801 316.294C8.55132 314.964 6.69277 313.699 4.84953 312.577C1.11075 310.302 -2.20194 308.851 -5.29833 308.632C-10.0145 308.298 -15.8978 306.011 -21.5366 302.721C-27.2517 299.387 -33.0898 294.805 -37.6937 289.489C-42.268 284.207 -45.8515 277.933 -46.5522 271.233C-47.2743 264.328 -44.8799 257.455 -38.4351 251.391C-32.6181 245.917 -26.9209 241.195 -21.6156 236.871C-20.8594 236.255 -20.1125 235.648 -19.3752 235.048C-14.9079 231.417 -10.7907 228.07 -7.06629 224.693C1.56116 216.872 7.65364 209.261 10.1712 198.818L12.4461 189.381L12.5426 189.578Z" fill="black"/>
</svg>
