<svg width="108" height="266" viewBox="0 0 108 266" fill="none" xmlns="http://www.w3.org/2000/svg">
<path fill-rule="evenodd" clip-rule="evenodd" d="M163.032 84.065C158.429 93.3776 149.212 101.305 141.792 104.887C136.367 107.506 129.066 111.43 122.084 115.88C114.954 120.424 108.809 125.108 105.171 129.159C105.174 129.156 105.175 129.155 105.175 129.155C105.176 129.155 104.907 129.483 104.565 130.501C104.201 131.585 103.867 133.108 103.603 135.193C103.117 139.035 102.994 143.584 102.844 149.104C102.826 149.762 102.807 150.434 102.788 151.121C102.453 163.033 101.901 179.227 94.7377 192.255C89.827 201.186 85.2463 214.875 80.7578 228.289C80.4351 229.254 80.1129 230.217 79.7911 231.176C77.491 238.035 75.1877 244.768 72.9612 249.991C71.8546 252.587 70.6163 255.174 69.2296 257.349C68.1472 259.046 65.7727 262.504 61.6986 264.108C56.4359 266.18 51.3322 265.064 47.5037 262.357C44.2201 260.036 42.1061 256.762 40.7653 254.2C38.0132 248.939 36.4369 242.561 35.6845 238.432C35.4181 236.969 34.0835 234.353 31.476 230.318C31.148 229.81 30.7819 229.252 30.402 228.673C29.5676 227.401 28.6671 226.027 27.9589 224.869C27.4131 223.976 26.5514 222.554 25.8401 220.885C24.5834 220.107 22.7428 219.176 20.6049 218.216C18.4656 217.254 16.3111 216.388 14.6685 215.754C13.8539 215.44 13.1805 215.19 12.7171 215.02C12.4858 214.935 12.3077 214.87 12.1915 214.829L12.0651 214.783L12.039 214.774L12.0373 214.773L12.0363 214.773L0.18042 210.589L6.92444 199.984L6.9254 199.982L6.92691 199.98L6.92835 199.978L6.94168 199.957C6.95881 199.929 6.9884 199.882 7.0297 199.816C7.11233 199.683 7.24177 199.473 7.41231 199.193C7.75356 198.631 8.2582 197.786 8.88077 196.702C10.1285 194.529 11.8359 191.421 13.6459 187.729C17.3356 180.202 21.1557 170.838 22.6761 162.229C23.1975 159.277 23.9142 155.639 24.7301 151.496C26.8565 140.701 29.6569 126.484 31.4316 112.074C32.648 102.197 33.3025 92.7544 32.9324 84.8759C32.542 76.5667 31.0683 71.7727 29.5606 69.6744C21.2424 58.0974 18.6965 43.0828 20.4815 30.5454C22.1602 18.7544 28.7043 4.4251 43.3573 1.68051C60.7044 -1.56871 78.7812 4.68489 90.7678 18.7029L91.6265 18.1638L96.775 27.298C99.5434 32.2096 105.685 35.7163 116.667 39.2521C119.863 40.2808 122.889 41.1502 126.09 42.0698C128.438 42.7442 130.88 43.4456 133.551 44.2567C139.421 46.0391 145.657 48.152 151.455 51.0467C158.264 54.4462 163.339 59.5361 165.242 66.3912C167.072 72.9861 165.409 79.2545 163.032 84.065ZM85.8875 45.3819C93.0119 52.0494 102.384 55.6645 110.538 58.2897C113.849 59.3556 117.586 60.4339 121.155 61.4635C123.476 62.1332 125.725 62.7823 127.74 63.3939C133.294 65.0804 138.249 66.8076 142.522 68.9408C144.184 69.7705 145.049 70.5077 145.474 70.969C145.864 71.3926 145.944 71.6444 145.97 71.74C146.029 71.9526 146.196 72.9905 145.102 75.2035C142.762 79.9381 137.136 84.9264 133.098 86.8761C127.065 89.7885 119.066 94.087 111.335 99.0141C103.752 103.847 95.7693 109.695 90.2906 115.796C85.8401 120.752 84.4246 127.44 83.7614 132.684C83.142 137.581 82.9925 143.207 82.8513 148.519C82.8331 149.205 82.815 149.885 82.796 150.558C82.4373 163.304 81.669 174.514 77.2123 182.619C71.3758 193.233 66.2316 208.641 61.9521 221.458C61.5708 222.6 61.1964 223.721 60.829 224.817C59.1163 229.924 57.556 234.487 56.1135 238.278C55.8126 237.103 55.5586 235.933 55.3606 234.847C54.2692 228.856 50.5657 223.009 48.2737 219.463C47.7533 218.657 47.2914 217.954 46.8716 217.315C46.1612 216.233 45.5714 215.335 45.023 214.438C44.5779 213.709 44.3705 213.306 44.2944 213.16C43.4483 209.947 41.4134 207.858 40.4779 206.968C39.2239 205.775 37.8238 204.797 36.6254 204.041C34.4685 202.681 31.9594 201.421 29.6666 200.366C30.2913 199.166 30.9416 197.884 31.6043 196.532C35.613 188.354 40.3714 177.031 42.3713 165.708C42.7989 163.287 43.437 160.047 44.1917 156.214C46.3318 145.348 49.4094 129.721 51.2817 114.519C52.5593 104.144 53.3566 93.4355 52.9103 83.9374C52.4843 74.87 50.8735 65.0615 45.8028 58.0042C40.9642 51.2701 39.1023 41.6495 40.2818 33.3645C41.5676 24.3331 45.3603 21.6532 47.0394 21.3386C59.136 19.0729 72.2707 24.5642 79.3465 37.1207L84.4946 46.2564L85.8875 45.3819ZM52.0004 247.103C51.9998 247.096 52.0452 247.034 52.139 246.933C52.0479 247.059 52.001 247.109 52.0004 247.103Z" fill="#241F0B"/>
<path d="M88.0584 32.2114C78.8945 15.9493 61.5305 8.45047 45.1984 11.5096C28.8663 14.5687 24.5248 45.5282 37.6817 63.8393C50.8386 82.1505 36.044 144.037 32.5237 163.968C29.0034 183.9 15.3666 205.344 15.3666 205.344C15.3666 205.344 33.84 211.863 34.6431 215.788C35.4463 219.712 44.1647 229.186 45.5226 236.639C46.8804 244.092 50.936 257.598 58.0356 254.803C65.1352 252.008 74.3548 208.57 85.975 187.437C97.5952 166.304 88.6149 132.63 97.731 122.478C106.847 112.326 125.986 101.413 137.445 95.8816C148.904 90.3501 167.131 70.0495 146.988 59.9937C126.846 49.938 97.7444 49.3838 88.0635 32.2082L88.0584 32.2114Z" fill="#FBF3D6"/>
<path fill-rule="evenodd" clip-rule="evenodd" d="M157.653 81.4066C153.729 89.3457 145.589 96.3916 139.184 99.4839C133.576 102.191 126.066 106.227 118.859 110.82C111.593 115.451 104.897 120.484 100.707 125.15C99.2967 126.721 98.2558 129.657 97.6508 134.44C97.1251 138.597 96.9935 143.466 96.8463 148.912C96.8282 149.583 96.8098 150.263 96.7905 150.952C96.4482 163.114 95.8316 177.813 89.4801 189.364C84.2933 198.797 79.5469 212.99 75.1306 226.197C74.7859 227.228 74.4432 228.252 74.1025 229.268C71.789 236.167 69.559 242.672 67.4418 247.638C66.3858 250.115 65.2978 252.355 64.1706 254.123C63.1651 255.7 61.6629 257.674 59.5008 258.525C56.3308 259.773 53.3385 259.134 50.9672 257.458C48.8139 255.936 47.2393 253.631 46.0817 251.418C43.7382 246.939 42.2957 241.244 41.5874 237.356C41.0734 234.535 39.0281 230.95 36.5153 227.061C36.1344 226.472 35.7376 225.867 35.3416 225.263C34.5376 224.038 33.7368 222.817 33.0781 221.739C32.2572 220.397 31.3063 218.739 30.8584 217.14C30.8484 217.13 30.8379 217.12 30.8268 217.11C30.5136 216.812 29.9711 216.396 29.1591 215.884C27.549 214.869 25.3624 213.775 23.0642 212.743C20.7929 211.722 18.5305 210.813 16.8268 210.156C15.9776 209.829 15.2734 209.566 14.7841 209.387C14.5395 209.297 14.349 209.228 14.2212 209.182L14.0778 209.131L14.0436 209.119L14.0362 209.116L14.035 209.116L9.29215 207.442L11.9907 203.198L11.9912 203.198L11.9961 203.19L12.0202 203.152C12.0339 203.13 12.0523 203.101 12.0752 203.064C12.0897 203.041 12.1061 203.014 12.1243 202.985C12.2178 202.835 12.3585 202.607 12.5406 202.307C12.905 201.707 13.4347 200.82 14.0837 199.69C15.3829 197.428 17.1546 194.202 19.0334 190.37C22.8188 182.648 26.9204 172.696 28.5847 163.273C29.0772 160.484 29.7707 156.963 30.5691 152.909C32.7016 142.082 35.5831 127.452 37.3866 112.807C38.6214 102.781 39.3187 92.9587 38.9258 84.5944C38.5247 76.0577 37.0099 69.7594 34.4333 66.1734C27.1589 56.0492 24.8183 42.6528 26.4216 31.3911C27.9824 20.428 33.7011 9.59351 44.4619 7.57795C61.2365 4.43597 78.9025 11.4067 89.3326 26.6885L89.4887 26.5904L91.5481 30.2441C95.5598 37.3614 103.834 41.4236 114.829 44.9634C118.057 46.0027 121.283 46.9307 124.596 47.8839C126.945 48.5597 129.338 49.2481 131.807 49.9978C137.582 51.7514 143.434 53.7487 148.775 56.4149C154.52 59.2831 158.132 63.2116 159.46 67.9959C160.759 72.676 159.645 77.3753 157.653 81.4066ZM86.91 37.6554C92.9838 45.3939 102.721 49.4697 112.377 52.5784C115.651 53.6325 119.161 54.6439 122.621 55.6413C124.96 56.3152 127.276 56.9828 129.483 57.6527C135.132 59.368 140.471 61.2109 145.202 63.5725C149.528 65.7323 151.19 68.1123 151.752 70.1354C152.342 72.2626 151.96 74.8697 150.481 77.862C147.462 83.9699 140.759 89.8401 135.706 92.2794C129.855 95.1038 122.066 99.2899 114.56 104.074C107.112 108.82 99.6811 114.319 94.7548 119.805C91.6073 123.31 90.3522 128.39 89.714 133.437C89.1349 138.016 88.993 143.315 88.8494 148.68C88.8311 149.362 88.8129 150.044 88.7936 150.727C88.442 163.223 87.7386 175.928 82.4699 185.509C76.9128 195.616 71.9408 210.497 67.607 223.468C67.2393 224.569 66.8762 225.656 66.5176 226.725C64.1863 233.677 62.054 239.876 60.0826 244.501C59.0942 246.82 58.2064 248.597 57.4252 249.822C56.8317 250.753 56.4818 251.07 56.4217 251.134C56.1362 251.224 55.9537 251.186 55.5853 250.926C54.939 250.469 54.0836 249.456 53.1702 247.71C51.3715 244.272 50.1073 239.487 49.4578 235.922C48.6139 231.29 45.621 226.412 43.2344 222.719C42.7766 222.011 42.3414 221.348 41.9293 220.72C41.1752 219.571 40.4986 218.54 39.9038 217.567C39.4582 216.838 39.1181 216.236 38.8779 215.745C38.7596 215.504 38.6783 215.315 38.6248 215.173C38.5755 215.043 38.5615 214.983 38.5614 214.983L38.5619 214.986C38.2097 213.265 37.0888 212.025 36.3417 211.314C35.4909 210.505 34.4584 209.768 33.4256 209.117C31.346 207.805 28.7637 206.533 26.3432 205.446C24.5426 204.636 22.7643 203.9 21.2392 203.293C22.583 200.938 24.3492 197.701 26.2168 193.891C30.1298 185.909 34.6067 175.173 36.4627 164.664C36.9177 162.088 37.5797 158.727 38.3537 154.797C40.4917 143.941 43.4841 128.746 45.3266 113.785C46.5859 103.56 47.3404 93.2312 46.9169 84.2189C46.5016 75.379 44.932 67.0749 40.9301 61.5053C35.0476 53.3183 32.9806 42.0794 34.3417 32.5187C35.7454 22.6595 40.3635 16.4847 45.9348 15.4412C60.5727 12.6994 76.245 19.3953 84.5737 34.1751L86.6329 37.8294L86.91 37.6554ZM31.0191 217.316C31.018 217.316 31.0076 217.304 30.991 217.279C31.012 217.304 31.0203 217.316 31.0191 217.316Z" fill="black"/>
</svg>
