<svg width="181" height="430" viewBox="0 0 181 430" fill="none" xmlns="http://www.w3.org/2000/svg">
<path fill-rule="evenodd" clip-rule="evenodd" d="M23.9943 46.8024C20.8653 52.4386 19.9137 60.7974 21.2902 67.8601C21.382 68.3307 22.343 70.4836 27.1948 73.9517C31.6522 77.1379 37.7233 80.2613 44.5089 83.3223C48.8558 85.2833 53.0726 87.0386 57.1637 88.7415C59.5569 89.7377 61.907 90.7159 64.215 91.707C67.1958 92.987 70.0786 94.2806 72.5425 95.5559C74.805 96.7269 77.5483 98.2952 79.6472 100.3C81.3397 101.917 82.4878 103.882 83.2081 105.241C84.0266 106.784 84.8071 108.555 85.5525 110.413C87.0458 114.135 88.6725 118.904 90.4234 124.362C92.392 130.499 94.645 137.916 97.1491 146.16C99.0641 152.465 101.126 159.254 103.32 166.323C113.58 199.38 127.239 240.28 145.12 276.852L157.298 301.759L151.792 299.276C153.032 309.026 152.378 318.766 150.965 328.591C149.906 335.955 148.371 343.653 146.809 351.491C146.552 352.777 146.295 354.068 146.039 355.362C144.2 364.652 142.367 374.353 141.057 384.846C140.051 392.894 142.323 397.65 145.624 400.883C149.344 404.527 155.441 407.231 163.394 408.56C171.22 409.867 179.895 409.674 187.623 408.4C195.599 407.085 201.374 404.821 204.068 402.894C210.536 398.268 218.268 396.468 224.973 395.49C228.412 394.988 231.909 394.664 235.164 394.378C235.601 394.339 236.033 394.302 236.461 394.265C239.305 394.017 241.947 393.786 244.52 393.474C250.594 392.736 254.821 391.678 257.692 389.992C259.999 388.638 261.787 386.703 262.655 382.534C263.358 379.158 262.326 373.707 257.978 365.777C253.792 358.142 247.409 349.779 240.091 341.272C233.879 334.051 227.277 327.045 221.127 320.518C220.06 319.386 219.007 318.268 217.971 317.167C211.268 310.031 204.78 303.017 201.197 297.581C197.509 291.987 192.596 280.622 187.363 267.375C181.968 253.719 175.801 236.912 169.624 219.584C162.183 198.708 154.528 176.499 148.213 158.18C144.158 146.415 140.656 136.255 138.118 129.082C130.252 106.845 135.55 85.5718 141.572 68.1894C143.036 63.9638 144.589 59.8475 146.047 55.982L146.212 55.5458C147.738 51.5015 149.144 47.7589 150.352 44.1808C152.825 36.8612 154.092 31.2598 153.962 26.7955C153.917 25.2345 153.404 23.9054 150.345 22.4845C146.839 20.8566 141.323 19.9782 134.8 20.2237C128.406 20.4644 122.114 21.7458 117.568 23.4777C115.421 24.2953 114.016 25.081 113.237 25.6489C111.202 32.9416 104.829 36.7833 100.028 38.7331C94.4927 40.9807 87.725 42.146 80.9811 42.7091C67.3522 43.8472 51.0876 42.7296 38.2093 40.4847C33.9476 39.7419 31.1445 40.3947 29.2437 41.3645C27.2736 42.3697 25.4804 44.1255 23.9943 46.8024ZM112.727 26.0782C112.725 26.0779 112.745 26.0535 112.796 26.0057C112.755 26.0546 112.729 26.0784 112.727 26.0782ZM116.009 261.197C102.819 230.268 92.3622 198.489 84.2189 172.252C81.9272 164.868 79.8423 158.001 77.9311 151.706C75.4857 143.653 73.3248 136.536 71.3793 130.471C69.6601 125.112 68.2089 120.896 66.9905 117.859C66.38 116.338 65.8961 115.285 65.5385 114.61C65.5261 114.587 65.5141 114.564 65.5024 114.543C65.1436 114.309 64.4713 113.898 63.3494 113.318C61.5418 112.382 59.1921 111.316 56.3237 110.084C54.4238 109.269 52.2613 108.367 49.9537 107.406C45.6475 105.611 40.8364 103.606 36.2847 101.553C29.1895 98.3524 21.665 94.5831 15.5644 90.2223C9.85803 86.1433 3.29852 80.0948 1.65963 71.6862C-0.42503 60.9906 0.647081 47.6525 6.50821 37.0949C9.51717 31.6748 13.9606 26.7095 20.1539 23.5495C26.4165 20.3541 33.7035 19.3977 41.6437 20.7818C53.1694 22.7909 67.6946 23.749 79.3169 22.7785C85.1986 22.2873 89.6718 21.3523 92.5027 20.2027C93.334 19.8651 93.8558 19.585 94.1658 19.3906C95.3373 14.9395 98.3829 11.855 100.831 9.9572C103.653 7.76905 107.049 6.08255 110.447 4.788C117.285 2.18304 125.764 0.549753 134.048 0.23791C142.202 -0.0690699 151.269 0.861943 158.769 4.34536C166.715 8.0358 173.631 15.1198 173.954 26.2135C174.192 34.404 171.923 42.8172 169.301 50.5808C167.962 54.5442 166.432 58.6103 164.924 62.6054L164.792 62.9551C163.31 66.8841 161.842 70.7738 160.47 74.7358C154.763 91.2111 151.487 106.904 156.973 122.412C159.691 130.094 163.244 140.407 167.318 152.228C173.53 170.258 180.952 191.797 188.463 212.868C194.614 230.125 200.693 246.684 205.964 260.027C211.396 273.779 215.571 283.048 217.895 286.573C220.323 290.257 225.427 295.893 232.547 303.472C233.545 304.534 234.574 305.625 235.626 306.742C241.765 313.255 248.719 320.633 255.253 328.229C262.88 337.095 270.328 346.7 275.515 356.162C280.541 365.328 284.423 376.1 282.235 386.61C280.213 396.325 274.978 403.036 267.817 407.24C261.22 411.113 253.531 412.527 246.931 413.328C243.994 413.685 240.981 413.947 238.166 414.192C237.744 414.229 237.327 414.265 236.915 414.301C233.663 414.587 230.675 414.87 227.86 415.28C222.056 416.127 218.206 417.371 215.704 419.161C209.428 423.65 200.195 426.597 190.875 428.134C181.307 429.711 170.397 430.007 160.099 428.287C149.928 426.588 139.362 422.746 131.628 415.17C123.475 407.183 119.502 396.044 121.211 382.366C122.614 371.133 124.563 360.855 126.42 351.478C126.686 350.13 126.95 348.807 127.209 347.504C128.779 339.627 130.193 332.529 131.169 325.744C133.415 310.124 133.07 297.744 127.146 285.636L114.96 260.723L116.009 261.197ZM94.5598 19.0929C94.5635 19.094 94.5396 19.1218 94.4767 19.1731C94.5246 19.1174 94.5561 19.0918 94.5598 19.0929Z" fill="#241F0B"/>
<path d="M136.136 281.245C99.6638 206.646 80.7629 115.195 72.7399 107.531C64.717 99.8676 14.9362 87.5315 11.4749 69.7732C8.01369 52.0148 15.5225 26.3794 39.9265 30.6333C64.3305 34.8872 101.506 34.7847 103.756 22.3016C106.005 9.81848 163.221 1.19505 163.958 26.5045C164.695 51.814 134.193 88.0026 147.546 125.747C160.898 163.491 197.522 273.838 209.546 292.077C221.57 310.317 278.226 356.803 272.445 384.572C266.665 412.341 227.826 398.195 209.886 411.027C191.946 423.859 125.705 427.058 131.134 383.606C136.562 340.154 150.529 310.678 136.129 281.241L136.136 281.245Z" fill="#FBF3D6"/>
<path fill-rule="evenodd" clip-rule="evenodd" d="M18.3113 43.6474C14.2944 50.8831 13.3036 60.8602 14.9103 69.1036C15.5049 72.154 18.2854 75.573 23.4149 79.2396C28.4064 82.8076 34.9499 86.1409 41.836 89.2473C46.2481 91.2376 50.6513 93.0712 54.8156 94.8053C57.1853 95.7921 59.4777 96.7467 61.6503 97.6796C64.5946 98.9439 67.3041 100.164 69.5547 101.329C71.7349 102.457 73.771 103.676 75.1575 105C76.0758 105.877 76.8311 107.089 77.4655 108.286C78.1342 109.547 78.8183 111.084 79.5199 112.833C80.9238 116.333 82.4935 120.922 84.2341 126.347C86.1951 132.46 88.4177 139.779 90.9026 147.961C92.8167 154.263 94.8865 161.078 97.1122 168.25C107.39 201.364 121.169 242.662 139.281 279.707L143.543 288.425L142.652 288.023C146.852 300.892 146.517 313.862 144.531 327.666C143.499 334.841 142.004 342.343 140.439 350.194C140.182 351.486 139.922 352.788 139.663 354.099C137.818 363.418 135.947 373.306 134.607 384.04C133.373 393.918 136.197 400.748 141.075 405.526C146.1 410.448 153.649 413.522 162.323 414.971C170.953 416.413 180.354 416.186 188.68 414.813C197.093 413.427 203.991 410.94 207.85 408.181C213.029 404.476 219.499 402.857 225.911 401.922C229.147 401.45 232.479 401.139 235.733 400.853C236.162 400.815 236.59 400.778 237.015 400.741C239.85 400.494 242.612 400.253 245.304 399.926C251.549 399.168 256.9 397.994 260.983 395.598C264.868 393.317 267.776 389.83 269.019 383.858C270.204 378.165 268.246 370.984 263.678 362.652C259.166 354.424 252.437 345.657 245.019 337.033C238.702 329.69 231.986 322.564 225.839 316.041C224.777 314.914 223.732 313.805 222.709 312.716C215.869 305.436 209.832 298.87 206.624 294.004C203.379 289.081 198.706 278.398 193.408 264.987C188.053 251.432 181.915 234.706 175.747 217.401C168.283 196.462 160.705 174.475 154.424 156.25C150.362 144.464 146.842 134.252 144.246 126.914C137.153 106.864 141.795 87.4046 147.714 70.317C149.148 66.1776 150.673 62.1356 152.138 58.2514L152.293 57.8402C153.813 53.8119 155.26 49.9641 156.511 46.2608C159.032 38.7969 160.625 32.2816 160.459 26.6063C160.324 21.9472 157.73 18.7477 153.082 16.5893C148.279 14.3583 141.609 13.4628 134.556 13.7283C127.548 13.9922 120.544 15.3879 115.254 17.4035C112.601 18.4141 110.519 19.5275 109.103 20.626C107.626 21.7711 107.26 22.5896 107.2 22.9222C106.31 27.8636 102.098 30.8767 97.5819 32.7107C92.9259 34.6014 86.9039 35.6919 80.4402 36.2316C67.4635 37.3152 51.7642 36.2495 39.3255 34.0813C33.8683 33.13 29.6079 33.8815 26.2895 35.5746C22.9469 37.2801 20.2924 40.079 18.3113 43.6474ZM128.871 274.128C112.532 238.918 99.9389 200.973 90.4268 170.325C88.1669 163.043 86.0891 156.201 84.1765 149.902C81.712 141.787 79.5216 134.573 77.5686 128.486C75.8391 123.095 74.3309 118.699 73.0232 115.439C72.3688 113.808 71.7885 112.522 71.2812 111.565C71.0286 111.089 70.8111 110.727 70.6303 110.461C70.5411 110.33 70.4679 110.232 70.4115 110.163C70.3838 110.129 70.3619 110.104 70.3462 110.087C70.3304 110.07 70.3223 110.062 70.3224 110.062C69.7031 109.471 68.4286 108.628 66.3371 107.545C64.3162 106.499 61.7933 105.359 58.8884 104.112C56.8586 103.24 54.6319 102.313 52.2921 101.338C48.0524 99.5716 43.4412 97.6507 38.9576 95.6281C31.963 92.4728 24.9109 88.9134 19.3443 84.9343C13.9157 81.0539 9.17565 76.2715 8.03958 70.4427C6.18504 60.9278 7.21802 49.208 12.1912 40.2498C14.7052 35.7213 18.2873 31.799 23.1081 29.3394C27.9531 26.8673 33.7828 26.0096 40.5276 27.1852C52.4928 29.2709 67.5834 30.2809 79.8577 29.2559C86.0197 28.7414 91.2386 27.7315 94.9482 26.2251C98.7975 24.662 100.077 22.981 100.311 21.6809C100.813 18.8928 102.728 16.7111 104.813 15.094C106.959 13.4305 109.722 12.0199 112.761 10.8621C118.854 8.54091 126.623 7.02202 134.292 6.73329C141.916 6.44625 149.829 7.3602 156.031 10.2405C162.389 13.1934 167.224 18.407 167.456 26.4026C167.66 33.3821 165.716 40.8815 163.143 48.5008C161.846 52.339 160.356 56.2999 158.843 60.3111L158.699 60.6915C157.225 64.598 155.73 68.5609 154.328 72.6082C148.519 89.3783 144.586 106.885 150.845 124.579C153.504 132.096 157.042 142.361 161.11 154.166C167.356 172.29 174.852 194.043 182.341 215.051C188.5 232.331 194.607 248.97 199.918 262.415C205.286 276.003 209.701 285.953 212.468 290.151C215.272 294.404 220.825 300.488 227.81 307.923C228.82 308.998 229.857 310.097 230.914 311.219C237.056 317.737 243.896 324.994 250.325 332.468C257.852 341.218 264.954 350.419 269.816 359.287C274.621 368.051 277.577 377.094 275.872 385.285C274.225 393.198 270.11 398.356 264.527 401.634C259.14 404.797 252.577 406.095 246.147 406.875C243.329 407.218 240.437 407.469 237.613 407.715C237.189 407.752 236.766 407.789 236.346 407.826C233.093 408.112 229.939 408.408 226.921 408.849C220.825 409.738 215.713 411.162 211.922 413.874C206.81 417.53 198.701 420.256 189.818 421.72C180.848 423.199 170.665 423.462 161.17 421.876C151.72 420.297 142.606 416.825 136.177 410.527C129.6 404.085 126.181 395.02 127.661 383.172C129.034 372.179 130.945 362.089 132.796 352.74C133.059 351.41 133.321 350.097 133.579 348.799C135.146 340.935 136.6 333.642 137.603 326.669C139.93 310.49 139.738 296.584 132.985 282.779L128.72 274.06L128.871 274.128Z" fill="black"/>
</svg>
