<svg width="167" height="246" viewBox="0 0 167 246" fill="none" xmlns="http://www.w3.org/2000/svg">
<path fill-rule="evenodd" clip-rule="evenodd" d="M11.0761 230.395C5.91981 220.249 4.99162 206.877 6.71629 197.997C8.01872 191.291 9.40714 182.005 10.1026 172.645C10.8111 163.111 10.7371 154.267 9.49898 148.081C9.38251 147.499 8.52517 145.578 4.74612 141.933C1.55775 138.857 -2.51808 135.636 -7.3871 131.789C-7.97174 131.327 -8.56783 130.856 -9.17517 130.375C-19.7439 122.007 -33.7294 110.767 -40.5121 95.8389C-45.3126 85.2737 -54.6451 71.8165 -63.6997 58.7601C-64.3619 57.8053 -65.0225 56.8526 -65.6798 55.9034C-70.3254 49.1946 -74.821 42.6163 -78.0048 37.1354C-79.5883 34.4094 -81.049 31.6164 -82.041 28.9934C-82.8328 26.8999 -84.2119 22.7602 -83.0267 18.4198C-81.4733 12.7304 -77.3725 9.17249 -72.7062 7.65793C-68.6748 6.34939 -64.526 6.61752 -61.3909 7.12206C-54.9702 8.15533 -48.2824 10.9695 -44.0937 13.0519C-42.3327 13.9274 -38.8167 14.4893 -33.4529 14.8538C-32.7534 14.9013 -31.9905 14.948 -31.2046 14.9961C-29.5044 15.1001 -27.6969 15.2106 -26.1939 15.3507C-24.9252 15.4689 -22.9759 15.6639 -20.9728 16.1891C-20.901 16.1626 -20.8248 16.134 -20.7443 16.1031C-19.0979 15.4707 -16.8973 14.3783 -14.4958 13.0448C-12.1586 11.747 -9.90274 10.3735 -8.21172 9.31034C-7.3723 8.7826 -6.68593 8.34007 -6.21509 8.03325C-5.97994 7.88002 -5.79935 7.76115 -5.68116 7.68302L-5.5519 7.59732L-5.52263 7.57782L-5.52142 7.57701L-5.52025 7.57622L4.92683 0.582031L9.38726 12.3323L9.38801 12.3342L9.38853 12.3356L9.38964 12.3386L9.40197 12.3706C9.41575 12.4064 9.43915 12.4669 9.47202 12.551C9.5378 12.7192 9.64138 12.9816 9.78163 13.3292C10.0623 14.0249 10.4888 15.0599 11.052 16.3632C12.1805 18.9747 13.8463 22.6373 15.974 26.7905C20.3017 35.2379 26.2428 45.1229 33.1082 52.4277C35.3974 54.8634 38.1816 57.9451 41.3581 61.4609C49.6744 70.6656 60.6791 82.8461 72.5267 94.1997C80.6456 101.98 88.7871 108.994 96.2338 114.03C104.038 119.308 109.619 121.393 112.917 121.454C128.599 121.745 143.57 129.402 153.491 139.275C162.878 148.617 170.913 163.606 163.878 177.933C155.164 195.681 137.263 207.629 116.505 208.608L116.431 209.523L106.032 208.181C99.2005 207.299 91.5299 210.77 80.93 218.301C77.8407 220.496 74.9807 222.667 71.9721 224.952C69.7792 226.617 67.5074 228.342 65.0103 230.179C59.4599 234.264 53.4155 238.418 46.9889 241.652C39.5529 245.393 31.9176 246.441 24.8695 243.701C18.0733 241.058 13.7322 235.622 11.0761 230.395ZM98.0703 188.503C87.1734 190.185 77.454 196.236 69.346 201.997C66.1581 204.262 62.7057 206.878 59.3889 209.391C57.2156 211.038 55.1005 212.64 53.1561 214.071C47.8715 217.96 42.9029 221.319 37.9993 223.786C34.1053 225.745 32.4887 225.205 32.1176 225.061C31.4946 224.818 30.2491 223.977 28.9057 221.334C26.063 215.74 25.3406 207.004 26.3494 201.81C27.7804 194.442 29.2864 184.373 30.0476 174.127C30.7959 164.057 30.889 153.045 29.1101 144.156C27.718 137.201 22.8872 131.643 18.6313 127.538C14.6767 123.723 9.75399 119.838 5.04551 116.121C4.4393 115.643 3.83665 115.167 3.24007 114.695C-7.98278 105.809 -17.8449 97.3783 -22.3035 87.5655C-27.8989 75.2509 -38.2709 60.3136 -46.974 47.7797C-47.7429 46.6724 -48.4988 45.5838 -49.2371 44.5175C-53.6647 38.1235 -57.4829 32.5174 -60.1818 27.9884C-57.6998 28.8046 -55.1306 29.9001 -52.9971 30.9608C-47.1146 33.8853 -39.5929 34.4826 -34.8089 34.8078C-33.756 34.8793 -32.8192 34.9362 -31.9613 34.9882C-30.488 35.0776 -29.2471 35.1528 -28.049 35.2644C-26.8167 35.3793 -26.2778 35.4897 -26.1765 35.5019C-22.9915 36.8337 -19.9581 36.4469 -18.5716 36.2109C-16.7647 35.9033 -15.0248 35.3308 -13.5733 34.7733C-10.6318 33.6435 -7.48098 32.0261 -4.78642 30.5299C-4.70537 30.4849 -4.62448 30.4398 -4.54375 30.3947C-3.7333 32.1053 -2.8256 33.9585 -1.82604 35.9096C2.83205 45.002 9.78136 56.8113 18.5346 66.1248C20.4542 68.1673 22.9665 70.9478 25.9312 74.2291C34.2967 83.4877 46.2648 96.7336 58.6887 108.64C67.1698 116.767 76.2397 124.652 85.0297 130.597C93.4623 136.3 103.143 141.277 112.546 141.451C122.266 141.631 132.506 146.608 139.383 153.451C146.793 160.827 147.142 166.639 145.925 169.118C139.573 182.056 125.234 190.487 108.593 188.339L98.1926 186.996L98.0703 188.503ZM-63.5773 21.1409C-63.5732 21.1432 -63.5559 21.2042 -63.538 21.3169C-63.5724 21.1949 -63.5814 21.1386 -63.5773 21.1409Z" fill="#241F0B"/>
<path d="M107.312 198.256C128.172 200.95 146.65 190.332 154.902 173.526C163.153 156.72 138.133 131.923 112.731 131.453C87.3296 130.982 41.44 75.8945 25.8214 59.2762C10.2027 42.658 0.0405579 15.8875 0.0405579 15.8875C0.0405579 15.8875 -18.3018 28.1675 -22.3859 26.2462C-26.4701 24.325 -40.902 25.8063 -48.5454 22.0063C-56.1889 18.2064 -71.1154 12.7602 -73.3799 21.0538C-75.6444 29.3474 -42.6491 66.9618 -31.4078 91.7022C-20.1666 116.443 16.2875 131.044 19.3045 146.119C22.3215 161.194 19.2663 185.83 16.5328 199.904C13.7994 213.978 19.834 244.121 42.4941 232.719C65.1543 221.317 85.2786 195.42 107.311 198.263L107.312 198.256Z" fill="#FBF3D6"/>
<path fill-rule="evenodd" clip-rule="evenodd" d="M16.425 227.677C11.9628 218.897 11.0963 206.915 12.6062 199.141C13.9472 192.236 15.3709 182.716 16.0861 173.09C16.8065 163.395 16.7826 153.901 15.3823 146.904C14.8832 144.41 12.8338 141.398 8.91168 137.614C5.49458 134.318 1.16683 130.899 -3.64643 127.097C-4.24068 126.628 -4.84235 126.153 -5.45061 125.671C-16.2156 117.147 -28.9641 106.75 -35.0495 93.3569C-40.0872 82.2696 -49.7255 68.3765 -58.6596 55.4984C-59.3606 54.4879 -60.0573 53.4837 -60.747 52.4876C-65.4165 45.7442 -69.7728 39.3615 -72.8167 34.1216C-74.3352 31.5074 -75.6077 29.0425 -76.429 26.8709C-77.1702 24.9112 -77.8825 22.3584 -77.2386 20.0002C-76.2776 16.4804 -73.8227 14.3285 -70.8539 13.3648C-68.139 12.4836 -65.0893 12.6041 -62.3442 13.0458C-56.7939 13.939 -50.7332 16.4516 -46.7647 18.4246C-43.7673 19.9147 -39.0496 20.4873 -33.8597 20.84C-33.062 20.8942 -32.2437 20.9441 -31.4294 20.9939C-29.7863 21.0942 -28.1593 21.1935 -26.7504 21.3248C-24.9319 21.4942 -22.8027 21.7595 -21.1168 22.438C-21.0638 22.4318 -20.9988 22.4227 -20.9209 22.4094C-20.3943 22.3198 -19.6181 22.0979 -18.593 21.7041C-16.558 20.9225 -14.0724 19.6727 -11.583 18.2903C-9.11929 16.9222 -6.76469 15.4879 -5.01822 14.3899C-4.14743 13.8424 -3.43341 13.3821 -2.93936 13.0601C-2.69245 12.8992 -2.5008 12.7731 -2.37231 12.6882C-2.30809 12.6457 -2.25967 12.6135 -2.22807 12.5925L-2.18576 12.5643L-2.18471 12.5636L1.99509 9.76531L3.77983 14.4669L3.7802 14.4679L3.78421 14.4784L3.80292 14.5271C3.82025 14.5721 3.8473 14.642 3.88393 14.7357C3.95718 14.9231 4.06869 15.2054 4.2173 15.5738C4.51458 16.3108 4.95998 17.3912 5.54429 18.7433C6.71372 21.4495 8.43508 25.234 10.634 29.5262C15.0608 38.1671 21.3044 48.6294 28.7361 56.5368C30.912 58.8519 33.6157 61.8444 36.7314 65.2928C45.0691 74.521 56.3572 87.0146 68.3753 98.5317C76.6029 106.416 85.0229 113.691 92.8725 119C100.865 124.405 107.676 127.358 112.806 127.453C126.699 127.711 140.251 134.564 149.258 143.528C158.052 152.28 163.782 164.516 158.492 175.289C150.041 192.502 131.806 203.68 110.973 202.601L110.959 202.767L106.8 202.23C97.4572 201.025 88.0654 205.871 77.4548 213.41C74.3373 215.625 71.3098 217.922 68.207 220.276C66.0132 221.941 63.7817 223.634 61.4541 225.347C55.9834 229.373 50.2617 233.288 44.2921 236.292C37.9186 239.499 32.0889 240.07 27.044 238.109C22.0997 236.186 18.6873 232.128 16.425 227.677ZM103.64 194.048C92.5549 194.15 82.2683 200.176 72.8212 206.888C69.6643 209.131 66.4003 211.606 63.174 214.052C60.9878 215.709 58.8189 217.353 56.7124 218.903C51.3481 222.851 46.0567 226.448 40.6962 229.146C35.7396 231.64 32.3174 231.576 29.9432 230.653C27.4682 229.69 25.294 227.471 23.5568 224.052C20.0201 217.093 19.2359 206.966 20.4595 200.666C21.8519 193.497 23.3226 183.662 24.0641 173.683C24.8005 163.773 24.8434 153.412 23.2267 145.334C22.2174 140.29 18.5786 135.824 14.4657 131.856C10.7422 128.265 6.0756 124.58 1.32564 120.83C0.72301 120.354 0.119042 119.877 -0.48452 119.399C-11.5111 110.668 -22.6103 101.395 -27.7661 90.0475C-33.1218 78.2604 -43.1761 63.7748 -51.971 51.1038C-52.7142 50.0331 -53.4484 48.9753 -54.17 47.9333C-58.8714 41.1438 -63.0419 35.0217 -65.8991 30.1032C-67.3311 27.6381 -68.3526 25.6105 -68.9463 24.0409C-69.4962 22.5867 -69.4795 22.0285 -69.4972 22.0274L-69.4984 22.0282C-69.3266 21.4565 -69.0593 21.1932 -68.3841 20.974C-67.4246 20.6626 -65.8403 20.5861 -63.6153 20.9442C-59.2253 21.6507 -54.001 23.7611 -50.3261 25.5881C-45.6801 27.8979 -39.3601 28.4846 -34.4021 28.8216C-33.4633 28.8854 -32.5752 28.9394 -31.7319 28.9907C-30.1799 29.0852 -28.7795 29.1704 -27.4925 29.2903C-25.3773 29.4874 -24.3878 29.725 -24.0886 29.8657C-22.4415 30.6405 -20.6955 30.4861 -19.5784 30.296C-18.3202 30.0818 -16.9934 29.6596 -15.7246 29.1722C-13.1716 28.1917 -10.3059 26.7318 -7.69923 25.2843C-5.55376 24.093 -3.50542 22.8659 -1.8355 21.8331C-1.82352 21.8609 -1.81147 21.8887 -1.79936 21.9167C-0.575318 24.7494 1.22004 28.6962 3.51398 33.1738C8.07294 42.0727 14.7198 53.3048 22.9067 62.0156C24.9348 64.1735 27.5297 67.0456 30.5608 70.4003C38.9184 79.6502 50.5916 92.5698 62.8401 104.308C71.2125 112.331 80.004 119.955 88.3909 125.627C96.635 131.202 105.086 135.312 112.657 135.452C124.166 135.665 135.825 141.446 143.615 149.199C151.619 157.164 154.274 165.729 151.311 171.763C143.819 187.022 126.996 196.765 107.824 194.289L103.664 193.752L103.64 194.048ZM-21.306 22.4502C-21.306 22.4502 -21.2966 22.4495 -21.2787 22.4508C-21.2972 22.4511 -21.306 22.4502 -21.306 22.4502Z" fill="black"/>
</svg>
