<svg width="498" height="532" viewBox="0 0 498 532" fill="none" xmlns="http://www.w3.org/2000/svg">
<path d="M225.069 515.52C225.837 520.724 228 527.078 231.956 528.983C235.911 530.887 241.845 531.938 247.893 530.324C253.941 528.71 267.627 525.52 268.563 521.14C269.498 516.761 266.748 490.383 264.478 489.218C262.209 488.052 241.46 480.059 237.668 481.123C233.876 482.187 217.264 483.566 216.897 489.199C216.529 494.832 224.208 509.707 225.068 515.517L225.069 515.52Z" fill="#869193"/>
<path fill-rule="evenodd" clip-rule="evenodd" d="M229.934 514.233L230.016 514.791C230.352 517.066 230.98 519.474 231.865 521.412C232.811 523.484 233.705 524.276 234.124 524.477C237.102 525.911 241.812 526.772 246.603 525.493C247.16 525.345 247.76 525.188 248.393 525.022C251.387 524.24 255.121 523.264 258.451 522.065C260.471 521.337 262.076 520.618 263.145 519.952C263.401 519.793 263.587 519.661 263.718 519.56C263.734 519.281 263.745 518.934 263.749 518.516C263.758 517.509 263.723 516.222 263.645 514.729C263.49 511.747 263.173 508.111 262.756 504.556C262.338 500.986 261.831 497.603 261.31 495.099C261.138 494.269 260.976 493.595 260.832 493.076C260.098 492.773 259.156 492.397 258.065 491.976C255.797 491.101 252.939 490.051 250.042 489.071C247.127 488.085 244.259 487.2 241.945 486.631C240.78 486.344 239.855 486.163 239.184 486.078C238.935 486.046 238.768 486.034 238.671 486.029C237.594 486.3 236.062 486.564 234.586 486.819C234.299 486.869 234.015 486.918 233.737 486.967C231.652 487.332 229.366 487.753 227.224 488.295C225.018 488.853 223.3 489.458 222.215 490.069C222.106 490.13 222.012 490.186 221.932 490.236C222.02 490.896 222.24 491.942 222.687 493.437C223.31 495.516 224.201 497.931 225.188 500.496C225.469 501.225 225.76 501.972 226.052 502.723C226.757 504.536 227.471 506.372 228.077 508.039C228.824 510.097 229.556 512.291 229.911 514.176L229.934 514.233ZM225.068 515.517C224.703 513.046 223.104 508.937 221.415 504.597C219.133 498.728 216.685 492.437 216.897 489.199C217.186 484.763 227.547 482.966 233.791 481.882C235.477 481.59 236.862 481.349 237.668 481.123C241.46 480.059 262.209 488.052 264.478 489.218C266.748 490.383 269.498 516.761 268.563 521.14C267.707 525.149 256.17 528.16 249.584 529.88C248.974 530.039 248.406 530.187 247.893 530.324C241.845 531.938 235.911 530.887 231.956 528.983C228 527.078 225.837 520.724 225.069 515.52L225.068 515.517ZM221.515 490.551C221.512 490.551 221.526 490.533 221.563 490.501C221.536 490.535 221.517 490.551 221.515 490.551Z" fill="#241F0B"/>
<path d="M332.883 36.777C330.186 41.2935 327.842 47.5827 329.701 51.5598C331.561 55.5369 335.492 60.1046 341.197 62.6795C346.902 65.2545 359.521 71.4409 363.016 68.6402C366.51 65.8395 381.064 43.6694 380.044 41.3312C379.023 38.9931 368.008 19.6782 364.398 18.1037C360.788 16.5292 347.049 7.09008 343.201 11.2206C339.353 15.3511 335.893 31.73 332.884 36.7732L332.883 36.777Z" fill="#869193"/>
<path fill-rule="evenodd" clip-rule="evenodd" d="M337.464 38.857L337.176 39.3406C335.996 41.3155 334.96 43.5786 334.42 45.6388C333.842 47.8426 334.034 49.0206 334.231 49.4421C335.63 52.4358 338.734 56.0821 343.254 58.1222C343.779 58.359 344.343 58.6172 344.938 58.8896C347.752 60.1772 351.261 61.7831 354.598 62.9604C356.624 63.6749 358.322 64.1329 359.571 64.2932C359.87 64.3316 360.097 64.3471 360.263 64.3518C360.452 64.1464 360.68 63.8844 360.947 63.5625C361.591 62.7879 362.377 61.7697 363.262 60.5634C365.028 58.1555 367.082 55.1395 369.008 52.1221C370.942 49.0921 372.689 46.1513 373.87 43.8826C374.261 43.1306 374.562 42.5065 374.779 42.0128C374.402 41.3139 373.91 40.4275 373.331 39.4115C372.129 37.2993 370.579 34.6776 368.955 32.0863C367.321 29.4788 365.66 26.9793 364.227 25.0743C363.506 24.1164 362.904 23.3902 362.439 22.9002C362.265 22.7177 362.144 22.6031 362.071 22.538C361.066 22.066 359.712 21.3021 358.407 20.566C358.154 20.4232 357.903 20.2815 357.657 20.1431C355.811 19.1073 353.774 17.9881 351.772 17.0527C349.711 16.0896 347.997 15.4717 346.77 15.2578C346.647 15.2363 346.539 15.2204 346.445 15.2088C346.096 15.7761 345.605 16.7247 345.006 18.1658C344.173 20.1698 343.336 22.6043 342.478 25.2154C342.234 25.9575 341.987 26.7197 341.738 27.4859C341.138 29.3361 340.53 31.2102 339.944 32.8845C339.221 34.9517 338.401 37.1138 337.484 38.7981L337.464 38.857ZM332.884 36.7732C334.163 34.6289 335.524 30.4352 336.962 26.005C338.906 20.0159 340.989 13.5948 343.201 11.2206C346.231 7.96817 355.393 13.1292 360.915 16.2392C362.405 17.0789 363.631 17.769 364.398 18.1037C368.008 19.6782 379.023 38.9931 380.044 41.3312C381.064 43.6694 366.51 65.8395 363.016 68.6402C359.817 71.2034 348.977 66.2391 342.788 63.4049C342.214 63.1422 341.681 62.8979 341.197 62.6795C335.492 60.1046 331.561 55.5369 329.701 51.5598C327.842 47.5827 330.186 41.2935 332.883 36.777L332.884 36.7732ZM345.923 15.1886C345.922 15.1869 345.943 15.1824 345.992 15.1804C345.949 15.1894 345.925 15.1904 345.923 15.1886Z" fill="#241F0B"/>
<path d="M121.033 128.679C145.202 91.7736 193.817 17.5748 233.787 22.1864C273.756 26.798 345.371 94.6906 375.957 89.3679C406.543 84.0453 475.43 120.019 491.055 139.33C506.679 158.64 490.995 285.493 471.672 308.425C452.348 331.357 334.352 471.258 315.165 481.056C295.978 490.853 117.603 440.088 90.3895 412.487C63.1764 384.886 -21.754 305.673 5.22556 266.207C32.2051 226.741 91.4069 174.009 121.053 128.698L121.033 128.679Z" fill="#869193"/>
<path fill-rule="evenodd" clip-rule="evenodd" d="M121.053 128.698C105.288 152.794 81.1639 178.988 57.9725 204.17C37.5537 226.342 17.8577 247.729 5.22556 266.207C-19.6884 302.651 50.8279 372.99 83.2004 405.281C85.8843 407.958 88.306 410.374 90.3895 412.487C117.603 440.088 295.978 490.853 315.165 481.056C334.352 471.258 452.348 331.357 471.672 308.425C490.995 285.493 506.679 158.64 491.055 139.33C475.43 120.019 406.543 84.0453 375.957 89.3679C359.989 92.1468 332.837 74.9694 304.844 57.2596C279.219 41.048 252.889 24.3904 233.787 22.1864C193.817 17.5748 145.202 91.7736 121.033 128.679L121.053 128.698ZM127.557 127.845L127.575 127.862L125.237 131.435C110.148 154.498 87.6389 179.313 65.819 203.03C64.4615 204.505 63.1069 205.976 61.757 207.442C41.2285 229.735 21.7708 250.864 9.35326 269.029C3.87841 277.037 3.70529 287.519 8.0537 300.211C12.3957 312.884 20.9693 326.855 31.477 340.785C49.2469 364.343 71.8079 386.851 86.6722 401.681C89.3783 404.381 91.8294 406.826 93.95 408.977C96.8006 411.868 102.011 415.393 109.427 419.348C116.742 423.25 125.847 427.386 136.178 431.592C156.834 440 182.118 448.575 207.206 456.001C232.297 463.428 257.079 469.673 276.72 473.446C286.553 475.336 294.991 476.584 301.486 477.068C304.738 477.311 307.396 477.353 309.441 477.215C311.613 477.068 312.611 476.746 312.891 476.603C314.55 475.755 317.993 473.014 323.177 468.127C328.178 463.413 334.363 457.132 341.366 449.736C355.364 434.952 372.468 415.884 389.61 396.366C423.887 357.341 458.188 316.666 467.848 305.203C469.739 302.959 471.86 299.067 474.042 293.533C476.189 288.087 478.266 281.388 480.205 273.806C484.083 258.646 487.332 240.261 489.503 221.931C491.676 203.593 492.753 185.465 492.337 170.815C492.129 163.481 491.55 157.143 490.59 152.141C489.596 146.958 488.312 143.89 487.168 142.475C483.761 138.264 477.055 132.737 468.033 126.806C459.12 120.945 448.302 114.92 437.001 109.642C425.692 104.359 414.008 99.8762 403.363 97.0455C392.595 94.1825 383.393 93.1491 376.814 94.2939C371.992 95.1331 366.73 94.4811 361.388 93.0218C356.011 91.5527 350.239 89.1766 344.265 86.2571C332.34 80.429 319.043 72.1473 305.72 63.7295C304.544 62.9867 303.368 62.2427 302.192 61.4988C289.939 53.7472 277.705 46.0074 266.183 39.7754C253.455 32.8909 242.197 28.19 233.214 27.1535C224.866 26.1903 215.524 29.3003 205.437 35.8786C195.401 42.4241 185.157 52.0613 175.214 63.1944C156.575 84.0651 139.59 109.504 127.557 127.845Z" fill="#241F0B"/>
<path d="M457.545 41.8582C458.048 49.3693 459.057 64.4726 453.139 67.9542C447.222 71.4358 430.488 69.5533 426.87 73.423C423.252 77.2927 410.172 79.4766 406.059 78.4533C401.945 77.43 391.038 58.542 391.312 53.4321C391.586 48.3222 393.27 17.1376 394.876 13.8305C396.481 10.5234 425.993 -0.903634 432.537 0.057145C439.081 1.01792 458.792 3.0731 459.176 11.2218C459.559 19.3704 456.919 32.6389 457.54 41.8578L457.545 41.8582Z" fill="#869193"/>
<path fill-rule="evenodd" clip-rule="evenodd" d="M457.54 41.8578C457.21 36.9553 457.802 30.9075 458.371 25.0936C458.872 19.9747 459.355 15.0371 459.176 11.2218C458.821 3.69696 441.986 1.3683 434.257 0.299277C433.616 0.210648 433.038 0.130706 432.537 0.057145C425.993 -0.903634 396.481 10.5234 394.876 13.8305C393.27 17.1376 391.586 48.3222 391.312 53.4321C391.038 58.542 401.945 77.43 406.059 78.4533C410.172 79.4766 423.252 77.2927 426.87 73.423C428.759 71.4027 434.223 70.9503 439.856 70.4839C445.013 70.0569 450.311 69.6181 453.139 67.9542C459.057 64.4726 458.048 49.3693 457.545 41.8582L457.54 41.8578ZM452.686 44.1846C452.905 47.7272 453.092 52.0647 452.767 56.0063C452.572 58.3674 452.211 60.3281 451.691 61.7675C451.152 63.2635 450.656 63.6137 450.604 63.6448C450 64.0001 448.658 64.431 446.296 64.7901C444.234 65.1036 441.914 65.2959 439.413 65.5033C439.186 65.5222 438.957 65.5412 438.727 65.5604C436.085 65.7807 433.196 66.0348 430.714 66.5176C429.461 66.7614 428.154 67.0917 426.94 67.5765C425.761 68.0474 424.363 68.7839 423.218 70.0082C423.054 70.1837 422.357 70.714 420.784 71.3548C419.328 71.9482 417.522 72.4754 415.609 72.8826C413.705 73.2879 411.811 73.5496 410.212 73.6538C408.987 73.7336 408.148 73.706 407.671 73.6604C407.644 73.6371 407.615 73.6114 407.584 73.5832C407.164 73.2044 406.589 72.5864 405.884 71.7058C404.484 69.9577 402.88 67.559 401.357 64.9529C399.839 62.3538 398.48 59.6817 397.535 57.4235C397.061 56.2919 396.722 55.3368 396.516 54.5932C396.331 53.9285 396.313 53.6453 396.308 53.6455C396.308 53.6455 396.307 53.6641 396.305 53.6995C396.441 51.1481 396.929 42.1183 397.581 33.325C397.907 28.9218 398.272 24.6266 398.649 21.2507C398.839 19.557 399.025 18.1538 399.202 17.1092C399.243 16.8702 399.28 16.6708 399.312 16.5065C399.339 16.4893 399.366 16.4714 399.395 16.4531C400.139 15.9734 401.258 15.3556 402.723 14.6353C405.631 13.206 409.516 11.5609 413.611 10.0248C417.704 8.48939 421.894 7.10466 425.403 6.17069C427.162 5.70275 428.678 5.36708 429.886 5.17621C430.488 5.08112 430.966 5.02954 431.328 5.00961C431.671 4.99075 431.817 5.00506 431.817 5.00506C431.817 5.00506 431.815 5.00468 431.811 5.00409C432.365 5.08548 432.985 5.1715 433.656 5.26475C437.226 5.76031 442.264 6.45994 446.795 7.75223C449.495 8.52235 451.612 9.39872 452.973 10.3181C453.632 10.7628 453.956 11.1138 454.097 11.3155C454.157 11.4009 454.177 11.4485 454.181 11.4593C454.343 14.8962 453.894 19.4903 453.376 24.7932C453.348 25.078 453.32 25.3649 453.292 25.6538C452.766 31.0555 452.208 37.0996 452.552 42.1941L452.686 44.1846ZM398.766 16.8989C398.713 16.9444 398.725 16.9414 398.776 16.8904C398.772 16.8935 398.769 16.8963 398.766 16.8989ZM407.924 73.8593C407.924 73.8593 407.916 73.8538 407.902 73.8451C407.916 73.8553 407.924 73.8593 407.924 73.8593Z" fill="#241F0B"/>
<path d="M52.4808 294.028C47.0944 297.783 37.9942 297.48 37.6106 297.468L36.5965 297.43L36.2313 296.483C36.0778 296.085 32.4755 286.709 32.3171 280.086C32.2181 275.912 37.0026 271.686 41.0316 268.877C45.6598 265.651 51.7442 262.643 55.4926 261.726C56.4546 261.489 57.6949 260.845 59.1787 259.81C65.3955 255.477 73.2552 246.081 73.3326 245.984L74.395 244.707L75.5886 245.866C80.1825 250.324 82.3391 254.695 82.0044 258.855C81.6953 262.659 79.3703 266.104 75.0923 269.086C71.8359 271.357 68.3772 272.705 66.6073 273.306C66.0957 273.48 65.598 273.736 65.1215 274.068C62.4283 275.946 60.6159 280.079 58.8628 284.075C57.5551 287.063 56.3148 289.885 54.6689 291.988C54.0791 292.742 53.3401 293.429 52.4736 294.033L52.4808 294.028Z" fill="#7A8789"/>
<path d="M74.5251 246.972C84.5974 256.742 80.1672 263.676 74.2176 267.824C71.4016 269.787 68.2418 271.126 66.1216 271.848C65.4488 272.075 64.828 272.401 64.2504 272.803C59.1167 276.382 57.2315 286.237 53.4709 291.031C52.9512 291.694 52.3148 292.266 51.6036 292.762C46.5783 296.265 37.6713 295.924 37.6713 295.924C37.6713 295.924 34.0151 286.478 33.8606 280.046C33.7862 276.938 37.4177 273.274 41.916 270.138C46.7284 266.784 52.5361 264.033 55.8643 263.221C57.0972 262.919 58.5386 262.14 60.0694 261.073C66.5316 256.568 74.5287 246.969 74.5287 246.969M74.2869 242.444L72.162 244.998C72.0692 245.111 64.3439 254.337 58.3076 258.545C56.5639 259.761 55.5703 260.121 55.1342 260.226C51.1575 261.202 44.9992 264.234 40.1543 267.611C33.8401 272.013 30.6899 276.221 30.7808 280.122C30.9448 287.014 34.6425 296.635 34.7975 297.042L35.5289 298.93L37.551 299.007C38.5687 299.043 47.654 299.27 53.3617 295.292C54.3545 294.6 55.2073 293.807 55.8875 292.935C57.6548 290.684 58.9893 287.635 60.2796 284.691C61.9439 280.892 63.6666 276.96 66.006 275.329C66.367 275.078 66.7294 274.889 67.1089 274.764C68.9564 274.136 72.5676 272.729 75.9793 270.351C80.5895 267.137 83.2034 263.207 83.5465 258.982C83.92 254.338 81.6096 249.554 76.6706 244.763L74.2858 242.45L74.2869 242.444Z" fill="#636F72"/>
<path d="M65.4212 313.676C63.3742 315.103 60.9466 315.191 58.1992 313.936L56.0275 312.944L57.8249 311.375C57.9159 311.29 60.2639 309.133 59.8152 305.519C59.7403 304.911 59.6607 304.312 59.58 303.719C59.037 299.677 58.523 295.862 60.1507 292.941C60.6391 292.064 61.2436 290.838 61.8821 289.545C63.3933 286.48 64.9584 283.307 66.2924 281.943C66.9571 281.265 68.4855 280.087 70.9238 278.221C73.3187 276.385 77.7266 273.012 78.4786 271.951L78.6814 270.549L80.27 270.858C80.5238 270.906 82.757 271.393 83.6615 273.322C84.0665 274.187 84.3211 275.63 83.2342 277.611C82.4379 279.062 80.605 281.45 78.4833 284.217C76.0371 287.403 71.5024 293.31 71.3679 294.826C71.9606 297.969 72.3895 304.741 69.8199 308.335C69.5423 308.722 69.27 309.131 68.9977 309.541C67.9806 311.06 66.9291 312.63 65.4237 313.679L65.4212 313.676Z" fill="#7A8789"/>
<path d="M79.9779 272.37C79.9779 272.37 83.9337 273.143 81.8869 276.871C79.8438 280.597 69.3399 292.409 69.8478 295.054C70.3593 297.696 70.8781 304.212 68.5731 307.439C67.3263 309.183 66.1927 311.266 64.5428 312.416C63.1421 313.392 61.372 313.693 58.8404 312.539C58.8404 312.539 61.9076 309.859 61.3471 305.331C60.7866 300.802 59.9083 296.549 61.4984 293.697C63.092 290.842 65.687 284.768 67.3953 283.025C69.1037 281.281 79.7558 273.898 79.9769 272.376M77.3935 268.732L77.0255 271.29C75.8774 272.498 72.0992 275.39 69.9902 277.005C67.4234 278.971 65.9322 280.118 65.197 280.872C63.7936 282.306 62.4267 284.97 60.5069 288.873C59.8742 290.151 59.2827 291.357 58.8131 292.199C56.9358 295.563 57.4843 299.628 58.0596 303.932C58.1378 304.521 58.2185 305.114 58.2945 305.715C58.6232 308.372 57.0109 310.038 56.8014 310.238L52.995 313.358L57.5681 315.347C60.8453 316.839 63.7835 316.706 66.307 314.947C68.0508 313.731 69.236 311.961 70.2828 310.399C70.5587 309.987 70.8215 309.595 71.0789 309.233C74.2939 304.733 73.2657 296.856 72.9505 294.903C73.5816 293.138 77.5433 287.978 79.7102 285.153C81.8687 282.339 83.7349 279.907 84.5877 278.352C85.9839 275.807 85.6112 273.856 85.058 272.67C83.8584 270.11 81.1052 269.455 80.5682 269.346L77.3946 268.726L77.3935 268.732Z" fill="#636F72"/>
<path d="M413.055 174.719C411.856 164.131 413.857 149.54 421.087 142.525L421.516 142.105L422.106 142.011C422.874 141.886 441.091 139.063 450.521 146.165C456.392 150.58 459.422 160.528 460.235 167.703C460.673 171.575 461.181 181.037 456.451 185.248C453.539 187.841 449.555 189.944 445.7 191.982C440.962 194.488 436.065 197.076 435.185 199.735C434.626 201.417 433.379 202.384 431.761 202.392C426.304 202.414 417.195 189.687 414.584 181.988C413.886 179.929 413.373 177.483 413.061 174.724L413.055 174.719Z" fill="#7A8789"/>
<path d="M458.345 167.918C459.115 174.72 458.217 181.133 455.185 183.827C448.577 189.71 435.288 193.353 433.377 199.136C431.461 204.914 419.597 190.854 416.385 181.374C415.734 179.447 415.244 177.096 414.951 174.505C413.799 164.338 415.651 150.452 422.412 143.885C422.412 143.885 440.488 140.979 449.38 147.677C454.194 151.305 457.434 159.878 458.344 167.912M462.124 167.484C461.229 159.58 458.012 149.423 451.668 144.646C441.598 137.059 422.607 140.008 421.806 140.131L420.619 140.32L419.756 141.156C412.029 148.659 409.873 163.525 411.164 174.928C411.492 177.822 412.036 180.401 412.776 182.592C414.189 186.763 417.131 191.882 420.638 196.286C424.884 201.607 428.624 204.301 431.762 204.29C434.178 204.279 436.178 202.762 436.986 200.33C437.626 198.398 442.802 195.663 446.585 193.665C450.538 191.577 454.631 189.413 457.711 186.669C463.113 181.863 462.597 171.658 462.125 167.49L462.124 167.484Z" fill="#626F72"/>
</svg>
