<svg width="545" height="434" viewBox="0 0 545 434" fill="none" xmlns="http://www.w3.org/2000/svg">
<path d="M111.142 8.58765C107.997 4.37115 103.077 -0.194914 98.6917 0.00642634C94.306 0.207766 88.5841 2.09841 84.0271 6.38964C79.4701 10.6809 68.937 19.9844 70.1925 24.2833C71.4479 28.5822 86.3876 50.4943 88.9383 50.443C91.489 50.3917 113.545 47.5797 116.378 44.8434C119.211 42.1071 133.178 33.0093 130.828 27.8764C128.479 22.7435 114.659 13.2955 111.145 8.59018L111.142 8.58765Z" fill="#869193"/>
<path d="M197.812 43.3267C229.082 44.9563 365.492 12.6942 392.201 63.5197C418.91 114.345 439.797 169.832 447.111 174.481C454.424 179.13 549.862 287.931 543.819 322.387C537.775 356.843 318.765 455.848 252.013 428.746C185.26 401.644 96.4713 324.258 96.6969 257.416C96.9225 190.575 116.865 89.4495 119.529 69.7601C122.192 50.0706 163.584 41.545 197.812 43.3267Z" fill="#869193"/>
<path d="M55.4345 144.112C68.3575 142.121 87.1144 141.14 85.0862 130.727C83.0579 120.313 84.8878 104.52 85.9323 102.267C86.9767 100.014 92.5395 89.4046 89.0079 83.9953C85.4763 78.586 72.4654 68.3936 65.6822 67.888C58.899 67.3825 7.79625 71.2756 2.96969 72.263C-1.85688 73.2504 -0.050585 119.477 3.09475 125.569C6.24009 131.662 20.4058 142.858 28.9445 143.569C37.4833 144.28 55.4345 144.112 55.4345 144.112Z" fill="#869193"/>
<path fill-rule="evenodd" clip-rule="evenodd" d="M107.47 12.0272L107.135 11.5775C105.759 9.73375 104.063 7.91249 102.364 6.62707C100.548 5.25207 99.3858 4.97981 98.921 5.00115C95.6197 5.1527 91.0654 6.62978 87.4549 10.0297C87.0357 10.4244 86.5818 10.8474 86.103 11.2936C83.8391 13.4032 81.0159 16.034 78.654 18.6701C77.2208 20.2697 76.1495 21.6647 75.5249 22.7578C75.3753 23.0196 75.2742 23.2237 75.2065 23.3755C75.3246 23.6279 75.4797 23.9386 75.6751 24.3088C76.1455 25.1995 76.7866 26.3149 77.5641 27.5929C79.1161 30.144 81.1201 33.1935 83.1744 36.1251C85.2372 39.0689 87.289 41.8057 88.9356 43.7626C89.4814 44.4113 89.9436 44.9273 90.3171 45.3164C91.1069 45.2347 92.114 45.1183 93.2739 44.971C95.6853 44.665 98.6999 44.2331 101.715 43.7207C104.748 43.2052 107.693 42.6231 110 42.0253C111.161 41.7247 112.062 41.445 112.692 41.202C112.927 41.1115 113.079 41.0429 113.167 41.0008C113.987 40.2515 115.21 39.2916 116.388 38.3663C116.617 38.1869 116.843 38.0088 117.065 37.8338C118.727 36.5234 120.539 35.0674 122.167 33.5739C123.844 32.0358 125.069 30.6875 125.735 29.6351C125.802 29.5293 125.857 29.4357 125.904 29.3535C125.513 28.8142 124.824 27.9982 123.72 26.8945C122.185 25.3598 120.254 23.6575 118.168 21.8682C117.575 21.3597 116.965 20.8403 116.352 20.3181C114.871 19.0571 113.37 17.7799 112.046 16.5997C110.41 15.1421 108.724 13.558 107.517 12.0673L107.47 12.0272ZM111.145 8.59018C112.639 10.5909 115.996 13.4489 119.543 16.4681C124.337 20.5498 129.478 24.926 130.828 27.8764C132.679 31.9181 124.412 38.4181 119.431 42.3349C118.086 43.3924 116.98 44.2617 116.378 44.8434C113.545 47.5797 91.489 50.3917 88.9383 50.443C86.3876 50.4943 71.4479 28.5822 70.1925 24.2833C69.0435 20.3489 77.7684 12.2228 82.7496 7.58339C83.2112 7.1535 83.6406 6.75355 84.0271 6.38964C88.5841 2.09841 94.306 0.207766 98.6917 0.00642634C103.077 -0.194914 107.997 4.37115 111.142 8.58765L111.145 8.59018ZM126.122 28.8784C126.124 28.8776 126.12 28.8993 126.103 28.9457C126.111 28.9024 126.12 28.8792 126.122 28.8784ZM235.053 45.3469C219.075 47.1688 205.395 48.7287 197.552 48.3199C180.868 47.4515 162.543 49.1117 148.236 53.2911C141.07 55.3843 135.187 58.0308 131.043 61.0937C126.912 64.1466 124.908 67.2949 124.483 70.4304C123.931 74.5137 122.688 81.8345 121.052 91.4656C114.557 129.709 101.876 204.382 101.697 257.433C101.591 288.833 122.562 323.665 152.807 354.481C182.888 385.131 221.211 410.844 253.894 424.114C269.102 430.288 294.01 429.496 323.937 423.504C353.563 417.573 387.082 406.77 418.817 394.012C450.55 381.254 480.319 366.613 502.454 353.087C513.536 346.315 522.573 339.902 528.962 334.224C532.157 331.385 534.59 328.816 536.275 326.563C537.997 324.26 538.707 322.589 538.894 321.523C539.44 318.408 538.894 313.867 536.944 307.878C535.027 301.992 531.918 295.191 527.892 287.781C519.846 272.967 508.415 256.211 496.471 240.253C484.544 224.318 472.194 209.299 462.379 197.984C457.471 192.325 453.216 187.615 449.981 184.193C448.36 182.48 447.02 181.116 445.997 180.128C444.848 179.019 444.393 178.678 444.428 178.7C442.478 177.461 440.838 175.187 439.539 173.164C438.087 170.901 436.481 167.987 434.751 164.607C431.286 157.838 427.107 148.772 422.379 138.389C421.515 136.492 420.632 134.55 419.73 132.566C410.718 112.738 399.841 88.8079 387.775 65.8456C382.073 54.9956 370.22 48.015 353.774 44.0097C337.403 40.0228 317.408 39.2231 296.899 39.9714C276.439 40.7179 255.797 42.9878 238.186 44.99C237.133 45.1098 236.088 45.2289 235.053 45.3469ZM197.812 43.3267C205.22 43.7128 218.528 42.1967 234.881 40.3339C287.557 34.3335 371.819 24.7348 392.201 63.5197C404.338 86.6166 415.274 110.676 424.279 130.49C435.091 154.277 443.121 171.944 447.111 174.481C454.424 179.13 549.862 287.931 543.819 322.387C537.775 356.843 318.765 455.848 252.013 428.746C185.26 401.644 96.4713 324.258 96.6969 257.416C96.8777 203.839 109.726 128.235 116.191 90.1986L116.191 90.1976C117.791 80.7812 119 73.6672 119.529 69.7601C122.192 50.0706 163.584 41.545 197.812 43.3267ZM79.6868 133.302C80.194 132.822 80.3395 132.51 80.1784 131.683C79.0464 125.871 79.0214 118.835 79.3661 113.135C79.5408 110.245 79.8173 107.593 80.1269 105.476C80.2812 104.421 80.4499 103.457 80.6283 102.641C80.7806 101.945 81.0161 100.983 81.3961 100.164C81.4925 99.9559 81.6087 99.7129 81.7398 99.4387C82.4495 97.9542 83.5956 95.5573 84.3958 92.882C84.8645 91.315 85.1382 89.8821 85.1654 88.7004C85.193 87.5012 84.9605 86.9421 84.8212 86.7287C83.5546 84.7887 80.0034 81.3165 75.6328 78.1531C73.521 76.6246 71.3847 75.2911 69.4611 74.3321C67.4424 73.3257 66.0457 72.929 65.3106 72.8742C64.0093 72.7772 59.9222 72.8959 53.9658 73.2124C48.1891 73.5194 41.0491 73.9871 33.9545 74.5025C26.8614 75.0178 19.8367 75.5791 14.2938 76.0721C10.6655 76.3948 7.83886 76.6753 6.0353 76.882C5.83724 77.8019 5.64627 79.0577 5.48552 80.6531C5.05382 84.9375 4.92287 90.7752 5.04181 96.9046C5.16028 103.01 5.52339 109.25 6.04322 114.296C6.30364 116.825 6.59715 118.991 6.90544 120.663C7.05968 121.499 7.20837 122.161 7.3437 122.654C7.46929 123.112 7.54638 123.292 7.54638 123.292L7.54484 123.289C7.99299 124.151 9.05569 125.564 10.8082 127.329C12.5074 129.04 14.635 130.863 16.9442 132.548C19.2566 134.235 21.6676 135.723 23.9197 136.811C26.2329 137.928 28.0886 138.48 29.3595 138.586C33.4192 138.924 39.8681 139.061 45.4338 139.108C48.1885 139.131 50.6803 139.132 52.4835 139.127C53.3847 139.125 54.113 139.121 54.615 139.118C54.7798 139.117 54.9202 139.116 55.0343 139.115C56.7951 138.848 58.5699 138.606 60.3291 138.366C65.4025 137.675 70.3455 137.001 74.4445 135.784C77.2267 134.959 78.8735 134.073 79.6868 133.302ZM55.4345 144.112C57.093 143.857 58.8475 143.618 60.6418 143.373C72.8295 141.714 86.8541 139.804 85.0862 130.727C83.0579 120.313 84.8878 104.52 85.9323 102.267C86.0069 102.106 86.1045 101.902 86.2203 101.661L86.2211 101.66C87.7266 98.5216 92.2866 89.0173 89.0079 83.9953C85.4763 78.586 72.4654 68.3936 65.6822 67.888C58.899 67.3825 7.79625 71.2756 2.96969 72.263C-1.85688 73.2504 -0.050585 119.477 3.09475 125.569C6.24009 131.662 20.4058 142.858 28.9445 143.569C37.4833 144.28 55.4345 144.112 55.4345 144.112Z" fill="#241F0B"/>
<path d="M461.192 325.191C454.417 327.885 444.655 325.25 444.243 325.14L443.156 324.841L443.002 323.725C442.936 323.256 441.419 312.205 442.927 305.005C443.879 300.467 450.123 297.111 455.191 295.096C461.013 292.781 468.354 291.073 472.639 291.031C473.739 291.019 475.244 290.637 477.11 289.895C484.93 286.786 495.81 278.621 495.919 278.536L497.391 277.424L498.388 278.979C502.224 284.964 503.447 290.237 502.031 294.65C500.732 298.685 497.345 301.819 491.963 303.959C487.867 305.587 483.786 306.169 481.72 306.37C481.122 306.428 480.519 306.578 479.92 306.817C476.532 308.164 473.525 312.173 470.616 316.049C468.445 318.947 466.388 321.684 464.075 323.54C463.246 324.206 462.273 324.761 461.183 325.195L461.192 325.191Z" fill="#7A8789"/>
<path d="M496.958 279.905C505.37 293.022 498.822 299.397 491.338 302.372C487.795 303.78 484.04 304.427 481.564 304.669C480.779 304.745 480.026 304.939 479.299 305.228C472.841 307.796 468.304 317.972 463.023 322.202C462.293 322.787 461.46 323.244 460.565 323.6C454.243 326.113 444.7 323.486 444.7 323.486C444.7 323.486 443.142 312.346 444.606 305.353C445.314 301.974 450.169 298.933 455.828 296.684C461.881 294.277 468.858 292.776 472.662 292.741C474.072 292.728 475.828 292.251 477.753 291.485C485.882 288.253 496.962 279.904 496.962 279.904M497.848 274.95L494.903 277.172C494.774 277.271 484.082 285.287 476.489 288.306C474.296 289.178 473.13 289.316 472.632 289.319C468.085 289.365 460.658 291.082 454.564 293.505C446.621 296.663 442.148 300.413 441.257 304.654C439.687 312.147 441.245 323.487 441.309 323.966L441.622 326.193L443.788 326.788C444.88 327.085 454.644 329.635 461.824 326.781C463.073 326.284 464.196 325.643 465.153 324.874C467.634 322.888 469.85 319.929 471.991 317.074C474.754 313.388 477.614 309.574 480.557 308.404C481.011 308.224 481.45 308.112 481.892 308.073C484.049 307.863 488.31 307.257 492.602 305.551C498.401 303.245 502.224 299.659 503.666 295.178C505.247 290.252 503.962 284.494 499.837 278.061L497.845 274.956L497.848 274.95Z" fill="#636F72"/>
<path d="M470.201 349.715C467.626 350.739 464.979 350.218 462.327 348.165L460.23 346.542L462.572 345.301C462.691 345.232 465.777 343.495 466.208 339.474C466.281 338.798 466.347 338.13 466.41 337.469C466.848 332.961 467.26 328.706 469.76 325.961C470.511 325.136 471.475 323.964 472.493 322.728C474.904 319.797 477.401 316.764 479.189 315.627C480.08 315.063 482.031 314.177 485.14 312.777C488.195 311.4 493.816 308.871 494.898 307.914L495.473 306.45L497.112 307.187C497.374 307.303 499.665 308.396 500.154 310.711C500.372 311.749 500.282 313.374 498.605 315.24C497.376 316.606 494.788 318.724 491.793 321.177C488.34 324.001 481.94 329.239 481.41 330.843C481.254 334.392 480 341.822 476.311 345.056C475.913 345.403 475.514 345.777 475.116 346.151C473.631 347.536 472.096 348.966 470.203 349.719L470.201 349.715Z" fill="#7A8789"/>
<path d="M496.413 308.748C496.413 308.748 500.494 310.586 497.335 314.098C494.182 317.608 479.83 327.716 479.709 330.704C479.592 333.69 478.5 340.867 475.19 343.771C473.4 345.34 471.646 347.305 469.571 348.13C467.809 348.83 465.819 348.706 463.374 346.817C463.374 346.817 467.37 344.698 467.912 339.659C468.455 334.621 468.584 329.8 471.026 327.119C473.473 324.437 477.818 318.528 480.107 317.077C482.396 315.625 495.785 310.344 496.41 308.754M494.541 304.159L493.495 306.832C491.947 307.847 487.129 310.015 484.439 311.226C481.166 312.701 479.263 313.563 478.277 314.191C476.396 315.386 474.242 317.92 471.177 321.653C470.169 322.874 469.224 324.028 468.502 324.82C465.62 327.98 465.182 332.514 464.713 337.313C464.648 337.97 464.585 338.631 464.514 339.301C464.196 342.257 462.03 343.649 461.753 343.812L456.847 346.22L461.287 349.53C464.452 351.974 467.662 352.575 470.836 351.313C473.03 350.441 474.76 348.828 476.288 347.405C476.691 347.029 477.074 346.672 477.444 346.346C482.061 342.296 482.947 333.519 483.101 331.327C484.231 329.579 489.823 325.005 492.882 322.5C495.929 320.006 498.564 317.849 499.88 316.384C502.035 313.986 502.126 311.783 501.829 310.36C501.181 307.289 498.371 305.882 497.818 305.628L494.544 304.153L494.541 304.159Z" fill="#636F72"/>
<path d="M141.33 81.8236C144.192 76.0287 150 69.2377 155.988 68.024L156.344 67.9496L156.676 68.0949C157.109 68.2822 167.325 72.8021 169.803 79.5114C171.349 83.6853 169.63 89.753 167.69 93.6803C166.644 95.799 163.799 100.794 160.005 101.395C157.67 101.765 154.948 101.535 152.313 101.314C149.076 101.042 145.729 100.761 144.408 101.829C143.571 102.505 142.618 102.59 141.79 102.065C139.001 100.291 138.531 90.816 139.725 86.0331C140.045 84.754 140.586 83.338 141.332 81.828L141.33 81.8236Z" fill="#7A8789"/>
<path d="M166.656 93.1712C164.817 96.8945 162.256 99.8725 159.826 100.256C154.526 101.095 146.554 98.6064 143.683 100.932C140.81 103.254 139.373 92.1971 140.845 86.3091C141.146 85.1127 141.667 83.7528 142.367 82.3344C145.115 76.77 150.615 70.2902 156.217 69.151C156.217 69.151 166.388 73.5828 168.725 79.9099C169.99 83.3358 168.83 88.7711 166.658 93.1682M168.726 94.1867C170.863 89.8605 172.554 83.625 170.886 79.1115C168.24 71.9452 157.589 67.2365 157.14 67.0374L156.472 66.7454L155.758 66.8898C149.357 68.19 143.38 75.0705 140.298 81.3115C139.515 82.8954 138.946 84.3896 138.605 85.7499C137.957 88.3405 137.778 91.9152 138.122 95.3099C138.541 99.4142 139.564 102.012 141.168 103.034C142.404 103.818 143.922 103.699 145.131 102.722C146.091 101.946 149.628 102.244 152.213 102.462C154.914 102.69 157.711 102.925 160.182 102.532C164.513 101.847 167.598 96.4709 168.724 94.1896L168.726 94.1867Z" fill="#626F72"/>
</svg>
