<svg width="562" height="444" viewBox="0 0 562 444" fill="none" xmlns="http://www.w3.org/2000/svg">
<path d="M202.022 53.7632C154.937 56.7056 96.5088 71.2111 76.4487 105.012C56.3886 138.813 42.423 190.864 52.1855 245.924C61.9481 300.984 79.9005 425.244 118.307 436.848C156.713 448.452 394.48 443.695 406.64 424.358C418.8 405.021 506.193 226.242 499.609 191.679C493.025 157.115 493.504 8.16383 443.463 0.674682C393.421 -6.81446 254.616 50.4449 202.056 53.7534L202.022 53.7632Z" fill="#869193"/>
<path d="M519.868 72.9725C524.187 73.9045 543.918 72.486 546.493 80.1686C549.067 87.8513 550.726 96.052 551.64 96.8646C552.554 97.6772 563.396 114.986 561.777 119.65C560.159 124.314 527.416 133.168 518.728 127.887C510.04 122.606 499.416 109.823 500.954 100.517C502.493 91.2105 507.551 77.5725 508.366 74.8897C509.181 72.2068 515.14 71.9525 519.868 72.9725Z" fill="#869193"/>
<path d="M25.1815 157.912C27.6425 160.138 41.0135 166.617 39.8069 172.582C38.6003 178.547 36.6033 184.506 36.8932 185.377C37.1831 186.249 37.745 201.579 34.9422 204.007C32.1393 206.434 7.51206 199.913 3.8396 193.217C0.167144 186.522 -1.95091 174.219 2.54142 168.74C7.03375 163.261 15.4413 156.285 16.9781 154.845C18.5149 153.405 22.4875 155.474 25.1815 157.912Z" fill="#869193"/>
<path fill-rule="evenodd" clip-rule="evenodd" d="M202.894 58.7185L202.334 58.7535C179.12 60.2042 153.228 64.5035 130.784 72.524C108.199 80.5949 89.8973 92.1483 80.7485 107.564C61.2422 140.432 47.5742 191.277 57.1087 245.051C57.9443 249.764 58.8369 254.963 59.7943 260.541C64.4634 287.741 70.6742 323.922 79.3359 356.393C84.5557 375.962 90.5976 393.908 97.5967 407.586C104.745 421.554 112.254 429.796 119.753 432.062C124.031 433.355 131.509 434.517 141.684 435.458C151.751 436.388 164.129 437.074 178.01 437.514C205.767 438.394 239.359 438.284 272.152 437.209C304.96 436.133 336.859 434.095 361.257 431.135C373.475 429.653 383.669 427.957 391.109 426.075C394.839 425.131 397.719 424.18 399.759 423.257C401.627 422.412 402.265 421.821 402.389 421.706C402.414 421.682 402.419 421.678 402.408 421.696C408.267 412.379 433.024 363.165 455.574 311.721C466.822 286.06 477.445 260.016 484.836 238.287C488.534 227.416 491.39 217.722 493.116 209.749C494.885 201.582 495.317 195.867 494.697 192.614C493.245 184.991 492.137 172.146 490.828 156.964C490.597 154.291 490.361 151.545 490.115 148.743C488.453 129.814 486.345 107.881 482.898 86.8318C479.441 65.718 474.688 45.8394 467.872 30.8928C460.956 15.7294 452.611 7.09952 442.723 5.61961C431.173 3.89108 413.886 5.87771 393.047 10.2375C372.377 14.5619 348.851 21.0735 325.097 27.9668C318.03 30.0178 310.937 32.1042 303.898 34.1746C287.358 39.0401 271.119 43.8171 256.215 47.8383C235.334 53.4721 216.591 57.7621 202.936 58.7061L202.894 58.7185ZM202.056 53.7534C224.404 52.3466 262.345 41.1861 302.424 29.3963C356.607 13.458 414.698 -3.63012 443.463 0.674682C482.866 6.5717 490.946 100.178 495.814 156.584L495.815 156.589C497.129 171.816 498.209 184.332 499.609 191.679C506.193 226.242 418.8 405.021 406.64 424.358C394.48 443.695 156.713 448.452 118.307 436.848C83.1575 426.228 65.14 321.249 54.8533 261.314L54.8531 261.312C53.9 255.759 53.0133 250.593 52.1855 245.924C42.423 190.864 56.3886 138.813 76.4487 105.012C96.5088 71.2111 154.937 56.7056 202.022 53.7632L202.056 53.7534ZM525.252 78.4041C525.052 78.3947 524.848 78.3853 524.642 78.3758C522.577 78.2806 520.27 78.1744 518.813 77.86C516.87 77.4408 514.775 77.3166 513.267 77.5043C513.071 77.5286 512.899 77.5566 512.749 77.5861C512.551 78.18 512.31 78.8882 512.038 79.6886C510.229 85.0021 507.037 94.379 505.887 101.333C505.448 103.992 506.76 108.118 510.088 112.824C513.282 117.34 517.62 121.362 521.325 123.614C522.132 124.105 524.478 124.644 528.707 124.487C532.628 124.341 537.268 123.643 541.804 122.62C546.338 121.597 550.579 120.294 553.698 119.019C555.037 118.471 556.067 117.971 556.787 117.552C556.681 117.105 556.518 116.551 556.286 115.89C555.598 113.926 554.49 111.542 553.228 109.131C551.981 106.747 550.652 104.466 549.585 102.742C549.052 101.88 548.599 101.182 548.269 100.696C548.125 100.484 548.019 100.334 547.95 100.24C547.198 99.43 546.812 98.5365 546.691 98.2544L546.677 98.2229C546.444 97.6863 546.236 97.0913 546.055 96.5313C545.689 95.4005 545.286 93.9472 544.866 92.4114C544.789 92.1284 544.71 91.8402 544.63 91.5473C543.818 88.5676 542.874 85.1056 541.752 81.7575C541.75 81.7512 541.743 81.7317 541.715 81.6906C541.683 81.646 541.616 81.5624 541.485 81.4472C541.208 81.2032 540.715 80.8807 539.91 80.5407C538.259 79.8439 535.949 79.3412 533.216 79.0007C530.533 78.6662 527.758 78.5226 525.252 78.4041ZM519.868 72.9725C520.891 73.1933 522.779 73.2821 525.099 73.3914C532.573 73.7432 544.528 74.306 546.493 80.1686C547.663 83.6599 548.644 87.2582 549.451 90.2215C550.421 93.779 551.141 96.4213 551.64 96.8646C552.554 97.6772 563.396 114.986 561.777 119.65C560.159 124.314 527.416 133.168 518.728 127.887C510.04 122.606 499.416 109.823 500.954 100.517C502.188 93.0577 505.682 82.8156 507.44 77.6623L507.442 77.6567C507.877 76.3834 508.205 75.4214 508.366 74.8897C509.181 72.2068 515.14 71.9525 519.868 72.9725ZM21.827 161.619C22.7408 162.446 24.299 163.442 25.5765 164.258ZM25.5765 164.258C25.7131 164.345 25.8465 164.431 25.9755 164.513ZM25.9755 164.513C27.5632 165.532 29.2777 166.643 30.8558 167.835ZM30.8558 167.835C32.473 169.056 33.6813 170.169 34.3918 171.106ZM34.3918 171.106C34.6716 171.475 34.7993 171.715 34.8549 171.842ZM34.8549 171.842C34.3439 174.321 33.6933 176.799 33.1224 178.973C33.0647 179.193 33.0078 179.41 32.952 179.623C32.6504 180.775 32.36 181.9 32.1667 182.805C32.0712 183.252 31.9736 183.763 31.9174 184.259C31.9164 184.268 31.9152 184.279 31.9137 184.291C31.8856 184.529 31.7835 185.391 31.9949 186.386C32.0019 186.457 32.011 186.559 32.0213 186.698C32.0522 187.115 32.084 187.721 32.1072 188.47C32.1537 189.966 32.1629 191.919 32.0817 193.904C31.9992 195.919 31.8293 197.819 31.5563 199.27C31.5424 199.345 31.5284 199.416 31.5144 199.486C31.1068 199.455 30.6316 199.405 30.0888 199.332C27.6644 199.003 24.4848 198.278 21.2001 197.258C17.9137 196.237 14.7085 194.978 12.1893 193.648C10.93 192.983 9.93527 192.349 9.21585 191.78C8.86082 191.499 8.60875 191.263 8.43841 191.078C8.27647 190.903 8.22271 190.811 8.22271 190.811L8.22344 190.813C6.74708 188.121 5.47725 184.043 5.10729 180.06C4.71566 175.844 5.44323 173.087 6.40781 171.91C9.6862 167.912 15.1161 163.151 18.3063 160.353C18.5732 160.119 18.8244 159.899 19.0573 159.694C19.9005 160.109 20.9298 160.808 21.827 161.619M31.1153 200.886C31.1153 200.886 31.1221 200.87 31.138 200.841C31.1237 200.873 31.1153 200.886 31.1153 200.886ZM31.9857 186.301C31.986 186.304 31.9863 186.306 31.9866 186.309C31.9716 186.218 31.9737 186.202 31.9857 186.301ZM34.8943 171.952C34.8943 171.952 34.8917 171.945 34.8892 171.931C34.8936 171.945 34.8943 171.952 34.8943 171.952ZM28.4285 160.147C26.9598 159.205 25.7645 158.439 25.1815 157.912C22.4875 155.474 18.5149 153.405 16.9781 154.845C16.6731 155.13 16.0976 155.634 15.3357 156.301C12.2586 158.995 6.14226 164.349 2.54142 168.74C-1.95091 174.219 0.167144 186.522 3.8396 193.217C7.51206 199.913 32.1393 206.434 34.9422 204.007C37.745 201.579 37.1831 186.249 36.8932 185.377C36.735 184.902 37.2575 182.912 37.961 180.233C38.547 178.002 39.2586 175.293 39.8069 172.582C40.7277 168.03 33.1595 163.179 28.4285 160.147Z" fill="#241F0B"/>
<path d="M372.635 406.29C364.325 409.244 352.184 410.358 345.165 405.824L344.745 405.557L344.558 405.096C344.312 404.499 338.6 390.292 342.547 381.334C345.004 375.761 352.448 371.444 358.079 369.442C361.118 368.362 368.651 366.179 372.938 369.216C375.578 371.085 378.025 373.914 380.395 376.651C383.309 380.013 386.32 383.49 388.629 383.704C390.091 383.841 391.105 384.668 391.417 385.976C392.464 390.385 383.922 400.138 378.207 403.692C376.679 404.643 374.803 405.515 372.638 406.285L372.635 406.29Z" fill="#7A8789"/>
<path d="M358.608 370.931C363.948 369.033 369.287 368.559 372.031 370.506C378.021 374.749 383.464 384.816 388.487 385.278C393.507 385.746 384.409 397.976 377.373 402.35C375.941 403.238 374.139 404.075 372.104 404.797C364.125 407.633 352.581 408.737 346.011 404.498C346.011 404.498 340.259 390.421 343.981 381.974C345.998 377.401 352.299 373.173 358.604 370.932M357.546 367.955C351.338 370.161 343.756 374.666 341.102 380.693C336.888 390.258 342.844 405.068 343.099 405.691L343.475 406.616L344.312 407.158C351.818 412.002 364.21 410.961 373.16 407.781C375.431 406.974 377.408 406.051 379.035 405.041C382.131 403.117 385.703 399.778 388.592 396.116C392.081 391.685 393.547 388.156 392.947 385.619C392.482 383.667 390.882 382.333 388.769 382.136C387.091 381.98 383.909 378.305 381.585 375.619C379.156 372.813 376.639 369.908 373.846 367.93C368.954 364.466 360.822 366.791 357.55 367.953L357.546 367.955Z" fill="#626F72"/>
<path d="M326.945 393.222C324.543 394.076 322.124 393.503 319.752 391.514L317.877 389.943L320.071 388.881C320.185 388.826 323.08 387.328 323.609 383.633C323.699 383.012 323.781 382.398 323.861 381.79C324.412 377.646 324.929 373.73 327.322 371.289C328.039 370.555 328.962 369.513 329.938 368.405C332.253 365.786 334.649 363.075 336.336 362.087C337.174 361.598 338.999 360.849 341.905 359.667C344.765 358.502 350.016 356.368 351.043 355.524L351.62 354.193L353.104 354.931C353.341 355.048 355.413 356.137 355.786 358.289C355.953 359.255 355.816 360.751 354.212 362.413C353.036 363.631 350.586 365.494 347.75 367.651C344.48 370.136 338.419 374.743 337.879 376.204C337.618 379.473 336.221 386.284 332.72 389.138C332.342 389.445 331.963 389.776 331.585 390.107C330.173 391.332 328.714 392.598 326.947 393.226L326.945 393.222Z" fill="#7A8789"/>
<path d="M352.403 356.344C352.403 356.344 356.097 358.184 353.076 361.313C350.055 364.442 336.523 373.261 336.312 376.014C336.107 378.765 334.866 385.348 331.725 387.911C330.027 389.295 328.348 391.046 326.412 391.734C324.768 392.319 322.941 392.134 320.754 390.305C320.754 390.305 324.5 388.49 325.165 383.861C325.83 379.231 326.107 374.787 328.442 372.4C330.781 370.012 334.974 364.713 337.128 363.454C339.286 362.194 351.773 357.794 352.4 356.35M350.832 352.044L349.781 354.473C348.324 355.355 343.82 357.186 341.306 358.209C338.245 359.454 336.466 360.182 335.538 360.728C333.768 361.764 331.704 364.026 328.761 367.362C327.793 368.453 326.886 369.485 326.196 370.19C323.44 373.004 322.888 377.172 322.298 381.583C322.217 382.187 322.137 382.795 322.05 383.41C321.66 386.127 319.618 387.336 319.362 387.475L314.769 389.524L318.744 392.735C321.576 395.101 324.51 395.769 327.472 394.716C329.518 393.989 331.163 392.561 332.616 391.302C332.999 390.97 333.363 390.653 333.715 390.366C338.095 386.792 339.199 378.725 339.413 376.708C340.51 375.135 345.805 371.112 348.702 368.908C351.588 366.714 354.082 364.816 355.342 363.511C357.403 361.375 357.56 359.345 357.333 358.022C356.838 355.165 354.299 353.768 353.798 353.515L350.835 352.038L350.832 352.044Z" fill="#626F72"/>
<path d="M90.4443 116.282C90.805 115.621 91.2326 115.041 91.714 114.555C98.6902 107.508 106.838 100.288 115.207 103.821C118.921 105.39 121.184 105.952 122.837 106.361C124.756 106.838 126.023 107.152 127.606 108.617C128.116 109.091 128.236 109.749 127.916 110.336C126.819 112.347 118.338 113.513 118.251 113.527C116.585 113.745 106.341 117.106 101.1 126.713C99.7683 129.152 98.841 131.841 98.3479 134.706C98.3152 135.319 98.2534 136.166 98.1816 137.142C98.0276 139.228 97.7426 143.103 97.9213 143.806C98.0643 144.178 98.0399 144.578 97.8474 144.931C97.3857 145.777 96.0807 146.073 94.9954 145.99C93.7169 145.894 92.7941 145.298 92.4611 144.354C92.3924 144.16 85.9336 124.549 90.4443 116.282Z" fill="#7A8789"/>
<path d="M127.059 109.869C126.399 111.08 119.906 112.321 118.132 112.553C116.486 112.769 105.782 116.094 100.244 126.243C98.94 128.633 97.9208 131.403 97.3735 134.6C97.2582 136.913 96.6349 143.241 97.0053 144.157C97.0486 144.264 97.0396 144.368 96.9898 144.459C96.6075 145.16 93.8629 145.388 93.3802 144.02C92.8716 142.577 87.2023 124.255 91.297 116.751C91.6066 116.183 91.9713 115.678 92.4005 115.246C98.4867 109.104 106.761 101.325 114.82 104.727C122.88 108.129 124.299 106.896 126.941 109.34C127.127 109.512 127.156 109.691 127.061 109.866M128.774 110.801C129.303 109.832 129.1 108.661 128.271 107.892C126.504 106.259 125.066 105.903 123.078 105.408C121.456 105.006 119.235 104.453 115.591 102.913C111.443 101.162 106.831 101.767 101.885 104.715C97.8237 107.135 94.1489 110.703 91.0225 113.86C90.476 114.414 89.9918 115.068 89.5866 115.811C87.6536 119.353 87.3503 125.136 88.6855 132.997C89.657 138.714 91.2065 143.743 91.5384 144.683C91.9986 145.987 93.2613 146.84 94.9149 146.964C96.2145 147.062 97.9854 146.709 98.7042 145.392C99.0152 144.822 99.0737 144.156 98.8725 143.547C98.7541 142.675 99.0242 138.991 99.1566 137.2C99.2275 136.249 99.2885 135.421 99.3201 134.805C99.7993 132.07 100.686 129.502 101.956 127.174C104.667 122.205 108.716 119.093 111.634 117.353C115.153 115.259 117.963 114.544 118.37 114.491C119.253 114.374 121.422 113.996 123.479 113.473C127.174 112.54 128.266 111.731 128.773 110.804L128.774 110.801Z" fill="#626F72"/>
</svg>
