<svg width="461" height="396" viewBox="0 0 461 396" fill="none" xmlns="http://www.w3.org/2000/svg">
<path d="M93.4894 82.8979C132.052 78.6104 219.347 25.0817 240.334 48.5655C261.321 72.0493 326.135 86.0486 333.769 82.8979C341.404 79.7473 392.247 79.7148 399.882 98.164C407.517 116.613 471.063 222.729 459.627 254.495C448.191 286.262 286.11 405.76 243.518 394.943C200.927 384.127 89.0711 371.427 87.804 333.944C86.537 296.461 -2.51211 208.697 0.054428 187.097C2.62097 165.497 24.8426 90.4985 93.4894 82.8979Z" fill="#869193"/>
<path fill-rule="evenodd" clip-rule="evenodd" d="M94.0419 87.8673L94.0396 87.8676C61.6719 91.4513 40.1246 110.873 26.1928 132.459C12.1966 154.145 6.22398 177.55 5.0195 187.687C4.8819 188.845 5.38542 191.437 7.53884 195.897C9.57577 200.117 12.6932 205.232 16.6474 211.084C23.1359 220.687 31.5717 231.836 40.5278 243.672C42.4934 246.27 44.4841 248.9 46.4848 251.555C57.5294 266.211 68.8335 281.545 77.4599 295.609C81.7763 302.647 85.4856 309.468 88.1693 315.81C90.8313 322.101 92.6134 328.218 92.8012 333.775C93.0264 340.437 98.2217 347.024 109.205 353.452C119.963 359.748 134.89 365.05 151.492 369.623C168.03 374.179 185.894 377.922 202.378 381.217C205.499 381.841 208.577 382.45 211.59 383.046C224.383 385.577 235.998 387.875 244.749 390.097C248.815 391.13 254.995 390.713 263.265 388.489C271.396 386.301 280.966 382.531 291.495 377.515C312.54 367.488 336.914 352.727 360.424 336.567C383.921 320.417 406.417 302.965 423.707 287.623C432.356 279.948 439.638 272.857 445.074 266.765C450.643 260.525 453.845 255.796 454.923 252.802C455.983 249.857 456.307 245.595 455.686 239.961C455.074 234.399 453.589 227.898 451.406 220.715C447.041 206.352 440.049 189.785 432.38 173.462C424.725 157.166 416.467 141.262 409.62 128.233C408.636 126.361 407.677 124.54 406.75 122.781C401.318 112.469 396.991 104.254 395.262 100.076C394.099 97.2653 390.957 94.5038 385.443 92.1514C380.064 89.8569 373.25 88.3101 366.18 87.3892C359.149 86.4734 352.1 86.2064 346.379 86.3579C343.519 86.4337 341.044 86.6127 339.108 86.8542C337.036 87.1126 335.973 87.3976 335.677 87.5198C334.46 88.0219 333.129 88.199 332.052 88.2767C330.884 88.3608 329.57 88.354 328.174 88.2843C325.376 88.1445 321.935 87.7347 318.085 87.0981C310.368 85.8223 300.679 83.5803 290.599 80.5016C280.522 77.424 269.941 73.4758 260.481 68.7539C251.091 64.0668 242.462 58.4499 236.606 51.8973C233.217 48.1048 226.281 46.6054 214.71 48.3631C203.527 50.0617 189.861 54.5196 175.259 59.9987C167.996 62.7243 160.587 65.6689 153.214 68.6041L152.471 68.9001C145.366 71.7291 138.298 74.5434 131.515 77.1008C117.609 82.3444 104.383 86.7176 94.0419 87.8673ZM150.639 64.2478C128.799 72.9438 107.792 81.3077 93.4894 82.8979C24.8426 90.4985 2.62097 165.497 0.054428 187.097C-1.11377 196.929 16.6985 220.468 36.5742 246.734C60.3656 278.174 87.1137 313.522 87.804 333.944C88.815 363.851 160.229 377.981 210.69 387.965C223.472 390.494 234.91 392.757 243.518 394.943C286.11 405.76 448.191 286.262 459.627 254.495C468.618 229.519 431.258 158.583 411.164 120.431C405.701 110.058 401.514 102.108 399.882 98.164C392.247 79.7148 341.404 79.7473 333.769 82.8979C326.135 86.0486 261.321 72.0493 240.334 48.5655C227.131 33.7916 187.685 49.4975 150.639 64.2478Z" fill="#241F0B"/>
<path d="M328.11 51.0059C324.846 56.7246 318.28 68.2221 312.283 67.8995C306.286 67.5769 294.998 58.1152 290.489 59.187C285.981 60.2589 275.39 55.5276 272.886 52.7931C270.383 50.0586 271.563 31.0169 274.232 27.4242C276.902 23.8315 293.206 1.91294 295.975 0.27828C298.744 -1.35637 325.782 4.58033 330.088 8.44421C334.394 12.3081 347.769 23.3351 344.109 29.4608C340.45 35.5865 332.111 43.9825 328.107 51.0033L328.11 51.0059Z" fill="#869193"/>
<path fill-rule="evenodd" clip-rule="evenodd" d="M328.107 51.0033C330.236 47.2697 333.591 43.1472 336.817 39.1841C339.656 35.6947 342.396 32.3289 344.109 29.4608C347.489 23.8041 336.342 13.9678 331.224 9.45222C330.8 9.07784 330.417 8.74003 330.088 8.44421C325.782 4.58033 298.744 -1.35637 295.975 0.27828C293.206 1.91294 276.902 23.8315 274.232 27.4242C271.563 31.0169 270.383 50.0586 272.886 52.7931C275.39 55.5276 285.981 60.2589 290.489 59.187C292.843 58.6274 297.045 60.939 301.377 63.3222C305.342 65.5037 309.417 67.7453 312.283 67.8995C318.28 68.2221 324.846 56.7246 328.11 51.0059L328.107 51.0033ZM322.903 50.0346C321.354 52.7176 319.412 55.9387 317.295 58.6217C316.029 60.2276 314.857 61.4348 313.845 62.1868C312.978 62.831 312.561 62.8975 312.522 62.9049C312.023 62.8691 310.935 62.5743 309.087 61.7164C307.453 60.9576 305.688 59.9869 303.759 58.9262C303.586 58.8309 303.411 58.7348 303.235 58.6381C301.208 57.5242 298.95 56.2961 296.87 55.4328C295.819 54.9964 294.667 54.59 293.495 54.3457C292.36 54.109 290.883 53.9541 289.333 54.3226C289.336 54.3219 289.336 54.3221 289.333 54.3226C289.309 54.3263 289.134 54.3535 288.762 54.3371C288.355 54.319 287.824 54.2536 287.176 54.1231C285.873 53.8606 284.338 53.3847 282.772 52.7664C281.213 52.1513 279.733 51.4393 278.546 50.7586C277.953 50.419 277.471 50.1084 277.106 49.8449C277.042 49.7985 276.984 49.7556 276.933 49.7165C276.83 49.2787 276.725 48.6213 276.645 47.7339C276.473 45.8223 276.462 43.3303 276.611 40.7144C276.759 38.1067 277.058 35.53 277.454 33.4599C277.653 32.4223 277.862 31.5893 278.06 30.9799C278.199 30.5538 278.294 30.3582 278.312 30.3167C279.73 28.4096 284.371 22.1728 289.018 16.1809C291.383 13.131 293.719 10.1832 295.619 7.91371C296.572 6.77451 297.378 5.85193 298.001 5.1887C298.063 5.12209 298.121 5.06087 298.175 5.00472C298.908 5.02516 299.932 5.11248 301.226 5.27989C304.011 5.64018 307.617 6.31486 311.331 7.17141C315.043 8.02746 318.746 9.03844 321.732 10.0458C323.228 10.5507 324.474 11.0314 325.42 11.4642C326.278 11.8564 326.651 12.1033 326.734 12.1582C326.753 12.1705 326.757 12.1731 326.748 12.1656C327.118 12.4976 327.532 12.8634 327.98 13.2587C330.344 15.3471 333.639 18.2582 336.285 21.3536C337.865 23.2008 338.935 24.8041 339.446 26.0425C339.669 26.5832 339.724 26.8909 339.734 27.034C338.207 29.5514 335.722 32.6054 332.816 36.178C332.665 36.3646 332.512 36.5527 332.358 36.7421C329.37 40.4171 326.006 44.5938 323.763 48.5265L322.903 50.0346ZM339.73 27.134C339.732 27.135 339.736 27.1191 339.736 27.0831C339.728 27.1149 339.728 27.1329 339.73 27.134ZM277.053 50.1267C277.053 50.1267 277.048 50.1083 277.033 50.0771C277.046 50.1121 277.053 50.1267 277.053 50.1267Z" fill="#241F0B"/>
<path d="M60.4962 167.683C53.8566 170.678 43.9335 172.446 37.8384 169.247L37.4742 169.059L37.2879 168.697C37.044 168.227 31.3548 157.051 33.9849 149.469C35.6182 144.75 41.4545 140.706 45.9542 138.676C48.3819 137.581 54.4352 135.268 58.1764 137.44C60.4804 138.777 62.6917 140.91 64.834 142.973C67.4665 145.508 70.1873 148.128 72.1045 148.139C73.3176 148.147 74.2108 148.75 74.5582 149.794C75.7259 153.314 69.3661 161.869 64.9057 165.17C63.7127 166.053 62.2282 166.897 60.4981 167.678L60.4962 167.683Z" fill="#7A8789"/>
<path d="M46.4933 139.852C50.7594 137.928 55.124 137.163 57.5192 138.556C62.7465 141.591 67.9276 149.411 72.0966 149.432C76.2637 149.458 69.6176 160.072 64.1252 164.136C63.0077 164.96 61.5811 165.77 59.9559 166.503C53.5804 169.38 44.1485 171.096 38.4435 168.107C38.4435 168.107 32.7304 157.039 35.2112 149.889C36.555 146.019 41.4518 142.127 46.4899 139.854M45.412 137.501C40.4552 139.738 34.5229 143.947 32.754 149.047C29.9433 157.144 35.8779 168.794 36.1276 169.285L36.5018 170.013L37.2283 170.394C43.7464 173.812 53.8811 172.087 61.0319 168.86C62.8467 168.042 64.4112 167.149 65.6811 166.211C68.0979 164.424 70.8083 161.449 72.9341 158.26C75.501 154.401 76.4638 151.42 75.7933 149.395C75.2752 147.836 73.8648 146.863 72.1108 146.851C70.7179 146.843 67.8428 144.073 65.7424 142.048C63.5471 139.932 61.273 137.742 58.8353 136.328C54.5646 133.847 48.0293 136.321 45.4154 137.5L45.412 137.501Z" fill="#626F72"/>
<path d="M259.444 373.017C258.761 373.334 258.072 373.546 257.396 373.651C247.597 375.168 236.753 376.128 232.125 368.311C230.072 364.841 228.587 363.044 227.501 361.731C226.242 360.207 225.41 359.201 225.009 357.082C224.88 356.398 225.175 355.797 225.782 355.515C227.859 354.551 235.372 358.657 235.45 358.697C236.918 359.513 247.153 362.902 257.08 358.295C259.601 357.125 261.945 355.515 264.046 353.504C264.436 353.031 264.989 352.387 265.627 351.646C266.992 350.06 269.525 347.114 269.799 346.442C269.906 346.058 270.163 345.751 270.528 345.582C271.402 345.176 272.627 345.714 273.451 346.426C274.422 347.263 274.809 348.291 274.515 349.248C274.455 349.445 267.986 369.053 259.444 373.017Z" fill="#7A8789"/>
<path d="M226.192 356.401C227.444 355.82 233.401 358.683 234.966 359.552C236.418 360.357 247.001 364.048 257.488 359.182C259.958 358.035 262.425 356.414 264.766 354.169C266.234 352.378 270.498 347.661 270.745 346.704C270.774 346.593 270.843 346.514 270.937 346.471C271.661 346.135 274.003 347.583 273.578 348.97C273.129 350.433 266.792 368.535 259.037 372.134C258.451 372.406 257.857 372.595 257.255 372.687C248.71 374.006 237.432 375.34 232.975 367.812C228.518 360.285 226.644 360.432 225.973 356.896C225.926 356.647 226.009 356.486 226.19 356.402M225.368 354.631C224.366 355.096 223.834 356.158 224.042 357.269C224.492 359.633 225.437 360.774 226.74 362.355C227.806 363.643 229.263 365.407 231.277 368.812C233.57 372.687 237.638 374.943 243.368 375.514C248.072 375.983 253.148 375.3 257.539 374.621C258.308 374.501 259.086 374.262 259.853 373.906C263.514 372.207 267.197 367.739 270.798 360.624C273.416 355.451 275.161 350.485 275.453 349.532C275.859 348.21 275.35 346.774 274.095 345.691C273.108 344.839 271.474 344.07 270.113 344.702C269.524 344.975 269.081 345.476 268.881 346.085C268.458 346.856 266.049 349.658 264.878 351.019C264.256 351.741 263.714 352.37 263.322 352.847C261.311 354.761 259.071 356.298 256.665 357.415C251.531 359.797 246.426 359.892 243.045 359.556C238.97 359.147 236.286 358.051 235.928 357.852C235.148 357.42 233.179 356.435 231.214 355.632C227.689 354.185 226.329 354.186 225.371 354.63L225.368 354.631Z" fill="#626F72"/>
</svg>
