<svg width="1440" height="56" viewBox="0 0 1440 56" fill="none" xmlns="http://www.w3.org/2000/svg">
<path d="M445 0H995C995 0 941.949 4.68865 910.393 18.143C878.837 31.5974 821.471 64.1302 760.531 54.1173C699.59 44.1045 722.515 28.1559 668.035 25.9615C613.554 23.767 583.428 43.4809 545.412 36.5979C507.397 29.7148 508.826 4.0651 445 0Z" fill="#A08C44"/>
<path d="M0 0H445C445 0 402.077 4.68859 376.545 18.1428C351.014 31.597 304.599 64.1294 255.293 54.1167C205.987 44.104 224.535 28.1555 180.455 25.9611C136.376 23.7667 112.001 43.4804 81.2427 36.5974C50.4848 29.7144 51.6413 4.06505 0 0Z" fill="#77672D"/>
<path d="M995 0H1440C1440 0 1397.08 4.68859 1371.55 18.1428C1346.01 31.597 1299.6 64.1294 1250.29 54.1167C1200.99 44.104 1219.53 28.1555 1175.46 25.9611C1131.38 23.7667 1107 43.4804 1076.24 36.5974C1045.48 29.7144 1046.64 4.06505 995 0Z" fill="#77672D"/>
</svg>
