<svg width="1440" height="222" viewBox="0 0 1440 222" fill="none" xmlns="http://www.w3.org/2000/svg">
<path d="M0 49.9999V222H336C336 222 270.458 212.712 260.935 195.915C251.412 179.119 246.045 168.068 221.016 165.407C195.987 162.746 161.434 179.559 153.693 161.424C145.951 143.288 165.614 111.458 119.14 100.407C72.6672 89.3558 73.8547 90.6779 67.9171 77.8643C61.9795 65.0507 35.7398 68.5762 25.6231 65.4914C15.5063 62.4067 2.37504 63.2711 0 49.9999Z" fill="#574B1E"/>
<path d="M200.62 100.841C195.401 99.6541 188.578 99.3634 185.313 102.401C182.048 105.439 178.863 110.659 178.164 116.966C177.465 123.273 175.443 137.375 179.252 139.868C183.061 142.36 209.092 149.451 211.034 147.735C212.976 146.019 228.208 129.352 228.597 125.379C228.986 121.405 233.804 105.204 228.597 102.788C223.39 100.371 206.45 102.162 200.624 100.841H200.62Z" fill="#574B1E"/>
<path d="M47.9328 22.3425C51.6768 18.9421 56.8165 6.64235 60.8192 7.50324C64.8219 8.36412 72.7287 4.87626 73.2947 3.96132C73.8607 3.04638 79.2248 -0.846495 81.435 0.507086C83.6451 1.86067 98.4297 8.14421 99.6407 12.3553C100.852 16.5664 92.8394 41.5157 87.5205 43.6379C82.2016 45.7601 69.4284 52.9831 66.4416 49.1434C63.4547 45.3037 47.3751 42.8985 46.0019 40.4336C44.6287 37.9688 41.2655 28.3921 47.9328 22.3425Z" fill="#574B1E"/>
<path d="M222.334 213.531C219.359 212.218 210.833 212.344 210.268 209.803C209.703 207.262 205.568 203.554 204.884 203.457C204.201 203.359 200.508 201.23 200.707 199.605C200.906 197.98 200.624 187.809 202.752 186.041C204.88 184.273 221.532 182.616 224.183 185.167C226.834 187.718 234.439 193.307 233 196.011C231.561 198.716 234.444 208.658 233.376 210.078C232.307 211.499 227.63 215.872 222.334 213.531Z" fill="#77672D"/>
<path d="M137.505 10.4716C143.256 11.5847 169.365 9.14663 172.995 19.2558C176.624 29.365 179.055 40.1866 180.289 41.2377C181.523 42.2888 196.382 64.922 194.369 71.1487C192.355 77.3754 149.211 90.0359 137.547 83.283C125.884 76.5301 111.442 59.8894 113.218 47.5119C114.993 35.1343 121.312 16.9165 122.316 13.3378C123.32 9.75915 131.21 9.25347 137.505 10.4716Z" fill="#574B1E"/>
<path d="M80.7012 145.837C77.2645 147.914 65.1057 161.155 58.6131 157.681C52.1204 154.208 45.9104 149.821 44.7994 149.854C43.6885 149.886 25.7282 145.205 23.8902 141.112C22.0523 137.02 38.1767 110.75 47.2129 108.823C56.2492 106.897 71.2432 108.723 76.0291 115.834C80.8151 122.946 85.9751 135.116 87.1091 137.398C88.2432 139.679 84.4629 143.563 80.7012 145.837Z" fill="#77672D"/>
<path d="M1440 96V222H1104C1104 222 1169.54 215.196 1179.07 202.891C1188.59 190.587 1193.95 182.492 1218.98 180.542C1244.01 178.593 1278.57 190.91 1286.31 177.624C1294.05 164.339 1274.39 141.021 1320.86 132.926C1367.33 124.831 1366.15 125.799 1372.08 116.412C1378.02 107.026 1404.26 109.608 1414.38 107.348C1424.49 105.089 1437.62 105.722 1440 96Z" fill="#574B1E"/>
<path d="M1362.32 68.4258C1359.82 71.4974 1357.38 75.9275 1358.32 79.0912C1359.27 82.2549 1361.68 86.083 1365.64 88.6192C1369.59 91.1554 1378.28 97.1307 1381.18 95.4235C1384.09 93.7163 1397.34 78.7817 1396.84 76.9296C1396.34 75.0775 1390.3 59.498 1387.79 57.934C1385.28 56.37 1376.12 47.8506 1372.81 50.5099C1369.49 53.1692 1365.11 64.9931 1362.32 68.4232L1362.32 68.4258Z" fill="#574B1E"/>
<path d="M1387.32 144.426C1384.82 147.497 1382.38 151.928 1383.32 155.091C1384.27 158.255 1386.68 162.083 1390.64 164.619C1394.59 167.155 1403.28 173.131 1406.18 171.424C1409.09 169.716 1422.34 154.782 1421.84 152.93C1421.34 151.078 1415.3 135.498 1412.79 133.934C1410.28 132.37 1401.12 123.851 1397.81 126.51C1394.49 129.169 1390.11 140.993 1387.32 144.423L1387.32 144.426Z" fill="#77672D"/>
<path d="M1232.8 130.412C1236.93 130.448 1246.82 125.928 1248.74 128.66C1250.66 131.393 1257.33 133.682 1258.17 133.448C1259.02 133.213 1264.39 133.852 1264.96 135.887C1265.54 137.922 1270.91 149.873 1269.3 153.066C1267.7 156.259 1249.08 166.765 1244.72 165.09C1240.36 163.416 1228.71 160.668 1229.05 156.714C1229.38 152.76 1221.09 142.415 1221.63 140.178C1222.17 137.941 1225.46 130.343 1232.8 130.412Z" fill="#574B1E"/>
<path d="M1230.9 204.401C1228.98 205.954 1226.13 211.807 1224.2 211.276C1222.27 210.745 1218.32 212.224 1218.02 212.655C1217.72 213.085 1214.99 214.833 1213.95 214.112C1212.91 213.39 1205.88 209.915 1205.41 207.828C1204.94 205.741 1209.54 193.802 1212.19 192.916C1214.84 192.029 1221.27 188.864 1222.62 190.82C1223.97 192.775 1231.74 194.396 1232.34 195.636C1232.94 196.876 1234.31 201.638 1230.9 204.401Z" fill="#77672D"/>
<path d="M1257.97 76.3239C1260.92 72.557 1268.86 52.6688 1277.56 53.7909C1286.26 54.913 1295.03 57.1722 1296.26 56.6658C1297.48 56.1595 1319.46 53.7773 1323.24 57.5576C1327.02 61.3379 1320.17 97.4132 1310.92 103.38C1301.67 109.348 1284.2 113.656 1275.87 107.761C1267.53 101.865 1256.64 90.494 1254.41 88.4325C1252.18 86.371 1254.75 80.4472 1257.97 76.3239Z" fill="#574B1E"/>
</svg>
