<svg width="132" height="332" viewBox="0 0 132 332" fill="none" xmlns="http://www.w3.org/2000/svg">
<path fill-rule="evenodd" clip-rule="evenodd" d="M107.738 29.7106C107.741 29.83 107.539 30.9814 108.277 33.9432C109.159 37.4821 110.924 41.8122 113.184 46.6C114.632 49.6674 116.079 52.5132 117.504 55.3161C118.352 56.9828 119.192 58.6343 120.019 60.3084C121.059 62.4108 122.067 64.5328 122.859 66.4732C123.564 68.2034 124.468 70.652 124.724 73.1498C124.943 75.2835 124.572 77.251 124.316 78.4062C124.014 79.7659 123.582 81.2005 123.108 82.6107C122.157 85.4377 120.793 88.8752 119.202 92.6845C117.416 96.9624 115.175 102.104 112.693 107.797C110.803 112.134 108.773 116.79 106.697 121.63C96.919 144.436 85.4079 172.968 78.2013 201.046L71.3088 227.9L68.1691 221.249C64.6866 225.74 60.6685 229.712 56.434 233.44C52.3646 237.024 47.8744 240.566 43.3759 244.116C42.6386 244.697 41.901 245.279 41.1651 245.862C35.8449 250.071 30.3926 254.465 24.8688 259.514C21.1632 262.901 20.5918 265.715 20.8029 268.062C21.0667 270.994 22.7617 274.779 26.2823 278.965C29.7198 283.052 34.298 286.791 38.8858 289.558C43.6897 292.455 47.4634 293.664 49.2129 293.813C55.585 294.356 61.1135 297.269 65.3395 299.926C67.5266 301.3 69.6459 302.794 71.5573 304.153C71.8163 304.338 72.071 304.519 72.322 304.698C73.9946 305.889 75.5023 306.964 77.0105 307.963C80.6089 310.347 83.0054 311.458 84.7575 311.768C85.8662 311.964 86.9359 311.937 88.7189 310.555C89.8614 309.669 91.6551 307.043 92.9326 300.883C94.1417 295.053 94.5502 287.744 94.5149 279.758C94.485 272.991 94.1453 266.164 93.8253 259.733C93.7697 258.615 93.7146 257.509 93.6619 256.417C93.3272 249.485 93.0278 242.359 93.6382 237.428C94.2719 232.308 96.9928 223.521 100.278 213.922C103.706 203.907 108.177 191.823 112.876 179.473C118.521 164.635 124.719 148.845 129.815 135.86C133.075 127.557 135.884 120.4 137.811 115.371C144.229 98.6236 157.756 89.0587 169.255 82.3007C172.056 80.6544 174.851 79.113 177.44 77.685L177.743 77.5179C180.466 76.0161 182.934 74.6503 185.21 73.2884C189.912 70.476 192.847 68.2173 194.525 66.129C194.535 66.1171 194.543 66.1062 194.551 66.0964C194.524 65.9264 194.441 65.5807 194.191 65.0356C193.294 63.0797 191.067 60.3625 187.571 57.6021C184.177 54.9219 180.411 52.8541 177.448 51.7993C176.68 51.5259 176.07 51.3583 175.618 51.258C170.27 54.2926 164.396 53.1685 160.824 51.9838C156.363 50.5045 151.857 47.8043 147.813 44.9006C139.609 39.0105 131.074 30.6507 124.963 23.2791C123.317 21.2949 121.992 20.7243 121.175 20.5293C120.282 20.3163 119.064 20.3382 117.42 20.953C113.899 22.2706 110.036 25.7601 107.738 29.7106ZM174.655 51.1205C174.653 51.1191 174.682 51.1178 174.742 51.1204C174.686 51.1231 174.656 51.1218 174.655 51.1205ZM66.3582 170.568C73.1951 149.852 81.3058 130.098 88.3157 113.749C90.5208 108.606 92.5839 103.875 94.4702 99.5495C96.8734 94.0386 98.9896 89.1859 100.747 84.9781C102.297 81.2642 103.436 78.3618 104.151 76.2346C104.359 75.6183 104.51 75.1257 104.619 74.7426C104.547 74.5481 104.455 74.3101 104.339 74.0251C103.827 72.7691 103.077 71.1661 102.091 69.1733C101.46 67.8971 100.713 66.4257 99.9081 64.8408C98.3787 61.8292 96.6411 58.4078 95.0974 55.1375C92.6923 50.0424 90.2411 44.2779 88.8708 38.7791C87.6178 33.7506 86.6072 26.4619 90.1881 20.1123C94.2863 12.8453 101.551 5.53631 110.412 2.22108C114.994 0.506866 120.311 -0.237985 125.816 1.07525C131.396 2.40654 136.331 5.6552 140.359 10.514C145.594 16.8285 152.909 23.9385 159.477 28.6542C162.775 31.0218 165.36 32.4034 167.052 32.9781C170.169 31.2465 173.449 31.0387 175.681 31.1424C178.612 31.2788 181.539 32.0265 184.155 32.9576C189.428 34.8348 195.087 38.0532 199.965 41.9052C204.742 45.677 209.637 50.7379 212.37 56.6978C215.309 63.1045 215.948 71.3979 210.116 78.6563C206.103 83.6506 200.581 87.3991 195.477 90.452C192.851 92.0227 190.079 93.5541 187.403 95.0306L187.181 95.1529C184.532 96.6138 181.949 98.0383 179.389 99.5432C168.718 105.815 160.35 112.446 156.486 122.528C154.366 128.061 151.497 135.367 148.215 143.726C143.228 156.424 137.288 171.553 131.568 186.585C126.896 198.864 122.519 210.703 119.201 220.399C115.739 230.511 113.816 237.224 113.487 239.884C113.134 242.733 113.275 247.913 113.639 255.453C113.689 256.49 113.742 257.56 113.797 258.656C114.117 265.068 114.483 272.409 114.515 279.669C114.552 288.129 114.148 297.074 112.516 304.944C110.952 312.485 107.875 321.008 100.975 326.359C94.7144 331.214 87.9235 332.639 81.2728 331.462C75.2655 330.399 70.0039 327.312 65.9636 324.635C64.15 323.433 62.3397 322.143 60.6914 320.969C60.445 320.793 60.2022 320.62 59.9636 320.45C58.0553 319.093 56.3497 317.898 54.6963 316.858C51.2415 314.687 49.0273 313.869 47.5133 313.74C41.3767 313.217 34.5276 310.285 28.5581 306.685C22.3726 302.955 16.027 297.843 10.9762 291.838C6.00841 285.932 1.65068 278.383 0.883377 269.854C0.0634652 260.741 3.48259 251.966 11.3752 244.752C17.4498 239.199 23.3652 234.442 28.7552 230.177C29.5341 229.561 30.298 228.958 31.0477 228.366C35.577 224.791 39.5863 221.627 43.2169 218.43C51.5329 211.108 56.6269 204.647 58.8263 196.07L65.7154 169.206L66.3582 170.568ZM168.041 33.2336C168.044 33.2379 167.994 33.2355 167.883 33.2137C167.983 33.2184 168.038 33.2293 168.041 33.2336ZM104.837 73.83C104.838 73.8287 104.834 73.8585 104.822 73.9228C104.83 73.8634 104.836 73.8314 104.837 73.83Z" fill="#574B1E"/>
<path d="M68.5152 198.56C83.3306 140.837 115.59 82.0921 114.776 74.1712C113.963 66.2503 92.5201 36.3345 98.8984 25.0245C105.277 13.7145 121.314 3.21051 132.661 16.8966C144.008 30.5826 164.358 47.8362 171.399 42.0662C178.44 36.2961 213.702 58.2273 202.32 72.3926C190.938 86.5579 157.431 92.1197 147.148 118.95C136.866 145.78 105.488 223.096 103.562 238.656C101.637 254.216 110.933 305.983 94.8468 318.457C78.7602 330.931 64.1354 305.122 48.3631 303.777C32.5908 302.431 -5.07457 273.336 18.122 252.133C41.3186 230.929 62.6709 221.335 68.5128 198.554L68.5152 198.56Z" fill="#FBF3D6"/>
<path fill-rule="evenodd" clip-rule="evenodd" d="M115.143 14.8651C109.84 16.8489 104.818 21.653 101.947 26.7438C101.048 28.3385 100.889 31.1744 101.97 35.5149C103.011 39.6908 104.998 44.487 107.306 49.3747C108.784 52.5062 110.321 55.5301 111.782 58.4056C112.619 60.0514 113.431 61.6486 114.193 63.1895C115.215 65.2563 116.139 67.2096 116.84 68.9275C117.51 70.5719 118.102 72.2959 118.258 73.8137C118.368 74.8823 118.187 76.0218 117.97 76.9977C117.738 78.0453 117.384 79.2398 116.947 80.5385C116.073 83.138 114.782 86.4016 113.204 90.1799C111.427 94.435 109.227 99.4811 106.771 105.116C104.882 109.449 102.84 114.131 100.723 119.069C90.9211 141.931 79.2427 170.843 71.9053 199.43L69.493 208.829L68.9497 207.678C65.1046 215.895 59.1441 222.393 52.1384 228.562C48.2121 232.019 43.8786 235.439 39.3702 238.996C38.6285 239.582 37.882 240.171 37.1319 240.764C31.789 244.992 26.1862 249.503 20.4834 254.716C15.417 259.347 13.9201 264.098 14.3291 268.644C14.7565 273.395 17.3169 278.403 21.3078 283.149C25.2696 287.859 30.4222 292.045 35.5293 295.124C40.712 298.249 45.4852 300.018 48.6605 300.289C53.4538 300.698 57.9051 302.93 61.8805 305.429C63.8941 306.694 65.879 308.091 67.7893 309.45C68.0421 309.63 68.2933 309.809 68.5431 309.987C70.2075 311.172 71.8132 312.316 73.4203 313.381C77.1622 315.861 80.49 317.614 83.625 318.168C86.5348 318.683 89.4639 318.202 92.702 315.691C95.7159 313.354 97.9266 308.812 99.2972 302.203C100.644 295.71 101.051 287.869 101.015 279.729C100.984 272.802 100.636 265.808 100.316 259.383C100.261 258.272 100.206 257.178 100.154 256.104C99.8101 248.974 99.5624 242.48 100.089 238.226C100.624 233.906 103.085 225.793 106.428 216.027C109.82 206.116 114.261 194.111 118.951 181.785C124.62 166.884 130.732 151.314 135.793 138.422C139.061 130.097 141.891 122.889 143.88 117.697C149.468 103.116 161.319 94.5045 172.548 87.9045C175.271 86.3043 177.997 84.8009 180.604 83.3633L180.882 83.2095C183.59 81.7159 186.157 80.2963 188.547 78.8666C193.379 75.976 197.155 73.2331 199.592 70.2003C201.392 67.96 201.522 65.4266 200.099 62.3258C198.606 59.0686 195.512 55.5897 191.599 52.5006C187.723 49.4396 183.341 46.9978 179.628 45.6758C177.763 45.0121 176.209 44.6816 175.053 44.6278C173.955 44.5768 173.606 44.788 173.604 44.7846C173.604 44.7846 173.604 44.7849 173.604 44.7846C170.415 47.3876 166.282 46.946 162.87 45.8143C159.31 44.6336 155.42 42.3603 151.604 39.6205C143.931 34.1121 135.793 26.1585 129.966 19.1305C127.547 16.212 125.048 14.771 122.683 14.2067C120.291 13.6361 117.741 13.893 115.143 14.8651ZM67.6274 188.481C75.0797 162.446 85.4974 136.817 94.2897 116.311C96.4523 111.267 98.5051 106.559 100.393 102.229C102.822 96.6583 104.978 91.7132 106.745 87.4827C108.308 83.7378 109.52 80.6615 110.312 78.3068C110.709 77.1284 110.979 76.1922 111.137 75.4809C111.268 74.8915 111.286 74.6054 111.291 74.5334C111.293 74.5098 111.293 74.5093 111.295 74.5287C111.247 74.0663 110.991 73.1226 110.358 71.5707C109.755 70.0923 108.921 68.3206 107.918 66.2922C107.225 64.8905 106.445 63.3564 105.624 61.7391C104.126 58.7904 102.487 55.5653 100.975 52.3628C98.6175 47.3676 96.3895 42.0693 95.178 37.2074C94.0075 32.5102 93.56 27.3655 95.8498 23.3052C99.3571 17.086 105.542 10.9831 112.69 8.30894C116.317 6.95204 120.302 6.44215 124.308 7.39782C128.34 8.3598 132.101 10.7381 135.355 14.6627C140.875 21.3207 148.586 28.8369 155.686 33.9343C159.256 36.4974 162.483 38.311 165.073 39.1702C167.807 40.0768 168.851 39.629 169.181 39.3591C171.026 37.8471 173.378 37.5424 175.379 37.6354C177.455 37.732 179.721 38.2788 181.975 39.0811C186.498 40.691 191.541 43.5355 195.937 47.0067C200.298 50.4498 204.326 54.749 206.462 59.4076C208.671 64.2226 208.94 69.7426 205.049 74.5849C201.795 78.6348 197.114 81.8991 192.141 84.8738C189.628 86.3767 186.955 87.8542 184.263 89.339L184.012 89.4774C181.385 90.9264 178.734 92.3887 176.095 93.9394C165.155 100.369 155.111 107.954 150.417 120.202C148.359 125.571 145.509 132.831 142.233 141.175C137.211 153.967 131.189 169.305 125.493 184.274C120.813 196.575 116.405 208.494 113.051 218.294C109.647 228.24 107.464 235.626 107.036 239.086C106.6 242.611 106.792 248.424 107.146 255.766C107.197 256.821 107.251 257.902 107.306 259.006C107.626 265.425 107.983 272.598 108.015 279.698C108.051 288.004 107.646 296.417 106.151 303.624C104.681 310.716 102.021 317.323 96.9915 321.223C92.1864 324.949 87.2549 325.919 82.4053 325.061C77.781 324.243 73.4505 321.799 69.5539 319.217C67.84 318.081 66.1285 316.861 64.4727 315.681C64.2243 315.505 63.9772 315.328 63.7315 315.154C61.8222 313.795 59.9822 312.504 58.1554 311.355C54.4499 309.026 51.1586 307.528 48.0657 307.264C43.3548 306.862 37.5052 304.49 31.9146 301.119C26.2483 297.702 20.4771 293.036 15.9506 287.654C11.4532 282.307 7.96088 275.981 7.35723 269.272C6.73515 262.357 9.22878 255.52 15.7607 249.549C21.6562 244.16 27.4211 239.522 32.7884 235.275C33.5535 234.669 34.3091 234.073 35.055 233.484C39.5743 229.918 43.7396 226.631 47.5124 223.308C56.2521 215.613 62.4541 208.091 65.1225 197.685L67.5337 188.283L67.6274 188.481Z" fill="#241F0B"/>
</svg>
