<svg width="176" height="430" viewBox="0 0 176 430" fill="none" xmlns="http://www.w3.org/2000/svg">
<path fill-rule="evenodd" clip-rule="evenodd" d="M-87.8413 49.1445C-90.8938 54.8225 -91.7325 63.1933 -90.2606 70.2368C-90.1625 70.7061 -89.1725 72.8458 -84.2743 76.248C-79.7742 79.3737 -73.6615 82.4148 -66.8352 85.3839C-62.4622 87.286 -58.222 88.9841 -54.1083 90.6316C-51.7019 91.5954 -49.3388 92.5418 -47.0176 93.5016C-44.0198 94.7412 -41.1198 95.9958 -38.6388 97.2377C-36.3608 98.378 -33.5965 99.9091 -31.4707 101.885C-29.7565 103.479 -28.582 105.429 -27.8434 106.778C-27.0041 108.31 -26.1997 110.07 -25.4293 111.917C-23.8858 115.619 -22.1949 120.366 -20.3705 125.799C-18.3191 131.909 -15.9662 139.295 -13.3509 147.505C-11.3508 153.784 -9.19738 160.544 -6.908 167.583C3.79723 200.498 18.0078 241.209 36.3814 277.537L48.8942 302.277L43.3552 299.868C44.7274 309.6 44.2051 319.349 42.9248 329.192C41.9652 336.57 40.5347 344.287 39.0782 352.146C38.839 353.436 38.5992 354.73 38.3606 356.027C36.6472 365.341 34.946 375.066 33.7771 385.575C32.8805 393.637 35.2166 398.361 38.5605 401.55C42.3293 405.143 48.463 407.765 56.4334 408.986C64.2763 410.187 72.9476 409.876 80.6572 408.498C88.6153 407.076 94.3587 404.734 97.0268 402.771C103.432 398.057 111.139 396.153 117.83 395.085C121.262 394.537 124.754 394.165 128.005 393.835C128.442 393.791 128.873 393.748 129.3 393.705C132.14 393.418 134.779 393.152 137.348 392.805C143.412 391.986 147.623 390.87 150.471 389.146C152.76 387.76 154.522 385.801 155.333 381.621C155.99 378.236 154.885 372.799 150.43 364.929C146.142 357.351 139.646 349.075 132.214 340.668C125.905 333.531 119.209 326.615 112.971 320.172C111.889 319.054 110.821 317.951 109.771 316.863C102.971 309.819 96.3894 302.893 92.7329 297.506C88.9696 291.962 83.9038 280.665 78.492 267.49C72.9131 253.908 66.52 237.186 60.1097 219.943C52.3869 199.169 44.4324 177.066 37.8709 158.834C33.6572 147.125 30.0181 137.013 27.3837 129.874C19.2176 107.746 24.2284 86.4033 30.0144 68.9411C31.4209 64.6961 32.9183 60.5592 34.3245 56.6743L34.4831 56.236C35.9541 52.1714 37.3097 48.4102 38.4698 44.816C40.843 37.4637 42.0346 31.8457 41.8443 27.3836C41.7778 25.8233 41.2471 24.5012 38.1689 23.1219C34.642 21.5415 29.1147 20.7376 22.5954 21.0713C16.2055 21.3984 9.93056 22.7646 5.40838 24.5577C3.27343 25.4042 1.87827 26.2089 1.10761 26.7873C-0.828491 34.1067 -7.14915 38.0342 -11.924 40.0487C-17.428 42.3709 -24.1793 43.6275 -30.915 44.2817C-44.5273 45.6038 -60.8054 44.706 -73.7129 42.6353C-77.9843 41.9501 -80.7783 42.6408 -82.6659 43.6362C-84.6222 44.6679 -86.3915 46.4477 -87.8413 49.1445ZM0.60334 27.2234C0.600862 27.2232 0.62106 27.1985 0.671204 27.15C0.630835 27.1994 0.605811 27.2236 0.60334 27.2234ZM7.06187 262.276C-6.54482 231.529 -17.4304 199.894 -25.9273 173.769C-28.3186 166.416 -30.4962 159.578 -32.4922 153.31C-35.0462 145.29 -37.303 138.203 -39.3302 132.166C-41.1217 126.83 -42.6297 122.634 -43.889 119.614C-44.5201 118.101 -45.0181 117.054 -45.3848 116.385C-45.3975 116.362 -45.4098 116.339 -45.4218 116.318C-45.7837 116.089 -46.4615 115.688 -47.5912 115.122C-49.4113 114.211 -51.7751 113.177 -54.6599 111.984C-56.5706 111.194 -58.7452 110.322 -61.0656 109.392C-65.3955 107.655 -70.2333 105.716 -74.8123 103.724C-81.9501 100.62 -89.5249 96.9523 -95.6838 92.6743C-101.445 88.6728 -108.085 82.7134 -109.838 74.3278C-112.067 63.6613 -111.175 50.3099 -105.457 39.6741C-102.521 34.2139 -98.1455 29.1889 -91.9955 25.9456C-85.7766 22.6659 -78.5032 21.6111 -70.545 22.8878C-58.9933 24.741 -44.4564 25.5028 -32.8483 24.3753C-26.9738 23.8048 -22.5136 22.8094 -19.6985 21.6217C-18.8718 21.2729 -18.3539 20.9857 -18.0465 20.7872C-16.9352 16.3207 -13.9316 13.1953 -11.5098 11.2646C-8.71737 9.03852 -5.34387 7.30629 -1.96367 5.96596C4.83821 3.26886 13.2944 1.52117 21.573 1.09744C29.7222 0.680333 38.8007 1.48877 46.3474 4.87054C54.3428 8.45329 61.3534 15.4432 61.8262 26.5316C62.1752 34.7181 60.0201 43.1612 57.5029 50.9595C56.2179 54.9406 54.7425 59.027 53.2894 63.0421L53.1622 63.3936C51.733 67.3422 50.3181 71.2514 48.9993 75.2316C43.5154 91.7825 40.452 107.518 46.1469 122.95C48.9683 130.596 52.6608 140.859 56.8934 152.625C63.349 170.569 71.0611 192.005 78.8561 212.973C85.2399 230.145 91.5414 246.62 96.9922 259.891C102.61 273.568 106.909 282.78 109.281 286.274C111.759 289.925 116.938 295.491 124.16 302.973C125.173 304.022 126.216 305.099 127.283 306.201C133.509 312.631 140.562 319.914 147.198 327.422C154.944 336.184 162.521 345.687 167.836 355.078C172.985 364.175 177.012 374.894 174.967 385.432C173.076 395.174 167.933 401.954 160.829 406.255C154.284 410.217 146.615 411.734 140.026 412.625C137.094 413.021 134.086 413.324 131.275 413.607C130.853 413.649 130.436 413.691 130.025 413.733C126.777 414.063 123.793 414.386 120.983 414.835C115.192 415.76 111.359 417.056 108.881 418.879C102.667 423.452 93.4742 426.524 84.1763 428.186C74.63 429.893 63.7251 430.336 53.4047 428.755C43.2118 427.194 32.595 423.496 24.7592 416.025C16.4985 408.148 12.376 397.064 13.8997 383.365C15.1511 372.113 16.9611 361.81 18.6907 352.408C18.9392 351.057 19.185 349.73 19.4268 348.424C20.8897 340.527 22.2077 333.411 23.0918 326.613C25.1273 310.964 24.6143 298.59 18.528 286.562L6.00578 261.817L7.06187 262.276ZM-17.6566 20.4842C-17.6528 20.4852 -17.6764 20.5134 -17.7386 20.5655C-17.6914 20.5092 -17.6603 20.4831 -17.6566 20.4842Z" fill="#574B1E"/>
<path d="M27.4578 282.05C-10.0192 207.952 -30.1539 116.764 -38.2797 109.209C-46.4054 101.655 -96.3483 89.9923 -100.049 72.2823C-103.75 54.5723 -96.5882 28.8378 -72.129 32.7616C-47.6697 36.6854 -10.4989 36.0807 -8.41833 23.5684C-6.33775 11.056 50.7566 1.66037 51.8352 26.9576C52.9139 52.2548 22.9042 88.8521 36.7653 126.412C50.6264 163.973 88.7374 273.815 101.007 291.89C113.276 309.966 170.555 355.682 165.15 383.526C159.746 411.371 120.719 397.752 102.954 410.825C85.1889 423.898 18.9978 427.992 23.8384 384.47C28.679 340.948 42.2468 311.286 27.4506 282.047L27.4578 282.05Z" fill="#FBF3D6"/>
<path fill-rule="evenodd" clip-rule="evenodd" d="M-93.5663 46.0666C-97.4852 53.3559 -98.3411 63.3454 -96.6232 71.5663C-95.9875 74.6085 -93.161 77.9895 -87.9824 81.5865C-82.9432 85.0867 -76.3553 88.3313 -69.4278 91.3445C-64.9892 93.275 -60.5617 95.0489 -56.3743 96.7266C-53.9915 97.6813 -51.6864 98.6049 -49.5014 99.5084C-46.5403 100.733 -43.8145 101.916 -41.5484 103.05C-39.3532 104.149 -37.3008 105.34 -35.8965 106.646C-34.9665 107.511 -34.1948 108.712 -33.5443 109.9C-32.8586 111.152 -32.1538 112.68 -31.4287 114.419C-29.9776 117.899 -28.3461 122.467 -26.5324 127.868C-24.489 133.954 -22.1677 141.242 -19.5724 149.39C-17.5734 155.666 -15.4117 162.452 -13.0893 169.593C-2.36534 202.566 11.9703 243.674 30.5811 280.471L34.9606 289.13L34.0648 288.74C38.4379 301.551 38.2778 314.525 36.4791 328.354C35.544 335.543 34.1502 343.064 32.6917 350.935C32.4516 352.231 32.2097 353.536 31.9679 354.851C30.2492 364.193 28.5127 374.106 27.317 384.857C26.2165 394.751 29.1333 401.542 34.0751 406.254C39.1657 411.108 46.7564 414.079 55.4491 415.411C64.0972 416.736 73.4944 416.382 81.8009 414.897C90.1944 413.397 97.0587 410.817 100.879 408.006C106.008 404.232 112.456 402.525 118.855 401.504C122.084 400.988 125.412 400.632 128.662 400.302C129.09 400.259 129.517 400.216 129.942 400.173C132.773 399.888 135.532 399.61 138.218 399.246C144.453 398.404 149.788 397.158 153.838 394.706C157.691 392.373 160.552 388.847 161.714 382.86C162.822 377.15 160.767 369.996 156.087 361.727C151.465 353.56 144.618 344.885 137.084 336.363C130.669 329.106 123.857 322.071 117.623 315.632C116.545 314.519 115.485 313.424 114.447 312.349C107.51 305.163 101.385 298.678 98.1109 293.856C94.8 288.978 89.9834 278.359 84.5046 265.02C78.9673 251.539 72.6039 234.898 66.2023 217.678C58.4562 196.841 50.5818 174.958 44.0547 156.82C39.834 145.09 36.1767 134.927 33.4818 127.624C26.1188 107.672 30.4967 88.1515 36.1845 70.9855C37.5623 66.8271 39.0327 62.7648 40.4456 58.8612L40.5952 58.4479C42.0603 54.3995 43.4549 50.5325 44.6556 46.8126C47.0756 39.3154 48.5803 32.7792 48.3384 27.1066C48.1399 22.4498 45.5032 19.2856 40.8269 17.1901C35.9936 15.0243 29.3121 14.219 22.2631 14.5798C15.2594 14.9383 8.27555 16.4284 3.01247 18.5154C0.373668 19.5617 -1.69252 20.7031 -3.09443 21.8207C-4.55563 22.9856 -4.91028 23.8089 -4.96572 24.1424C-5.78931 29.0954 -9.95948 32.165 -14.4507 34.0599C-19.0808 36.0134 -25.0875 37.1851 -31.5433 37.8121C-44.5042 39.0709 -60.2165 38.2174 -72.6833 36.2174C-78.1529 35.3399 -82.4028 36.1489 -85.698 37.8867C-89.0172 39.6372 -91.6337 42.4717 -93.5663 46.0666ZM20.0971 275.033C3.28419 240.046 -9.82082 202.275 -19.7461 171.758C-22.1041 164.508 -24.2741 157.694 -26.2718 151.422C-28.8456 143.34 -31.1333 136.157 -33.1683 130.097C-34.9705 124.729 -36.5379 120.355 -37.8896 117.113C-38.5659 115.491 -39.1635 114.212 -39.6838 113.262C-39.9427 112.79 -40.1651 112.43 -40.3495 112.167C-40.4405 112.037 -40.515 111.941 -40.5723 111.873C-40.6005 111.839 -40.6227 111.814 -40.6387 111.797C-40.6547 111.78 -40.6628 111.772 -40.6628 111.773C-41.29 111.189 -42.5758 110.364 -44.6817 109.31C-46.7165 108.291 -49.2546 107.185 -52.1762 105.977C-54.2175 105.133 -56.4565 104.236 -58.8093 103.293C-63.0725 101.584 -67.7092 99.7255 -72.2198 97.7636C-79.2563 94.703 -86.3559 91.2392 -91.9757 87.3357C-97.4563 83.529 -102.26 78.8111 -103.475 72.9982C-105.458 63.5092 -104.584 51.7765 -99.7318 42.7519C-97.2792 38.1899 -93.7504 34.2196 -88.9633 31.695C-84.1522 29.1577 -78.3346 28.2213 -71.5746 29.3058C-59.5822 31.2296 -44.4794 32.0356 -32.22 30.8449C-26.0656 30.2472 -20.8608 29.1669 -17.1718 27.6105C-13.344 25.9955 -12.0876 24.2974 -11.8709 22.9942C-11.4062 20.1996 -9.52154 17.9923 -7.45793 16.3472C-5.33504 14.6548 -2.59097 13.207 0.432251 12.0083C6.49323 9.60494 14.2405 7.98124 21.9053 7.58893C29.5247 7.19892 37.4491 8.00588 43.6894 10.8022C50.0867 13.6689 54.9913 18.8167 55.3321 26.8084C55.6295 33.7845 53.7875 41.3095 51.3172 48.9628C50.0728 52.8182 48.6363 56.7989 47.1774 60.8301L47.039 61.2125C45.618 65.1385 44.1764 69.1213 42.8292 73.1872C37.2471 90.0342 33.5508 107.592 40.0489 125.201C42.8093 132.681 46.4852 142.897 50.7125 154.646C57.2025 172.684 64.9922 194.334 72.7635 215.238C79.1559 232.433 85.4872 248.989 90.9796 262.361C96.5306 275.875 101.079 285.764 103.903 289.924C106.764 294.139 112.399 300.148 119.484 307.487C120.508 308.549 121.559 309.634 122.631 310.741C128.861 317.176 135.799 324.34 142.329 331.727C149.972 340.373 157.198 349.478 162.179 358.279C167.102 366.978 170.18 375.98 168.586 384.193C167.046 392.128 163.002 397.341 157.463 400.694C152.119 403.929 145.574 405.316 139.156 406.183C136.342 406.564 133.454 406.855 130.633 407.139C130.21 407.181 129.788 407.224 129.368 407.266C126.12 407.596 122.97 407.935 119.958 408.416C113.874 409.388 108.782 410.881 105.028 413.644C99.9665 417.369 91.8951 420.204 83.0326 421.788C74.0832 423.387 63.9043 423.788 54.3891 422.33C44.9185 420.879 35.7587 417.531 29.2447 411.32C22.5819 404.968 19.04 395.95 20.3599 384.083C21.5845 373.073 23.3591 362.957 25.0834 353.584C25.3287 352.251 25.5726 350.934 25.8136 349.633C27.2744 341.748 28.6289 334.437 29.5376 327.451C31.6458 311.242 31.2667 297.34 24.3277 283.627L19.9449 274.966L20.0971 275.033Z" fill="#241F0B"/>
</svg>
